<svg width="103" height="36" viewBox="0 0 103 36" fill="none" xmlns="http://www.w3.org/2000/svg">
<g filter="url(#filter0_d_2_45)">
<path d="M44.416 14.744H47.272C46.864 11.24 44.224 8.48 39.88 8.48C34.936 8.48 31.816 12.248 31.816 17.408C31.816 22.592 34.936 26.36 39.88 26.36C44.248 26.36 46.888 23.6 47.272 19.736H44.416C44.224 21.824 43 23.912 39.808 23.912C36.112 23.912 34.648 20.816 34.648 17.408C34.648 14.024 36.112 10.928 39.808 10.928C42.976 10.928 44.104 13.016 44.416 14.744ZM54.7122 26.36C50.8722 26.36 48.5442 23.696 48.5442 19.88C48.5442 16.064 50.8722 13.4 54.7122 13.4C58.5522 13.4 60.8802 16.064 60.8802 19.88C60.8802 23.696 58.5522 26.36 54.7122 26.36ZM54.7122 24.296C57.1122 24.296 58.3602 22.4 58.3602 19.88C58.3602 17.336 57.1122 15.464 54.7122 15.464C52.3122 15.464 51.0642 17.336 51.0642 19.88C51.0642 22.4 52.3122 24.296 54.7122 24.296ZM70.0379 16.952C70.0379 18.128 68.8859 18.368 66.9899 18.728C63.9179 19.328 61.9259 20.168 61.9259 22.856C61.9259 24.92 63.4619 26.36 65.9579 26.36C67.8539 26.36 69.2459 25.616 70.0139 24.536H70.0619C70.3019 25.736 70.9259 26.216 72.2699 26.216C72.7499 26.216 73.1579 26.168 73.7339 25.952V24.752C72.7499 24.848 72.5579 24.392 72.5579 23.528V17.696C72.5579 14.432 70.5419 13.4 67.8299 13.4C64.1339 13.4 62.6219 15.248 62.5019 17.6H64.9499C65.0699 16.016 65.8139 15.392 67.8299 15.392C69.5099 15.392 70.0379 16.064 70.0379 16.952ZM66.5099 24.368C65.1419 24.368 64.4699 23.744 64.4699 22.616C64.4699 21.368 65.3819 20.768 67.4699 20.312C68.6459 20.072 69.6299 19.784 70.0379 19.496V21.344C70.0379 23.336 68.5979 24.368 66.5099 24.368ZM83.6558 18.224H86.1758C85.8638 15.44 83.7758 13.4 80.5838 13.4C76.9358 13.4 74.5598 16.04 74.5598 19.88C74.5598 23.72 76.9358 26.36 80.6078 26.36C83.7998 26.36 85.9838 24.272 86.1758 21.44H83.6558C83.5598 22.808 82.7678 24.296 80.6078 24.296C78.1118 24.296 77.0798 22.184 77.0798 19.88C77.0798 17.576 78.1358 15.464 80.6078 15.464C82.7678 15.464 83.5598 16.976 83.6558 18.224ZM94.3926 13.4C92.3286 13.4 91.0566 14.36 90.4086 15.32H90.3606V8.84H87.8406V26H90.3606V18.536C90.3606 16.712 91.6806 15.536 93.5286 15.536C95.2806 15.536 95.9766 16.592 95.9766 18.248V26H98.5206V17.528C98.5206 14.72 96.7206 13.4 94.3926 13.4Z" fill="white"/>
<path d="M25 17C25 11.4772 20.5228 7 15 7C9.47715 7 5 11.4772 5 17C5 22.5228 9.47715 27 15 27C18.0413 27 20.7655 25.6423 22.5996 23.5" stroke="white" stroke-width="2" stroke-linecap="round"/>
<circle cx="15" cy="17" r="5" fill="white"/>
</g>
<defs>
<filter id="filter0_d_2_45" x="0" y="6" width="102.521" height="30" filterUnits="userSpaceOnUse" color-interpolation-filters="sRGB">
<feFlood flood-opacity="0" result="BackgroundImageFix"/>
<feColorMatrix in="SourceAlpha" type="matrix" values="0 0 0 0 0 0 0 0 0 0 0 0 0 0 0 0 0 0 127 0" result="hardAlpha"/>
<feOffset dy="4"/>
<feGaussianBlur stdDeviation="2"/>
<feComposite in2="hardAlpha" operator="out"/>
<feColorMatrix type="matrix" values="0 0 0 0 0 0 0 0 0 0 0 0 0 0 0 0 0 0 0.25 0"/>
<feBlend mode="normal" in2="BackgroundImageFix" result="effect1_dropShadow_2_45"/>
<feBlend mode="normal" in="SourceGraphic" in2="effect1_dropShadow_2_45" result="shape"/>
</filter>
</defs>
</svg>
