<svg width="70" height="70" viewBox="0 0 70 70" fill="none" xmlns="http://www.w3.org/2000/svg">
<path d="M69.6339 35C69.6339 41.8498 67.6027 48.5458 63.7971 54.2412C59.9916 59.9367 54.5826 64.3757 48.2542 66.997C41.9257 69.6183 34.9621 70.3042 28.2439 68.9678C21.5257 67.6315 15.3546 64.333 10.5111 59.4894C5.66752 54.6459 2.36901 48.4748 1.03267 41.7566C-0.303662 35.0384 0.382195 28.0748 3.00351 21.7464C5.62483 15.4179 10.0639 10.009 15.7593 6.2034C21.4547 2.39784 28.1507 0.366626 35.0005 0.366626C39.5549 0.344283 44.0685 1.22485 48.2805 2.95742C52.4925 4.69 56.3194 7.24022 59.5398 10.4607C62.7603 13.6811 65.3105 17.508 67.0431 21.72C68.7757 25.932 69.6562 30.4456 69.6339 35Z" fill="white"/>
<path d="M35.0002 70C29.6427 70.0055 24.3558 68.7782 19.5487 66.4131C14.7415 64.048 10.543 60.6085 7.27813 56.3608C2.53516 50.2529 -0.0269159 42.7331 0.000213249 35C0.000213181 30.4037 0.905514 25.8525 2.66443 21.6061C4.42334 17.3597 7.00142 13.5013 10.2515 10.2513C13.5015 7.00121 17.3599 4.42313 21.6063 2.66422C25.8527 0.905302 30.4039 0 35.0002 0C39.5965 0 44.1477 0.905302 48.3941 2.66422C52.6405 4.42313 56.4989 7.00121 59.7489 10.2513C62.999 13.5013 65.5771 17.3597 67.336 21.6061C69.0949 25.8525 70.0002 30.4037 70.0002 35C70.0273 42.7331 67.4652 50.2529 62.7223 56.3608C59.4574 60.6085 55.2589 64.048 50.4517 66.4131C45.6446 68.7782 40.3577 70.0055 35.0002 70ZM35.0002 0.733293C25.9154 0.743966 17.2057 4.35762 10.7818 10.7816C4.35784 17.2055 0.744178 25.9152 0.733504 35C0.713977 42.5671 3.22546 49.9235 7.86843 55.8988C11.0672 60.0525 15.1769 63.4163 19.8809 65.7309C24.5849 68.0456 29.7576 69.2493 35.0002 69.2493C40.2428 69.2493 45.4155 68.0456 50.1195 65.7309C54.8235 63.4163 58.9332 60.0525 62.132 55.8988C66.771 49.922 69.2786 42.5658 69.2559 35C69.2452 25.9171 65.6331 17.2091 59.2115 10.7854C52.79 4.36182 44.0831 0.746876 35.0002 0.733293Z" fill="#093F68"/>
<path d="M34.8541 51.6787C34.8541 51.6787 33.3032 53.2406 31.4847 55.1875C28.9181 57.9263 25.853 61.4205 25.853 62.4141V68.4124C18.5855 66.4176 12.1664 62.1081 7.56836 56.1371C7.73702 53.4679 8.09633 50.9564 8.78929 49.2258C9.85623 46.5566 13.706 43.5795 17.5338 41.1596C18.2304 40.7196 18.9234 40.2943 19.598 39.8984C23.2425 37.7425 26.3773 36.2612 26.3773 36.2612L29.1931 41.3943L34.8541 51.6787Z" fill="#FFC9B0"/>
<path d="M25.853 68.779C25.8215 68.7846 25.7892 68.7846 25.7577 68.779C18.4186 66.752 11.9347 62.3998 7.27872 56.3754C7.22421 56.3055 7.19686 56.2183 7.20173 56.1298C7.39605 53.0463 7.81769 50.6851 8.44832 49.1048C9.37227 46.7913 12.3641 44.0121 17.3358 40.8516C18.0691 40.386 18.7731 39.957 19.411 39.5831C23.0298 37.4418 26.1903 35.9459 26.2196 35.9166C26.3042 35.8759 26.4011 35.8692 26.4905 35.8979C26.5798 35.9265 26.6548 35.9883 26.6999 36.0706L35.1768 51.499C35.2151 51.5687 35.2297 51.6489 35.2185 51.7276C35.2073 51.8063 35.1707 51.8792 35.1145 51.9353C35.1145 51.9353 33.5452 53.5156 31.7523 55.4331C26.6193 60.9328 26.2196 62.1684 26.2196 62.3994V68.3977C26.2195 68.4537 26.2065 68.5089 26.1818 68.5591C26.157 68.6094 26.121 68.6532 26.0766 68.6874C26.0146 68.7423 25.9358 68.7746 25.853 68.779ZM7.94235 56.0234C12.3952 61.7355 18.5333 65.9008 25.4863 67.9284V62.4287C25.4863 62.0621 25.4863 61.1015 31.217 54.9528C32.6506 53.4166 33.9302 52.1113 34.3995 51.631L26.2233 36.7415C25.3433 37.1705 22.7182 38.4794 19.785 40.2137C19.1507 40.5803 18.4577 41.0093 17.7281 41.4713C12.9617 44.5034 9.98457 47.2386 9.13028 49.3762C8.53632 50.8464 8.13667 53.0866 7.94235 56.0234Z" fill="#093F68"/>
<path d="M62.4335 56.1371C57.8402 62.1049 51.4279 66.414 44.1672 68.4124V62.4141C44.1672 61.4351 41.0873 57.9263 38.5355 55.1875C36.7023 53.2406 35.166 51.6787 35.166 51.6787L40.827 41.3723L43.6429 36.2393C43.6429 36.2393 46.7777 37.7058 50.4221 39.8764C51.0968 40.2724 51.7897 40.6977 52.4864 41.1376C56.3141 43.5722 60.1639 46.5493 61.2309 49.2038C61.9055 50.9564 62.2648 53.4679 62.4335 56.1371Z" fill="#FFC9B0"/>
<path d="M44.1661 68.779C44.0851 68.7788 44.0064 68.7517 43.9424 68.702C43.898 68.6679 43.8621 68.624 43.8373 68.5738C43.8125 68.5236 43.7996 68.4684 43.7994 68.4124V62.4141C43.7994 62.1721 43.3998 60.9475 38.2667 55.4478C36.4738 53.5302 34.9193 51.9647 34.9046 51.95C34.8483 51.8939 34.8118 51.8209 34.8006 51.7423C34.7893 51.6636 34.804 51.5833 34.8423 51.5137L43.3191 36.0816C43.3643 35.9993 43.4392 35.9375 43.5286 35.9089C43.6179 35.8802 43.7149 35.8869 43.7994 35.9276C43.8288 35.9276 46.9892 37.4382 50.608 39.594C51.2497 39.9607 51.9463 40.397 52.6796 40.859C57.655 44.0231 60.6468 46.8023 61.5707 49.1158C62.2014 50.6961 62.623 53.0573 62.8173 56.1408C62.8222 56.2293 62.7948 56.3165 62.7403 56.3864C58.0844 62.4108 51.6005 66.763 44.2614 68.79C44.2292 68.792 44.197 68.7883 44.1661 68.779ZM35.6196 51.6164C36.0889 52.0967 37.3685 53.4019 38.802 54.9382C44.5327 61.0868 44.5327 62.0511 44.5327 62.4141V67.9137C51.4857 65.8861 57.6239 61.7209 62.0767 56.0088C61.8824 53.0756 61.4827 50.8317 60.8888 49.3468C60.0345 47.2093 57.061 44.4741 52.2873 41.4383C51.554 40.98 50.872 40.5583 50.2341 40.1843C47.3009 38.4501 44.672 37.1412 43.7958 36.7122L35.6196 51.6164Z" fill="#093F68"/>
<path d="M47.6055 9.57678H22.3986C20.8515 9.57678 19.5974 10.8309 19.5974 12.378V60.1115C19.5974 61.6586 20.8515 62.9127 22.3986 62.9127H47.6055C49.1525 62.9127 50.4066 61.6586 50.4066 60.1115V12.378C50.4066 10.8309 49.1525 9.57678 47.6055 9.57678Z" fill="#8E9EF2"/>
<path d="M47.6052 63.2793H22.3946C21.5554 63.2774 20.7511 62.9429 20.1581 62.3491C19.565 61.7553 19.2314 60.9507 19.2305 60.1115V12.3779C19.2314 11.5387 19.565 10.734 20.1581 10.1403C20.7511 9.54651 21.5554 9.21202 22.3946 9.21008H47.6052C48.4438 9.21299 49.2471 9.54791 49.8393 10.1416C50.4316 10.7352 50.7647 11.5393 50.7657 12.3779V60.1115C50.7647 60.9501 50.4316 61.7542 49.8393 62.3478C49.2471 62.9415 48.4438 63.2764 47.6052 63.2793ZM22.3946 9.94337C21.7502 9.94532 21.1329 10.2027 20.6779 10.659C20.2229 11.1154 19.9674 11.7335 19.9674 12.3779V60.1115C19.9674 60.7565 20.2234 61.3752 20.6792 61.8317C21.135 62.2881 21.7532 62.545 22.3983 62.546H47.6088C48.2539 62.545 48.8722 62.2881 49.3279 61.8317C49.7837 61.3752 50.0397 60.7565 50.0397 60.1115V12.3779C50.0397 11.7329 49.7837 11.1142 49.3279 10.6577C48.8722 10.2013 48.2539 9.94435 47.6088 9.94337H22.3946Z" fill="#093F68"/>
<path d="M34.8235 61.2079C34.3782 61.2079 33.943 61.0758 33.5728 60.8285C33.2026 60.5811 32.914 60.2295 32.7436 59.8182C32.5732 59.4068 32.5287 58.9542 32.6155 58.5175C32.7024 58.0808 32.9168 57.6796 33.2316 57.3648C33.5465 57.05 33.9476 56.8356 34.3843 56.7487C34.821 56.6618 35.2736 56.7064 35.685 56.8768C36.0963 57.0472 36.4479 57.3357 36.6953 57.7059C36.9426 58.0762 37.0747 58.5114 37.0747 58.9566C37.0737 59.5534 36.8362 60.1254 36.4142 60.5474C35.9923 60.9694 35.4202 61.2069 34.8235 61.2079ZM34.8235 57.4387C34.5233 57.4387 34.2298 57.5278 33.9802 57.6946C33.7305 57.8613 33.536 58.0984 33.4211 58.3758C33.3062 58.6531 33.2762 58.9583 33.3347 59.2528C33.3933 59.5472 33.5379 59.8177 33.7501 60.03C33.9624 60.2423 34.2329 60.3868 34.5273 60.4454C34.8218 60.504 35.127 60.4739 35.4043 60.359C35.6817 60.2441 35.9188 60.0496 36.0856 59.8C36.2524 59.5503 36.3414 59.2569 36.3414 58.9566C36.3419 58.7572 36.3029 58.5596 36.2268 58.3752C36.1507 58.1908 36.0389 58.0233 35.8979 57.8822C35.7568 57.7412 35.5893 57.6294 35.4049 57.5533C35.2205 57.4772 35.0229 57.4383 34.8235 57.4387Z" fill="#093F68"/>
<path d="M50.4066 13.6539H19.5974V55.1875H50.4066V13.6539Z" fill="#093F68"/>
<path d="M50.3993 55.5541H19.6011C19.5038 55.5541 19.4106 55.5155 19.3418 55.4467C19.2731 55.378 19.2344 55.2847 19.2344 55.1875V13.6539C19.2344 13.5566 19.2731 13.4634 19.3418 13.3946C19.4106 13.3259 19.5038 13.2872 19.6011 13.2872H50.3993C50.4966 13.2872 50.5898 13.3259 50.6586 13.3946C50.7273 13.4634 50.766 13.5566 50.766 13.6539V55.1875C50.766 55.2847 50.7273 55.378 50.6586 55.4467C50.5898 55.5155 50.4966 55.5541 50.3993 55.5541ZM19.9677 54.8208H50.0327V14.0205H19.9677V54.8208Z" fill="#093F68"/>
<path d="M33.4682 12.0517H32.8413C32.744 12.0517 32.6508 12.013 32.582 11.9443C32.5132 11.8755 32.4746 11.7822 32.4746 11.685C32.4746 11.5878 32.5132 11.4945 32.582 11.4257C32.6508 11.357 32.744 11.3184 32.8413 11.3184H33.4682C33.5655 11.3184 33.6587 11.357 33.7275 11.4257C33.7962 11.4945 33.8349 11.5878 33.8349 11.685C33.8349 11.7822 33.7962 11.8755 33.7275 11.9443C33.6587 12.013 33.5655 12.0517 33.4682 12.0517Z" fill="#093F68"/>
<path d="M37.1603 12.0517H34.3334C34.2362 12.0517 34.1429 12.013 34.0742 11.9443C34.0054 11.8755 33.9668 11.7822 33.9668 11.685C33.9668 11.5878 34.0054 11.4945 34.0742 11.4257C34.1429 11.357 34.2362 11.3184 34.3334 11.3184H37.1603C37.2575 11.3184 37.3508 11.357 37.4195 11.4257C37.4883 11.4945 37.5269 11.5878 37.5269 11.685C37.5269 11.7822 37.4883 11.8755 37.4195 11.9443C37.3508 12.013 37.2575 12.0517 37.1603 12.0517Z" fill="#093F68"/>
<path d="M51.6342 19.3149H18.3684C17.4552 19.3149 16.7148 20.0553 16.7148 20.9685V39.7188C16.7148 40.632 17.4552 41.3723 18.3684 41.3723H51.6342C52.5474 41.3723 53.2877 40.632 53.2877 39.7188V20.9685C53.2877 20.0553 52.5474 19.3149 51.6342 19.3149Z" fill="white"/>
<path d="M51.6356 41.7389H18.3662C17.8316 41.738 17.3193 41.5252 16.9413 41.1472C16.5633 40.7693 16.3506 40.2569 16.3496 39.7224V20.9685C16.3496 20.4333 16.5619 19.92 16.94 19.5412C17.3181 19.1625 17.831 18.9492 18.3662 18.9482H51.6356C52.1707 18.9492 52.6836 19.1625 53.0617 19.5412C53.4398 19.92 53.6521 20.4333 53.6521 20.9685V39.7224C53.6512 40.2569 53.4384 40.7693 53.0604 41.1472C52.6825 41.5252 52.1701 41.738 51.6356 41.7389ZM18.3662 19.6815C18.0255 19.6825 17.6991 19.8185 17.4585 20.0598C17.218 20.301 17.0829 20.6278 17.0829 20.9685V39.7224C17.0829 40.0627 17.2181 40.3891 17.4588 40.6298C17.6994 40.8704 18.0258 41.0056 18.3662 41.0056H51.6356C51.9759 41.0056 52.3023 40.8704 52.543 40.6298C52.7836 40.3891 52.9188 40.0627 52.9188 39.7224V20.9685C52.9188 20.6278 52.7838 20.301 52.5432 20.0598C52.3027 19.8185 51.9763 19.6825 51.6356 19.6815H18.3662Z" fill="#093F68"/>
<path d="M35.0009 33.185C34.9233 33.1853 34.8475 33.1609 34.7846 33.1153L17.061 20.0261C16.9827 19.9682 16.9306 19.8816 16.9162 19.7854C16.9017 19.6891 16.9261 19.591 16.984 19.5128C17.0418 19.4345 17.1284 19.3824 17.2247 19.368C17.321 19.3535 17.419 19.3779 17.4973 19.4358L35.0009 32.3637L52.5046 19.4358C52.5829 19.3779 52.6809 19.3535 52.7772 19.368C52.8735 19.3824 52.9601 19.4345 53.0179 19.5128C53.0758 19.591 53.1002 19.6891 53.0857 19.7854C53.0713 19.8816 53.0192 19.9682 52.9409 20.0261L35.2173 33.1153C35.1544 33.1609 35.0786 33.1853 35.0009 33.185Z" fill="#093F68"/>
<path d="M52.7247 41.321C52.647 41.3212 52.5713 41.2969 52.5084 41.2513L38.1799 30.6186C38.1413 30.5897 38.1089 30.5535 38.0844 30.5121C38.0598 30.4706 38.0437 30.4248 38.0369 30.3771C38.0301 30.3294 38.0327 30.2809 38.0447 30.2343C38.0566 30.1876 38.0776 30.1438 38.1065 30.1053C38.1354 30.0668 38.1716 30.0343 38.213 30.0098C38.2545 29.9852 38.3003 29.9691 38.348 29.9623C38.3957 29.9555 38.4442 29.9581 38.4908 29.9701C38.5375 29.982 38.5813 30.0031 38.6198 30.0319L52.9447 40.6647C53.0062 40.7108 53.0517 40.7752 53.0747 40.8487C53.0976 40.9221 53.0969 41.0009 53.0725 41.0739C53.0482 41.1469 53.0015 41.2104 52.9391 41.2554C52.8766 41.3004 52.8016 41.3246 52.7247 41.3246V41.321Z" fill="#093F68"/>
<path d="M17.2772 41.3209C17.2197 41.3214 17.1628 41.3084 17.1112 41.283C17.0596 41.2575 17.0148 41.2202 16.9802 41.1742C16.9515 41.1354 16.9308 41.0914 16.9191 41.0446C16.9074 40.9979 16.9051 40.9493 16.9123 40.9016C16.9194 40.8539 16.9359 40.8081 16.9608 40.7668C16.9856 40.7255 17.0184 40.6895 17.0572 40.6609L31.3821 30.0282C31.4599 29.9698 31.5576 29.9448 31.6539 29.9585C31.7502 29.9723 31.837 30.0237 31.8954 30.1015C31.9537 30.1793 31.9788 30.2771 31.965 30.3733C31.9513 30.4696 31.8998 30.5565 31.822 30.6148L17.4935 41.2475C17.4311 41.2944 17.3553 41.3201 17.2772 41.3209Z" fill="#093F68"/>
<path d="M18.8453 28.2245C21.9657 28.2245 24.4953 25.6949 24.4953 22.5744C24.4953 19.454 21.9657 16.9244 18.8453 16.9244C15.7249 16.9244 13.1953 19.454 13.1953 22.5744C13.1953 25.6949 15.7249 28.2245 18.8453 28.2245Z" fill="#F56132"/>
<path d="M18.8463 28.5946C17.6554 28.5953 16.4911 28.2429 15.5006 27.5818C14.51 26.9207 13.7378 25.9807 13.2816 24.8807C12.8254 23.7807 12.7056 22.5701 12.9375 21.402C13.1694 20.234 13.7425 19.1609 14.5843 18.3186C15.4261 17.4762 16.4988 16.9025 17.6667 16.6699C18.8347 16.4373 20.0453 16.5563 21.1456 17.0119C22.2459 17.4674 23.1864 18.2391 23.848 19.2292C24.5097 20.2193 24.8629 21.3834 24.8629 22.5743C24.861 24.1697 24.2266 25.6993 23.0988 26.8279C21.9709 27.9564 20.4417 28.5917 18.8463 28.5946ZM18.8463 17.2909C17.8003 17.2902 16.7776 17.5997 15.9076 18.1804C15.0376 18.7611 14.3593 19.5868 13.9587 20.553C13.5581 21.5192 13.4531 22.5826 13.657 23.6085C13.8609 24.6344 14.3645 25.5768 15.1041 26.3164C15.8437 27.0561 16.7861 27.5597 17.812 27.7636C18.838 27.9674 19.9013 27.8624 20.8675 27.4618C21.8338 27.0612 22.6595 26.383 23.2401 25.513C23.8208 24.643 24.1303 23.6203 24.1296 22.5743C24.1277 21.1736 23.5704 19.8309 22.58 18.8405C21.5896 17.8501 20.2469 17.2929 18.8463 17.2909Z" fill="#093F68"/>
<path d="M18.5012 19.5643L17.8339 20.129L16.7339 21.0602L16.5213 21.2399L16.7339 21.4856L17.2509 22.0795L18.4682 21.0089V25.6433H19.7074V19.5643H18.5012Z" fill="white"/>
<path d="M19.6891 19.5642V25.6432H18.4498V21.0088L17.2326 22.0794L16.7156 21.4854L16.5029 21.2398L16.7156 21.0601L17.8155 20.1289L18.5011 19.5642H19.7037M19.7037 18.8309H18.5011C18.3281 18.8308 18.1606 18.8918 18.0282 19.0033L17.3609 19.5679L16.2609 20.4992L16.0483 20.6788C15.9745 20.7415 15.9138 20.8181 15.8697 20.9043C15.8257 20.9905 15.7991 21.0846 15.7916 21.1811C15.7837 21.2782 15.7952 21.3758 15.8254 21.4683C15.8557 21.5608 15.904 21.6464 15.9676 21.7201L16.1803 21.9658L16.6973 22.5597C16.7606 22.6333 16.838 22.6935 16.9249 22.737C17.0117 22.7804 17.1063 22.8061 17.2032 22.8127H17.2509C17.4291 22.8124 17.6012 22.7473 17.7349 22.6294V25.6432C17.7349 25.8377 17.8121 26.0242 17.9496 26.1617C18.0872 26.2992 18.2737 26.3765 18.4682 26.3765H19.7074C19.9019 26.3765 20.0884 26.2992 20.2259 26.1617C20.3634 26.0242 20.4407 25.8377 20.4407 25.6432V19.5642C20.4407 19.3697 20.3634 19.1832 20.2259 19.0457C20.0884 18.9082 19.9019 18.8309 19.7074 18.8309H19.7037Z" fill="#093F68"/>
<path d="M57.8746 57.3654C57.8746 57.3654 46.9559 44.8994 44.3087 45.1781C41.6616 45.4567 39.909 47.7666 40.9906 50.4431C42.0722 53.1196 50.9377 61.3655 50.9377 61.3655C49.0673 62.6905 47.692 64.6012 47.0292 66.7955" fill="#FFC9B0"/>
<path d="M47.0451 67.1583C47.0111 67.1631 46.9765 67.1631 46.9425 67.1583C46.8962 67.1448 46.8531 67.1224 46.8156 67.0922C46.778 67.0621 46.7468 67.0249 46.7236 66.9826C46.6769 66.8974 46.6659 66.797 46.6931 66.7037C47.3335 64.5749 48.6215 62.6986 50.3779 61.336C48.7354 59.7924 41.6518 53.0461 40.6655 50.5896C40.4054 50.0008 40.2879 49.359 40.3223 48.7162C40.3567 48.0734 40.5421 47.4478 40.8635 46.8901C41.2345 46.3048 41.7362 45.8135 42.3291 45.4547C42.922 45.0959 43.59 44.8795 44.2806 44.8223H44.3943C47.2908 44.8223 57.0362 55.8656 58.1545 57.1416C58.2147 57.2154 58.2438 57.3098 58.2356 57.4048C58.2273 57.4997 58.1825 57.5877 58.1105 57.6501C58.0386 57.7126 57.9451 57.7445 57.85 57.7393C57.7548 57.734 57.6655 57.6919 57.6009 57.6219C53.4284 52.8555 46.1468 45.3722 44.3649 45.5556C43.7862 45.5997 43.2257 45.7777 42.7275 46.0754C42.2293 46.3732 41.8071 46.7826 41.4941 47.2715C41.2323 47.7328 41.0826 48.2493 41.0571 48.7792C41.0316 49.3091 41.1311 49.8376 41.3475 50.3219C42.3777 52.8885 51.1149 61.028 51.2029 61.1123C51.2441 61.1502 51.2761 61.1969 51.2964 61.2491C51.3167 61.3012 51.3249 61.3572 51.3202 61.413C51.3149 61.4686 51.297 61.5224 51.2678 61.57C51.2385 61.6177 51.1988 61.658 51.1516 61.688C49.3622 62.9655 48.0429 64.7963 47.3971 66.898C47.3742 66.9735 47.3276 67.0396 47.2642 67.0865C47.2008 67.1334 47.124 67.1586 47.0451 67.1583Z" fill="#093F68"/>
<path d="M12.1252 57.3654C12.1252 57.3654 23.0439 44.8994 25.6911 45.1781C28.3383 45.4567 30.0908 47.7666 29.0092 50.4431C27.9276 53.1196 19.0621 61.3655 19.0621 61.3655C20.9325 62.6905 22.3078 64.6012 22.9706 66.7955" fill="#FFC9B0"/>
<path d="M22.9567 67.1585C22.8748 67.1617 22.7943 67.1375 22.7278 67.0897C22.6614 67.0418 22.6129 66.9731 22.59 66.8945C21.9558 64.7921 20.6482 62.9563 18.8686 61.6698C18.8213 61.6399 18.7816 61.5995 18.7524 61.5518C18.7231 61.5042 18.7052 61.4505 18.6999 61.3948C18.6952 61.3391 18.7034 61.283 18.7237 61.2309C18.744 61.1788 18.776 61.132 18.8172 61.0942C18.9052 61.0098 27.6424 52.874 28.6727 50.3038C28.889 49.8194 28.9885 49.2909 28.963 48.761C28.9375 48.2312 28.7878 47.7147 28.526 47.2533C28.2131 46.7645 27.7908 46.355 27.2927 46.0573C26.7945 45.7595 26.2339 45.5815 25.6552 45.5374C23.8696 45.3431 16.5917 52.8336 12.4193 57.6037C12.3546 57.6737 12.2653 57.7158 12.1701 57.7211C12.075 57.7264 11.9816 57.6944 11.9096 57.632C11.8376 57.5695 11.7928 57.4815 11.7846 57.3866C11.7764 57.2916 11.8054 57.1972 11.8656 57.1234C12.9986 55.8291 22.9897 44.5071 25.7395 44.8078C26.4301 44.8649 27.0981 45.0814 27.691 45.4402C28.2839 45.799 28.7856 46.2903 29.1566 46.8756C29.478 47.4333 29.6635 48.0589 29.6979 48.7017C29.7323 49.3445 29.6147 49.9863 29.3546 50.5751C28.3683 53.0316 21.2884 59.7779 19.6422 61.3215C21.3986 62.6841 22.6866 64.5604 23.327 66.6892C23.3542 66.7825 23.3432 66.8829 23.2965 66.9681C23.2497 67.0534 23.171 67.1166 23.0776 67.1438C23.0384 67.1554 22.9975 67.1604 22.9567 67.1585Z" fill="#093F68"/>
<path d="M11.4762 19.3369C11.4313 19.3368 11.3867 19.3293 11.3442 19.3149L7.06546 17.654C6.97454 17.619 6.90125 17.5493 6.86172 17.4603C6.82218 17.3712 6.81963 17.2701 6.85464 17.1792C6.88965 17.0883 6.95934 17.015 7.04838 16.9755C7.13742 16.9359 7.23853 16.9334 7.32945 16.9684L11.6082 18.6293C11.6874 18.6606 11.7532 18.7184 11.7943 18.7929C11.8355 18.8674 11.8495 18.9538 11.8339 19.0375C11.8183 19.1212 11.7741 19.1968 11.7088 19.2514C11.6435 19.3061 11.5613 19.3363 11.4762 19.3369Z" fill="#DFEAEF"/>
<path d="M7.19788 40.6904C7.11278 40.6898 7.03055 40.6596 6.96529 40.6049C6.90003 40.5503 6.85581 40.4747 6.8402 40.391C6.8246 40.3074 6.83858 40.2209 6.87976 40.1464C6.92094 40.0719 6.98674 40.0141 7.06589 39.9828L11.3446 38.3219C11.4356 38.2869 11.5367 38.2894 11.6257 38.329C11.7148 38.3685 11.7844 38.4418 11.8195 38.5327C11.8545 38.6236 11.8519 38.7247 11.8124 38.8138C11.7728 38.9028 11.6996 38.9725 11.6086 39.0075L7.32988 40.6684C7.28736 40.6829 7.24278 40.6903 7.19788 40.6904Z" fill="#DFEAEF"/>
<path d="M10.8448 29.1851H5.97211C5.87487 29.1851 5.78162 29.1464 5.71286 29.0777C5.6441 29.0089 5.60547 28.9157 5.60547 28.8184C5.60547 28.7212 5.6441 28.6279 5.71286 28.5592C5.78162 28.4904 5.87487 28.4518 5.97211 28.4518H10.8448C10.9421 28.4518 11.0353 28.4904 11.1041 28.5592C11.1728 28.6279 11.2115 28.7212 11.2115 28.8184C11.2115 28.9157 11.1728 29.0089 11.1041 29.0777C11.0353 29.1464 10.9421 29.1851 10.8448 29.1851Z" fill="#DFEAEF"/>
<path d="M58.5242 19.3369C58.4391 19.3363 58.3568 19.3061 58.2916 19.2514C58.2263 19.1968 58.1821 19.1212 58.1665 19.0375C58.1509 18.9538 58.1649 18.8674 58.206 18.7929C58.2472 18.7184 58.313 18.6606 58.3922 18.6293L62.6709 16.9684C62.7619 16.9334 62.863 16.9359 62.952 16.9755C63.041 17.015 63.1107 17.0883 63.1458 17.1792C63.1808 17.2701 63.1782 17.3712 63.1387 17.4603C63.0991 17.5493 63.0258 17.619 62.9349 17.654L58.6562 19.3149C58.6137 19.3293 58.5691 19.3368 58.5242 19.3369Z" fill="#DFEAEF"/>
<path d="M62.8023 40.6904C62.7574 40.6903 62.7129 40.6829 62.6704 40.6684L58.3916 39.0075C58.3007 38.9725 58.2274 38.9028 58.1879 38.8138C58.1483 38.7247 58.1458 38.6236 58.1808 38.5327C58.2158 38.4418 58.2855 38.3685 58.3745 38.329C58.4636 38.2894 58.5647 38.2869 58.6556 38.3219L62.9343 39.9828C63.0135 40.0141 63.0793 40.0719 63.1205 40.1464C63.1617 40.2209 63.1756 40.3074 63.16 40.391C63.1444 40.4747 63.1002 40.5503 63.0349 40.6049C62.9697 40.6596 62.8874 40.6898 62.8023 40.6904Z" fill="#DFEAEF"/>
<path d="M64.0284 29.1851H59.1557C59.0585 29.1851 58.9652 29.1464 58.8964 29.0777C58.8277 29.0089 58.7891 28.9157 58.7891 28.8184C58.7891 28.7212 58.8277 28.6279 58.8964 28.5592C58.9652 28.4904 59.0585 28.4518 59.1557 28.4518H64.0284C64.1257 28.4518 64.2189 28.4904 64.2877 28.5592C64.3564 28.6279 64.3951 28.7212 64.3951 28.8184C64.3951 28.9157 64.3564 29.0089 64.2877 29.0777C64.2189 29.1464 64.1257 29.1851 64.0284 29.1851Z" fill="#DFEAEF"/>
</svg>
