<svg width="72" height="70" viewBox="0 0 72 70" fill="none" xmlns="http://www.w3.org/2000/svg">
<path d="M71.5238 61.0869H0.162569C0.119453 61.0869 0.0781028 61.0697 0.0476152 61.0392C0.0171276 61.0088 0 60.9674 0 60.9243C0 60.8812 0.0171276 60.8398 0.0476152 60.8093C0.0781028 60.7788 0.119453 60.7617 0.162569 60.7617H71.5238C71.5669 60.7617 71.6083 60.7788 71.6387 60.8093C71.6692 60.8398 71.6863 60.8812 71.6863 60.9243C71.6863 60.9674 71.6692 61.0088 71.6387 61.0392C71.6083 61.0697 71.5669 61.0869 71.5238 61.0869Z" fill="#D1D3D4"/>
<path d="M64.0224 24.395H60.9336V67.7131H64.0224V24.395Z" fill="white"/>
<path d="M64.0229 67.8758H60.9341C60.8909 67.8758 60.8496 67.8586 60.8191 67.8282C60.7886 67.7977 60.7715 67.7563 60.7715 67.7132V24.3951C60.7715 24.352 60.7886 24.3106 60.8191 24.2802C60.8496 24.2497 60.8909 24.2325 60.9341 24.2325H64.0229C64.0657 24.2334 64.1066 24.2508 64.1369 24.2811C64.1672 24.3114 64.1846 24.3523 64.1854 24.3951V67.723C64.1829 67.7644 64.1647 67.8032 64.1345 67.8317C64.1043 67.8601 64.0643 67.8758 64.0229 67.8758ZM61.0966 67.5506H63.8603V24.5577H61.0966V67.5506Z" fill="#D1D3D4"/>
<path d="M10.7548 24.395H7.66602V67.7131H10.7548V24.395Z" fill="white"/>
<path d="M10.7514 67.8758H7.66257C7.61945 67.8758 7.5781 67.8586 7.54762 67.8282C7.51713 67.7977 7.5 67.7563 7.5 67.7132V24.3951C7.50083 24.3523 7.51823 24.3114 7.54854 24.2811C7.57884 24.2508 7.61971 24.2334 7.66257 24.2325H10.7514C10.7945 24.2325 10.8358 24.2497 10.8663 24.2802C10.8968 24.3106 10.9139 24.352 10.9139 24.3951V67.723C10.9115 67.7644 10.8932 67.8032 10.863 67.8317C10.8328 67.8601 10.7929 67.8758 10.7514 67.8758ZM7.82514 67.5506H10.5888V24.5577H7.82514V67.5506Z" fill="#D1D3D4"/>
<path d="M67.6221 34.0223H4.06421V41.4322H67.6221V34.0223Z" fill="white"/>
<path d="M67.6228 41.5949H4.06491C4.0218 41.5949 3.98045 41.5778 3.94996 41.5473C3.91947 41.5168 3.90234 41.4754 3.90234 41.4323V34.0224C3.90234 33.9793 3.91947 33.938 3.94996 33.9075C3.98045 33.877 4.0218 33.8599 4.06491 33.8599H67.6228C67.6659 33.8599 67.7073 33.877 67.7378 33.9075C67.7683 33.938 67.7854 33.9793 67.7854 34.0224V41.4323C67.7854 41.4754 67.7683 41.5168 67.7378 41.5473C67.7073 41.5778 67.6659 41.5949 67.6228 41.5949ZM4.22098 41.2697H67.4603V34.185H4.22748L4.22098 41.2697Z" fill="#D1D3D4"/>
<path d="M67.6221 23.9042H4.06421V31.3141H67.6221V23.9042Z" fill="white"/>
<path d="M67.6228 31.4766H4.06491C4.0218 31.4766 3.98045 31.4595 3.94996 31.429C3.91947 31.3985 3.90234 31.3571 3.90234 31.314V23.9041C3.90234 23.861 3.91947 23.8197 3.94996 23.7892C3.98045 23.7587 4.0218 23.7416 4.06491 23.7416H67.6228C67.6659 23.7416 67.7073 23.7587 67.7378 23.7892C67.7683 23.8197 67.7854 23.861 67.7854 23.9041V31.3075C67.7863 31.3294 67.7827 31.3513 67.7749 31.3717C67.7672 31.3922 67.7553 31.4109 67.7401 31.4267C67.725 31.4425 67.7067 31.4551 67.6866 31.4636C67.6664 31.4722 67.6447 31.4766 67.6228 31.4766ZM4.22098 31.1515H67.4603V24.0667H4.22748L4.22098 31.1515Z" fill="#D1D3D4"/>
<path d="M67.6221 46.0687H4.06421V48.9299H67.6221V46.0687Z" fill="white"/>
<path d="M67.6228 49.0925H4.06491C4.0218 49.0925 3.98045 49.0754 3.94996 49.0449C3.91947 49.0144 3.90234 48.973 3.90234 48.9299V46.0687C3.90234 46.0256 3.91947 45.9842 3.94996 45.9537C3.98045 45.9233 4.0218 45.9061 4.06491 45.9061H67.6228C67.6659 45.9061 67.7073 45.9233 67.7378 45.9537C67.7683 45.9842 67.7854 46.0256 67.7854 46.0687V48.9299C67.7854 48.973 67.7683 49.0144 67.7378 49.0449C67.7073 49.0754 67.6659 49.0925 67.6228 49.0925ZM4.22098 48.7673H67.4603V46.2313H4.22748L4.22098 48.7673Z" fill="#D1D3D4"/>
<path d="M19.5025 28.1862L16.1503 42.0793C16.0646 42.6526 15.8151 43.1889 15.4317 43.6237C15.0244 44.0152 14.5391 44.3165 14.0076 44.5081C13.2891 44.8007 12.5998 44.8332 11.9332 45.2689C11.8588 45.3067 11.7938 45.3609 11.7431 45.4273C11.6925 45.4937 11.6574 45.5707 11.6406 45.6526C11.6416 45.7262 11.6627 45.7981 11.7017 45.8606C11.7407 45.9231 11.796 45.9737 11.8617 46.007C11.9953 46.0703 12.14 46.1067 12.2877 46.1142C14.2775 46.3451 16.2413 46.3906 18.1596 45.7664C19.3269 45.3892 19.6423 44.7617 19.9349 43.5652L23.9536 28.8007" fill="white"/>
<path d="M14.6897 46.4426C13.8808 46.437 13.073 46.3827 12.2707 46.28C12.1001 46.2718 11.933 46.2286 11.7797 46.1532C11.6851 46.1054 11.6058 46.0318 11.5512 45.9409C11.4965 45.85 11.4687 45.7455 11.4709 45.6395C11.4896 45.5326 11.5324 45.4314 11.5961 45.3435C11.6597 45.2557 11.7426 45.1834 11.8383 45.1323C12.2456 44.8771 12.6946 44.6955 13.1648 44.5958C13.4289 44.5314 13.6884 44.45 13.9419 44.3519C14.4517 44.1677 14.9177 43.8799 15.3107 43.5066C15.6732 43.0922 15.908 42.5818 15.987 42.037L19.3392 28.1471C19.3495 28.104 19.3766 28.0667 19.4144 28.0436C19.4522 28.0204 19.4977 28.0132 19.5408 28.0235C19.5839 28.0339 19.6211 28.0609 19.6443 28.0987C19.6675 28.1365 19.6747 28.182 19.6643 28.2251L16.3122 42.1183C16.2208 42.7222 15.9566 43.2869 15.5513 43.7439C15.1261 44.1507 14.6213 44.4651 14.0687 44.6673C13.8013 44.7703 13.5276 44.8561 13.2494 44.9242C12.8165 45.014 12.4027 45.1791 12.0268 45.4119C11.9358 45.4737 11.8122 45.568 11.8057 45.6655C11.8094 45.7076 11.8239 45.7479 11.8478 45.7827C11.8718 45.8175 11.9043 45.8454 11.9423 45.8638C12.0572 45.9155 12.1807 45.9452 12.3065 45.9516C14.0362 46.1532 16.0748 46.2768 18.1069 45.6102C19.1864 45.2591 19.4822 44.7096 19.7684 43.5294L23.7903 28.7583C23.8049 28.7187 23.8338 28.686 23.8713 28.6667C23.9089 28.6473 23.9523 28.6426 23.993 28.6537C24.0338 28.6647 24.0689 28.6905 24.0916 28.7261C24.1142 28.7618 24.1228 28.8046 24.1155 28.8461L20.0935 43.6106C19.7879 44.8657 19.4432 45.5355 18.211 45.9289C17.0714 46.2837 15.8831 46.4571 14.6897 46.4426Z" fill="#231F20"/>
<path d="M48.5664 60.9243C48.5664 60.9243 48.7452 67.0076 49.1549 67.0369C49.5646 67.0661 57.9044 70.168 58.6489 69.2446C59.2992 68.4447 58.8928 66.5752 57.3906 66.0517C55.3033 65.3202 53.7556 63.3206 53.7556 63.3206L53.5638 59.3539" fill="white"/>
<path d="M57.9875 69.5827C56.7032 69.5827 54.0859 68.8122 50.4508 67.6319C49.8233 67.4238 49.2283 67.2287 49.1503 67.219C48.9845 67.219 48.5911 67.1767 48.4122 60.9406C48.4114 60.9185 48.4149 60.8965 48.4226 60.8759C48.4304 60.8552 48.4422 60.8363 48.4573 60.8202C48.4725 60.8042 48.4906 60.7913 48.5108 60.7824C48.531 60.7735 48.5527 60.7687 48.5748 60.7682C48.6189 60.7682 48.6613 60.785 48.6933 60.8152C48.7254 60.8455 48.7446 60.8868 48.7471 60.9308C48.8252 63.5969 49.0267 66.5102 49.2348 66.8938C49.3844 66.9231 49.7355 67.0402 50.5679 67.3133C52.4114 67.9213 58.0298 69.7746 58.5305 69.1535C58.6693 68.9397 58.757 68.6969 58.7869 68.4437C58.8168 68.1906 58.788 67.9339 58.7028 67.6937C58.6133 67.3566 58.4431 67.0463 58.2069 66.7897C57.9707 66.5331 57.6756 66.3379 57.347 66.2208C55.2369 65.4827 53.699 63.5189 53.6372 63.4344C53.6142 63.4083 53.6015 63.3748 53.6014 63.3401L53.4064 59.3767C53.4046 59.3323 53.4203 59.2891 53.4501 59.2563C53.4799 59.2234 53.5214 59.2036 53.5657 59.2011C53.5881 59.1977 53.611 59.1993 53.6328 59.2059C53.6545 59.2124 53.6745 59.2237 53.6913 59.239C53.7082 59.2542 53.7214 59.2731 53.73 59.2941C53.7386 59.3151 53.7425 59.3377 53.7412 59.3604L53.9331 63.262C54.1639 63.5449 55.6043 65.2454 57.4608 65.8957C57.8397 66.031 58.1802 66.256 58.4531 66.5516C58.726 66.8472 58.9233 67.2044 59.028 67.5929C59.1275 67.885 59.1579 68.1961 59.1167 68.5019C59.0755 68.8077 58.9639 69.0998 58.7906 69.3551C58.6808 69.4482 58.5523 69.5167 58.4138 69.556C58.2752 69.5952 58.1299 69.6044 57.9875 69.5827Z" fill="#231F20"/>
<path d="M28.4555 60.9243C28.4555 60.9243 25.0936 61.3698 23.7573 62.0395C23.7573 62.0395 24.1377 65.1869 20.3206 67.0954C20.3206 67.0954 19.0818 68.2432 19.6703 69.3876C20.2588 70.5321 25.5943 69.1471 27.2558 68.2432C28.2424 67.7116 29.1569 67.056 29.9772 66.2923L28.4555 60.9243Z" fill="white"/>
<path d="M20.9949 69.9989C20.6799 70.0072 20.3654 69.9689 20.0617 69.8851C19.9458 69.8577 19.8367 69.807 19.7411 69.736C19.6455 69.665 19.5654 69.5752 19.5057 69.4722C18.8815 68.2269 20.156 67.0336 20.208 66.9816L20.247 66.9556C23.9081 65.1251 23.596 62.0981 23.5927 62.0785C23.5877 62.0439 23.5939 62.0086 23.6102 61.9776C23.6266 61.9466 23.6523 61.9217 23.6837 61.9062C25.0298 61.2332 28.2942 60.7943 28.434 60.778C28.4739 60.7719 28.5146 60.7808 28.5482 60.8031C28.5819 60.8253 28.6061 60.8592 28.6161 60.8983L30.1247 66.2598C30.1331 66.2885 30.1333 66.3189 30.1253 66.3476C30.1172 66.3764 30.1013 66.4023 30.0792 66.4224C29.251 67.2023 28.324 67.8702 27.322 68.409C26.1093 69.0495 22.9067 69.9989 20.9949 69.9989ZM20.4194 67.245C20.2828 67.3783 19.3301 68.37 19.8048 69.3226C19.8457 69.3843 19.8983 69.4372 19.9597 69.4785C20.0211 69.5198 20.09 69.5486 20.1625 69.5632C21.6029 70.0184 25.7939 68.8479 27.1627 68.1033C28.1013 67.5902 28.9747 66.9658 29.7638 66.2436L28.3235 61.1194C27.6732 61.2104 25.1143 61.6038 23.9243 62.1501C23.9403 62.7541 23.8364 63.3552 23.6187 63.9188C23.2708 64.8715 22.4255 66.2241 20.4194 67.2352V67.245Z" fill="#231F20"/>
<path d="M27.1431 37.2998C27.1431 37.2998 18.9854 40.7365 17.545 45.4282C16.1762 49.8859 22.9879 63.3108 22.9879 63.3108L28.8728 62.3354C28.8728 62.3354 25.7645 48.904 26.0279 48.2147C26.2912 47.5254 32.3616 45.7794 35.9153 46.0525C39.4691 46.3256 46.0239 47.4961 46.0239 47.4961L48.0982 62.5923L54.9001 61.6169C54.9001 61.6169 54.0515 44.313 51.6162 40.7625C49.1809 37.212 43.4878 36.8186 43.4878 36.8186L27.1431 37.2998Z" fill="#231F20"/>
<path d="M22.9876 63.4961C22.9572 63.4958 22.9275 63.4871 22.9017 63.4711C22.8759 63.455 22.855 63.4322 22.8413 63.4051C22.5649 62.8556 16.0134 49.8631 17.3887 45.3957C17.9968 43.4124 19.8175 41.4225 22.7958 39.4814C24.1603 38.595 25.5933 37.8188 27.0811 37.16C27.1003 37.1554 27.1204 37.1554 27.1396 37.16L43.4745 36.682C43.7281 36.682 49.3108 37.1144 51.7493 40.6942C54.1878 44.274 55.0267 60.895 55.0624 61.5973C55.0636 61.6373 55.05 61.6763 55.0242 61.7069C54.9984 61.7375 54.9623 61.7575 54.9226 61.7631L48.1208 62.7548C48.0997 62.7585 48.0782 62.7578 48.0575 62.7529C48.0367 62.7479 48.0172 62.7387 48.0002 62.7259C47.9831 62.7131 47.9688 62.697 47.9583 62.6785C47.9477 62.6599 47.941 62.6394 47.9387 62.6182L45.8806 47.6391C44.9864 47.4798 39.1502 46.4654 35.9053 46.215C32.3288 45.9419 26.3983 47.7237 26.1772 48.2797C26.0146 48.8454 27.8029 56.9901 29.0319 62.3256C29.0407 62.3692 29.0325 62.4146 29.0092 62.4524C28.9963 62.4707 28.9799 62.4861 28.9609 62.4978C28.9419 62.5096 28.9207 62.5173 28.8986 62.5207L23.0136 63.4961H22.9876ZM27.1786 37.4851C26.6617 37.7094 19.0502 41.0616 17.6976 45.503C16.4296 49.642 22.4446 61.8964 23.0787 63.1677L28.6905 62.2281C28.089 59.627 25.618 48.8389 25.8878 48.1594C26.213 47.327 32.5076 45.6298 35.9411 45.8834C39.4623 46.1533 46.0009 47.3173 46.0659 47.3303C46.0997 47.3361 46.1307 47.3524 46.1547 47.3769C46.1786 47.4015 46.1942 47.4329 46.1992 47.4668L48.2508 62.4004L54.7536 61.4542C54.6593 59.7668 53.7521 44.1472 51.5022 40.8438C49.1547 37.3973 43.5493 36.9746 43.494 36.9714L27.1786 37.4851Z" fill="#231F20"/>
<path d="M40.6097 15.083C40.6097 15.083 25.2307 14.7189 22.428 17.5898C19.6253 20.4608 18.3963 30.0979 18.3963 30.0979L24.7332 31.9317L26.0338 27.1586L27.1263 37.2997L43.4807 36.8347L42.593 26.6969L48.5658 24.8046C48.5658 24.8046 45.5973 16.4323 40.6097 15.083Z" fill="#FF914B"/>
<path d="M38.6198 9.48096C38.6198 9.48096 40.3593 6.00523 39.6993 5.0981C39.0393 4.19096 38.5906 4.51935 38.5873 4.5226C39.2896 4.01539 38.454 2.9717 38.0021 2.6173C37.6464 2.35737 37.2512 2.15646 36.8316 2.0223C35.8055 1.61308 34.7139 1.39277 33.6095 1.37202C32.5002 1.35725 31.4181 1.71566 30.5369 2.3897C29.1876 3.48216 28.7552 4.864 28.9112 6.55146C29.0153 7.75773 29.3827 8.96074 29.4542 10.1442C30.8361 10.284 32.2309 10.4694 33.6322 10.4889C34.7312 10.5214 37.9728 10.7685 38.6198 9.48096Z" fill="white"/>
<path d="M35.1019 10.7002C34.6857 10.7002 34.2955 10.7002 33.9704 10.6742H33.616C32.4747 10.645 31.34 10.5279 30.2215 10.4109L29.4249 10.3296C29.3849 10.3251 29.3476 10.3067 29.3197 10.2776C29.2918 10.2485 29.2749 10.2105 29.2721 10.1703C29.2208 9.54731 29.1296 8.92828 28.999 8.31699C28.8804 7.74321 28.7914 7.16369 28.7324 6.58075C28.5731 4.71446 29.1128 3.32938 30.4296 2.27593C31.3407 1.57664 32.4611 1.20544 33.6095 1.22249C34.7321 1.24129 35.8421 1.46154 36.8869 1.87276C37.3268 2.01148 37.7425 2.21769 38.1191 2.48402C38.48 2.76689 39.049 3.43667 39.0393 4.02517C39.0377 4.12472 39.0167 4.22301 38.9775 4.31454C39.3424 4.42828 39.6527 4.67253 39.8489 5.00058C40.5284 5.93373 39.0783 8.95751 38.7824 9.55251C38.2784 10.5377 36.539 10.7002 35.1019 10.7002ZM29.5973 9.99795L30.2475 10.0662C31.3498 10.1833 32.491 10.3003 33.616 10.3263H33.9736C35.1571 10.3686 37.924 10.4661 38.4638 9.39319C39.1401 8.02762 39.9919 5.78417 39.5562 5.18591C39.1206 4.58766 38.7922 4.57465 38.6751 4.64618C38.6383 4.67006 38.5936 4.67867 38.5505 4.67017C38.5074 4.66167 38.4693 4.63675 38.4443 4.60067C38.4318 4.58319 38.4229 4.56342 38.4181 4.54249C38.4133 4.52157 38.4127 4.4999 38.4163 4.47874C38.42 4.45758 38.4278 4.43734 38.4392 4.41921C38.4507 4.40107 38.4657 4.38539 38.4833 4.37307C38.5445 4.33333 38.5947 4.27886 38.6293 4.21467C38.664 4.15048 38.682 4.07861 38.6816 4.00566C38.6816 3.56998 38.2167 2.99123 37.8915 2.73437C37.5493 2.48586 37.1695 2.29376 36.7666 2.16538C35.7611 1.76191 34.6896 1.54805 33.6062 1.53462C32.5342 1.51675 31.4874 1.86035 30.6345 2.51003C29.4119 3.5017 28.9112 4.78599 29.0608 6.52873C29.1195 7.09861 29.2074 7.6651 29.3242 8.22595C29.4464 8.81139 29.5376 9.40288 29.5973 9.99795Z" fill="#231F20"/>
<path d="M37.0586 9.96552C37.4097 8.47314 39.9458 8.28456 39.6922 10.0566C39.6286 10.6746 39.3488 11.2504 38.9021 11.6822C38.6755 11.8921 38.3915 12.0298 38.0864 12.0778C37.7813 12.1259 37.4688 12.0821 37.1886 11.9521" fill="white"/>
<path d="M37.8109 12.2674C37.5674 12.2698 37.3272 12.2117 37.1118 12.0984C37.0728 12.077 37.0437 12.0412 37.031 11.9986C37.0182 11.956 37.0227 11.91 37.0435 11.8708C37.0534 11.8508 37.0673 11.8331 37.0843 11.8187C37.1014 11.8043 37.1212 11.7936 37.1425 11.7872C37.1639 11.7808 37.1863 11.7788 37.2084 11.7815C37.2305 11.7841 37.2519 11.7912 37.2711 11.8025C37.521 11.9139 37.798 11.9495 38.0679 11.905C38.3378 11.8605 38.5887 11.7378 38.7895 11.5521C39.2069 11.1475 39.4682 10.6087 39.5276 10.0305C39.6089 9.45498 39.3683 9.05506 38.8773 8.97378C38.5273 8.91774 38.1688 8.99159 37.8694 9.18141C37.57 9.37124 37.3503 9.66395 37.2516 10.0045C37.2413 10.0476 37.2142 10.0848 37.1764 10.108C37.1386 10.1312 37.0932 10.1384 37.05 10.128C37.0069 10.1177 36.9697 10.0906 36.9465 10.0528C36.9233 10.015 36.9161 9.96955 36.9265 9.92643C37.0431 9.49778 37.3161 9.12842 37.6917 8.89125C38.0673 8.65409 38.5182 8.56636 38.9554 8.64539C39.4918 8.74618 40.0186 9.17536 39.8885 10.0792C39.818 10.7361 39.5187 11.3472 39.0431 11.8057C38.703 12.1057 38.2644 12.2701 37.8109 12.2674Z" fill="#231F20"/>
<path d="M30.8065 9.52321C30.6765 7.99506 28.2054 7.43583 28.2054 9.22734C28.1796 9.84805 28.373 10.4581 28.7516 10.9506C28.9452 11.1901 29.2054 11.367 29.4993 11.459C29.7932 11.551 30.1077 11.5539 30.4033 11.4675" fill="white"/>
<path d="M29.9609 11.6919C29.7021 11.6863 29.4475 11.6254 29.2143 11.5132C28.981 11.4011 28.7744 11.2403 28.6084 11.0417C28.2015 10.5155 27.9932 9.86272 28.0199 9.19814C28.0199 8.2845 28.6084 7.9366 29.1546 7.89759C29.601 7.8885 30.0346 8.04707 30.3699 8.342C30.7052 8.63694 30.9177 9.04681 30.9656 9.49076C30.9746 9.51512 30.9778 9.54121 30.9751 9.56703C30.9724 9.59285 30.9638 9.61769 30.9499 9.63964C30.936 9.66158 30.9173 9.68003 30.8951 9.69357C30.873 9.7071 30.848 9.71535 30.8221 9.71768C30.7963 9.72001 30.7702 9.71635 30.746 9.70699C30.7218 9.69763 30.7001 9.68282 30.6825 9.6637C30.6649 9.64459 30.652 9.62169 30.6447 9.59677C30.6374 9.57185 30.636 9.54559 30.6405 9.52002C30.5919 9.16619 30.4151 8.84254 30.1435 8.61056C29.872 8.37858 29.5247 8.25444 29.1676 8.26174C28.6539 8.2845 28.358 8.62915 28.3547 9.21114C28.3289 9.79562 28.5084 10.3707 28.862 10.8368C29.0337 11.0508 29.2648 11.2093 29.5262 11.2925C29.7876 11.3758 30.0677 11.3802 30.3316 11.305C30.3747 11.2899 30.422 11.2926 30.4632 11.3124C30.5044 11.3322 30.536 11.3676 30.5511 11.4107C30.5661 11.4538 30.5635 11.5012 30.5437 11.5423C30.5239 11.5835 30.4885 11.6151 30.4454 11.6302C30.2886 11.6781 30.1247 11.699 29.9609 11.6919Z" fill="#231F20"/>
<path d="M30.4746 17.073C30.7005 17.5624 31.0591 17.9788 31.5097 18.2748C31.9603 18.5707 32.4848 18.7345 33.0237 18.7475C33.5745 18.8027 34.1303 18.7143 34.6368 18.4909C35.1433 18.2676 35.5834 17.9168 35.9142 17.4729V16.4097V13.9387V11.6302L31.3947 11.3051L31.1086 13.1713L31.0176 13.7761L30.4746 17.073Z" fill="white"/>
<path d="M33.3112 18.9262C33.2136 18.9262 33.1161 18.9262 33.012 18.9262C30.9474 18.7766 30.3427 17.2127 30.3166 17.1444C30.3085 17.1168 30.3085 17.0875 30.3166 17.0599L31.201 11.2854C31.2067 11.2434 31.2286 11.2053 31.262 11.1792C31.2954 11.153 31.3377 11.141 31.3798 11.1456L35.8993 11.4708C35.9415 11.4733 35.9812 11.4918 36.0103 11.5226C36.0393 11.5535 36.0554 11.5942 36.0553 11.6366L36.0911 17.4891C36.0909 17.5212 36.0819 17.5527 36.0651 17.5801C35.7478 18.0091 35.332 18.3554 34.8526 18.5897C34.3733 18.8239 33.8445 18.9394 33.3112 18.9262ZM30.6418 17.0534C30.861 17.503 31.2001 17.8834 31.6218 18.1525C32.0435 18.4216 32.5314 18.5689 33.0315 18.5783C33.5448 18.6331 34.0635 18.5555 34.5382 18.3529C35.0129 18.1502 35.4278 17.8293 35.7432 17.4208L35.7139 11.7992L31.5034 11.474L30.6418 17.0534Z" fill="#231F20"/>
<path d="M30.9824 13.7696C31.3198 14.3487 31.7972 14.8338 32.3707 15.1806C33.3038 15.7919 34.7149 16.504 35.9082 16.4097V13.9386C35.0374 13.9828 34.1644 13.925 33.3071 13.7663C32.5426 13.6802 31.7959 13.4774 31.0929 13.1648L30.9824 13.7696Z" fill="#231F20"/>
<path d="M35.69 16.582C34.4122 16.582 33.0238 15.8017 32.2825 15.3172C31.6852 14.9568 31.1887 14.4512 30.8389 13.8476C30.8223 13.8168 30.8166 13.7813 30.8227 13.7468L30.9104 13.1421C30.9149 13.1166 30.9252 13.0926 30.9404 13.0717C30.9556 13.0509 30.9754 13.0338 30.9982 13.0218C31.021 13.0106 31.046 13.0048 31.0714 13.0048C31.0967 13.0048 31.1218 13.0106 31.1445 13.0218C31.8334 13.3262 32.5647 13.5235 33.3132 13.607C34.1608 13.7645 35.024 13.8224 35.885 13.7793C35.907 13.7771 35.9291 13.7797 35.9499 13.787C35.9707 13.7943 35.9896 13.8061 36.0053 13.8216C36.0218 13.8363 36.035 13.8544 36.0439 13.8745C36.0529 13.8947 36.0575 13.9166 36.0574 13.9387V16.4097C36.0575 16.4507 36.0422 16.4902 36.0144 16.5203C35.9867 16.5504 35.9486 16.569 35.9078 16.5723C35.8428 16.5788 35.768 16.582 35.69 16.582ZM31.138 13.7403C31.4617 14.2713 31.9076 14.7172 32.4386 15.0409C33.0173 15.418 34.4544 16.2699 35.7225 16.2504V14.1045C34.8934 14.1331 34.0637 14.0709 33.2482 13.9191C32.5418 13.8336 31.8492 13.6588 31.1868 13.3989L31.138 13.7403Z" fill="#231F20"/>
<path d="M33.2776 14.3287L33.6807 14.358C34.1357 14.3917 34.5929 14.3354 35.0261 14.1923C35.4593 14.0492 35.86 13.8222 36.2055 13.5242C36.5509 13.2261 36.8342 12.863 37.0392 12.4554C37.2443 12.0478 37.3669 11.6039 37.4003 11.1489L37.7937 5.66705L33.736 6.36284L30.4651 5.12732L30.0619 10.6124C30.0287 11.0676 30.0856 11.5249 30.2293 11.9582C30.3729 12.3914 30.6006 12.7921 30.8993 13.1372C31.1979 13.4824 31.5617 13.7653 31.9698 13.9697C32.3779 14.1742 32.8223 14.2962 33.2776 14.3287Z" fill="white"/>
<path d="M33.9419 14.537C33.8508 14.537 33.7598 14.537 33.6688 14.537L33.2656 14.5077C32.3021 14.4362 31.4064 13.985 30.7754 13.2534C30.1444 12.5218 29.8297 11.5696 29.9004 10.6061L30.3166 5.11774C30.3185 5.09155 30.3264 5.06617 30.3398 5.04359C30.3532 5.02101 30.3717 5.00187 30.3938 4.98767C30.4159 4.97347 30.441 4.96461 30.4671 4.96179C30.4932 4.95897 30.5196 4.96227 30.5442 4.97143L33.7728 6.1907L37.7883 5.5014C37.8131 5.4975 37.8385 5.49919 37.8626 5.50635C37.8867 5.5135 37.9089 5.52594 37.9276 5.54276C37.9463 5.55958 37.961 5.58035 37.9706 5.60357C37.9803 5.62679 37.9846 5.65187 37.9833 5.67698L37.5672 11.149C37.5007 12.0654 37.0899 12.9226 36.4175 13.5487C35.745 14.1747 34.8606 14.5231 33.9419 14.524V14.537ZM33.2916 14.1631L33.6948 14.1923C34.5674 14.2577 35.4303 13.9739 36.0937 13.4032C36.7571 12.8325 37.1666 12.0217 37.2323 11.149L37.6192 5.87856L33.7696 6.52884C33.7406 6.53508 33.7107 6.53508 33.6818 6.52884L30.6222 5.3746L30.2353 10.6353C30.1726 11.5095 30.4592 12.3728 31.0321 13.0359C31.6051 13.6991 32.4176 14.1079 33.2916 14.1728V14.1631Z" fill="#231F20"/>
<path d="M33.9734 11.6041C33.683 11.604 33.3934 11.5757 33.1085 11.5196C33.0869 11.5157 33.0664 11.5075 33.0481 11.4955C33.0298 11.4835 33.0141 11.4679 33.0019 11.4497C32.9898 11.4315 32.9814 11.411 32.9774 11.3895C32.9734 11.368 32.9737 11.3459 32.9784 11.3245C32.9823 11.3028 32.9905 11.2822 33.0025 11.2637C33.0144 11.2453 33.0299 11.2294 33.0481 11.217C33.0662 11.2046 33.0867 11.1959 33.1082 11.1915C33.1297 11.187 33.1519 11.1869 33.1735 11.1912C33.4951 11.2505 33.8222 11.2745 34.1489 11.2627C34.253 11.1196 34.0676 10.0109 33.7198 8.85668C33.7133 8.83533 33.7112 8.81293 33.7135 8.79076C33.7157 8.76858 33.7223 8.74707 33.7329 8.72744C33.7434 8.70782 33.7578 8.69047 33.775 8.67638C33.7923 8.66229 33.8122 8.65175 33.8336 8.64534C33.8549 8.63894 33.8773 8.6368 33.8995 8.63905C33.9217 8.64131 33.9432 8.6479 33.9628 8.65847C33.9824 8.66904 33.9998 8.68337 34.0139 8.70064C34.0279 8.71791 34.0385 8.73779 34.0449 8.75914C34.2042 9.28586 34.6952 11.0351 34.4025 11.4675C34.377 11.5058 34.3428 11.5376 34.3027 11.5602C34.2626 11.5828 34.2177 11.5956 34.1717 11.5976L33.9734 11.6041Z" fill="#231F20"/>
<path d="M35.6226 8.24605C35.6464 7.92191 35.5583 7.65125 35.4258 7.64151C35.2932 7.63178 35.1665 7.88667 35.1427 8.21081C35.1189 8.53496 35.207 8.80562 35.3396 8.81535C35.4721 8.82508 35.5988 8.5702 35.6226 8.24605Z" fill="#231F20"/>
<path d="M32.5504 7.87252C32.5742 7.54837 32.486 7.27771 32.3535 7.26798C32.221 7.25825 32.0942 7.51313 32.0704 7.83728C32.0466 8.16142 32.1348 8.43208 32.2673 8.44182C32.3998 8.45155 32.5266 8.19667 32.5504 7.87252Z" fill="#231F20"/>
<path d="M34.8263 13.3892C34.7971 13.3892 34.7683 13.3814 34.7432 13.3666C34.718 13.3517 34.6973 13.3303 34.6832 13.3046C33.8834 11.926 31.6172 12.3292 31.5944 12.3292C31.5526 12.3344 31.5104 12.3235 31.4764 12.2987C31.4423 12.2738 31.419 12.237 31.4111 12.1956C31.4033 12.1542 31.4114 12.1114 31.434 12.0758C31.4566 12.0402 31.4919 12.0146 31.5327 12.0041C31.6367 11.9846 34.0557 11.5651 34.9726 13.1453C34.995 13.1841 35.0011 13.2302 34.9895 13.2735C34.9779 13.3168 34.9496 13.3537 34.9108 13.3762C34.8844 13.3883 34.8551 13.3928 34.8263 13.3892Z" fill="#231F20"/>
<path d="M48.4683 25.455C48.4683 25.455 49.2876 21.7647 46.2118 20.9421C43.136 20.1195 33.8566 20.5681 33.8566 20.5681C33.8566 20.5681 29.0543 18.445 28.365 19.144C27.6757 19.8431 26.9311 21.42 27.0644 22.2361C27.1978 23.0522 28.43 23.7415 28.43 23.3318C28.43 22.9221 28.3617 22.2361 28.3617 22.2361C28.3617 22.2361 30.2085 23.6732 31.9155 23.127C31.9155 23.127 44.0139 27.8447 46.2703 27.4318C48.5268 27.0189 48.4683 25.455 48.4683 25.455Z" fill="white"/>
<path d="M45.9619 27.6238C43.1105 27.6238 32.8719 23.6733 31.9192 23.3059C30.5634 23.7058 29.1718 22.9808 28.5703 22.5776C28.5898 22.8085 28.6093 23.1076 28.6093 23.3319C28.6111 23.3688 28.6054 23.4056 28.5927 23.4402C28.58 23.4748 28.5605 23.5065 28.5354 23.5335C28.5102 23.5605 28.4799 23.5821 28.4463 23.5972C28.4126 23.6123 28.3763 23.6205 28.3395 23.6213C27.9038 23.6538 27.0389 22.971 26.9089 22.2622C26.7625 21.3844 27.5234 19.7749 28.2517 19.0109C28.98 18.2468 32.9759 19.9863 33.8733 20.3797C34.6244 20.3439 43.26 19.9635 46.2545 20.7601C49.3336 21.5827 48.6931 25.1592 48.6345 25.4518C48.6345 25.6664 48.524 27.1783 46.3098 27.5815C46.1955 27.6067 46.079 27.6208 45.9619 27.6238ZM31.942 22.958C31.9624 22.9546 31.9833 22.9546 32.0038 22.958C32.1241 23.0036 44.0859 27.653 46.2675 27.2564C48.3419 26.8792 48.3192 25.5039 48.3159 25.4453C48.3127 25.3868 48.3159 25.4161 48.3159 25.4031C48.4351 24.7786 48.4428 24.1379 48.3387 23.5108C48.1111 22.2102 47.386 21.4104 46.183 21.0885C43.1657 20.2854 33.9546 20.7146 33.8635 20.7178C33.8379 20.724 33.8112 20.724 33.7855 20.7178C31.8347 19.8562 28.9084 18.8353 28.5053 19.2612C27.855 19.9343 27.1267 21.4591 27.2535 22.207C27.355 22.5836 27.5955 22.9078 27.9265 23.1141C28.0329 23.1943 28.1547 23.2518 28.2842 23.2832C28.2842 22.88 28.2192 22.259 28.2192 22.2525C28.2157 22.2201 28.2219 22.1874 28.2369 22.1585C28.252 22.1295 28.2752 22.1057 28.3037 22.0899C28.3314 22.0723 28.3635 22.0629 28.3964 22.0629C28.4292 22.0629 28.4613 22.0723 28.489 22.0899C28.489 22.0899 30.287 23.4652 31.89 22.9548C31.9073 22.9523 31.925 22.9534 31.942 22.958Z" fill="#231F20"/>
<path d="M32.916 21.1795V22.1841L35.3611 22.7239C35.3611 22.7239 37.0648 20.9746 37.4972 20.695L37.3216 19.7716L32.916 21.1795Z" fill="#231F20"/>
<path d="M35.3752 22.8864H35.3395L32.8944 22.3467C32.858 22.3391 32.8254 22.319 32.8022 22.2899C32.7791 22.2608 32.7668 22.2246 32.7676 22.1874V21.1827C32.7677 21.1485 32.7783 21.1151 32.7981 21.0871C32.8179 21.0592 32.8459 21.038 32.8782 21.0266L37.287 19.622C37.3079 19.6124 37.3307 19.6074 37.3537 19.6074C37.3767 19.6074 37.3994 19.6124 37.4203 19.622C37.4588 19.6476 37.4857 19.6873 37.4951 19.7326L37.6707 20.656C37.6761 20.6876 37.6722 20.72 37.6595 20.7495C37.6468 20.7789 37.6258 20.804 37.5992 20.8218C36.8624 21.4533 36.1591 22.1229 35.4923 22.8279C35.4777 22.8451 35.4599 22.8591 35.4398 22.8692C35.4196 22.8793 35.3977 22.8851 35.3752 22.8864ZM33.0993 22.0541L35.3329 22.5483C35.6288 22.2459 36.8578 20.9974 37.3423 20.6235L37.222 19.9732L33.0993 21.2737V22.0541Z" fill="#231F20"/>
<path d="M32.916 21.1795C32.916 21.1795 33.8427 19.6806 34.8994 19.2644L37.3216 19.7716C37.3216 19.7716 35.7512 20.8056 35.231 21.7029L32.916 21.1795Z" fill="white"/>
<path d="M35.2449 21.8786H35.2091L32.8909 21.3551C32.8649 21.3497 32.8407 21.3379 32.8203 21.3209C32.7998 21.3039 32.7839 21.2822 32.7739 21.2576C32.7619 21.2339 32.7556 21.2078 32.7556 21.1812C32.7556 21.1547 32.7619 21.1285 32.7739 21.1048C32.8129 21.0398 33.7493 19.5539 34.8417 19.1215C34.8726 19.1133 34.9051 19.1133 34.936 19.1215L37.3713 19.6027C37.4038 19.6093 37.4336 19.6256 37.4568 19.6493C37.48 19.6731 37.4955 19.7033 37.5014 19.736C37.5076 19.7684 37.5037 19.802 37.4903 19.8322C37.477 19.8624 37.4547 19.8878 37.4266 19.905C37.4266 19.905 35.8822 20.926 35.3912 21.7778C35.3792 21.807 35.359 21.8321 35.3331 21.85C35.3071 21.8679 35.2764 21.8778 35.2449 21.8786ZM33.203 21.0788L35.1539 21.521C35.6463 20.8797 36.2379 20.321 36.9064 19.866L34.9165 19.4498C34.1752 19.762 33.4859 20.6659 33.203 21.069V21.0788Z" fill="#231F20"/>
<path d="M33.5681 22.0638C33.3556 22.3377 33.2005 22.6516 33.1122 22.9869C33.024 23.3221 33.0043 23.6717 33.0544 24.0147L34.5793 24.3983C34.5244 23.6979 34.6771 22.9967 35.0182 22.3825L33.5681 22.0638Z" fill="#231F20"/>
<path d="M34.5691 24.5577H34.5431L33.0052 24.1545C32.9723 24.1465 32.9427 24.1284 32.9205 24.1028C32.8984 24.0771 32.8848 24.0452 32.8817 24.0115C32.8285 23.6463 32.8508 23.2742 32.9469 22.918C33.0431 22.5618 33.2112 22.2291 33.4409 21.9403C33.4591 21.9194 33.4826 21.9038 33.5089 21.8952C33.5353 21.8866 33.5635 21.8854 33.5905 21.8916L35.0438 22.2167C35.0695 22.2221 35.0933 22.2339 35.1132 22.2509C35.1331 22.268 35.1484 22.2897 35.1576 22.3142C35.1696 22.3374 35.1759 22.363 35.1759 22.389C35.1759 22.415 35.1696 22.4407 35.1576 22.4638C34.8347 23.0465 34.691 23.7116 34.7447 24.3756C34.7464 24.4016 34.7424 24.4276 34.7328 24.4517C34.7232 24.4759 34.7084 24.4977 34.6894 24.5154C34.6564 24.5447 34.6132 24.5598 34.5691 24.5577ZM33.1971 23.8814L34.3968 24.187C34.3815 23.6007 34.5052 23.0192 34.7577 22.4898L33.6197 22.2427C33.2966 22.725 33.1475 23.303 33.1971 23.8814Z" fill="#231F20"/>
<path d="M35.0405 20.6462C35.0012 20.6466 34.9631 20.6327 34.9332 20.6072C34.9091 20.5856 34.8918 20.5576 34.8831 20.5265C34.8745 20.4954 34.8749 20.4625 34.8844 20.4316L35.0925 19.7813C35.107 19.7418 35.1363 19.7095 35.1742 19.6912C35.212 19.6729 35.2555 19.6699 35.2955 19.6829C35.3355 19.696 35.3689 19.724 35.3886 19.7612C35.4083 19.7983 35.4129 19.8417 35.4014 19.8821L35.3136 20.1552L35.9639 19.8301C35.9828 19.8207 36.0035 19.8152 36.0246 19.8139C36.0457 19.8126 36.0669 19.8155 36.0868 19.8225C36.1068 19.8295 36.1252 19.8403 36.1409 19.8545C36.1567 19.8686 36.1694 19.8857 36.1785 19.9049C36.1879 19.9241 36.1934 19.945 36.1948 19.9663C36.1961 19.9877 36.1932 20.0091 36.1863 20.0293C36.1794 20.0496 36.1685 20.0682 36.1543 20.0843C36.1401 20.1003 36.1229 20.1133 36.1037 20.1227L35.1283 20.6072C35.1032 20.6281 35.0728 20.6416 35.0405 20.6462Z" fill="#D1D3D4"/>
<path d="M26.3846 30.332C26.3435 30.3315 26.304 30.316 26.2734 30.2885C26.2429 30.261 26.2235 30.2233 26.2187 30.1825C26.1114 29.207 25.1685 20.8152 25.1685 20.4999C25.1666 20.4775 25.1696 20.4549 25.1772 20.4337C25.1848 20.4126 25.1969 20.3933 25.2126 20.3772C25.2284 20.3612 25.2474 20.3487 25.2684 20.3407C25.2894 20.3327 25.3119 20.3293 25.3344 20.3308C25.3789 20.3316 25.4215 20.3497 25.453 20.3812C25.4845 20.4128 25.5026 20.4553 25.5034 20.4999C25.5034 20.7632 26.261 27.5521 26.5504 30.1467C26.555 30.1906 26.5423 30.2345 26.5149 30.2691C26.4876 30.3038 26.4478 30.3263 26.4041 30.332H26.3846Z" fill="#231F20"/>
<path d="M57.0624 0.162476C51.2295 0.162476 46.502 3.70323 46.502 8.07633C46.502 10.0076 47.4253 11.7764 48.96 13.1485L46.5735 15.0278L50.3516 14.1922C52.3779 15.3952 54.6963 16.0173 57.0527 15.9902C62.8856 15.9902 67.6131 12.4462 67.6131 8.07633C67.6131 3.70648 62.8954 0.162476 57.0624 0.162476Z" fill="white"/>
<path d="M57.0609 16.1528C54.6972 16.1754 52.3714 15.5574 50.3306 14.3646L46.6175 15.1872C46.5816 15.1953 46.5439 15.1909 46.5108 15.1748C46.4776 15.1587 46.4509 15.1319 46.4351 15.0986C46.4192 15.0654 46.4151 15.0277 46.4234 14.9918C46.4318 14.9559 46.452 14.9239 46.481 14.9011L48.7081 13.1421C47.1767 11.7115 46.3379 9.9167 46.3379 8.07642C46.3379 3.62204 51.1467 0 57.0674 0C62.9882 0 67.797 3.62204 67.797 8.07642C67.797 12.5308 62.9719 16.1528 57.0609 16.1528ZM50.3598 14.0297C50.3896 14.0291 50.419 14.037 50.4444 14.0525C52.4468 15.2365 54.7348 15.8504 57.0609 15.8277C62.7931 15.8277 67.4653 12.3487 67.4653 8.07642C67.4653 3.80411 62.7996 0.325138 57.0609 0.325138C51.3223 0.325138 46.6565 3.80086 46.6565 8.07642C46.6565 9.88094 47.5116 11.6529 49.0593 13.0283C49.0769 13.0443 49.091 13.0639 49.1005 13.0858C49.11 13.1076 49.1148 13.1312 49.1146 13.1551C49.1147 13.1791 49.1092 13.2028 49.0984 13.2242C49.0877 13.2457 49.0721 13.2643 49.0528 13.2786L47.2385 14.7255L50.3241 14.0427L50.3598 14.0297Z" fill="#D1D3D4"/>
<path d="M56.3989 9.97192C56.3716 9.97234 56.3447 9.96562 56.3209 9.95241C56.2954 9.93811 56.2742 9.91735 56.2594 9.89223C56.2445 9.86711 56.2366 9.83852 56.2363 9.80935V3.43015C56.2363 3.38703 56.2535 3.34568 56.2839 3.31519C56.3144 3.28471 56.3558 3.26758 56.3989 3.26758C56.4418 3.26841 56.4826 3.28581 56.5129 3.31611C56.5432 3.34642 56.5606 3.38729 56.5615 3.43015V9.52323L61.7247 6.16456C61.7609 6.14084 61.805 6.13249 61.8474 6.14133C61.8898 6.15017 61.9269 6.17548 61.9506 6.2117C61.9743 6.24792 61.9827 6.29207 61.9738 6.33445C61.965 6.37683 61.9397 6.41396 61.9035 6.43767L56.4867 9.94591C56.4603 9.96234 56.43 9.97132 56.3989 9.97192Z" fill="#D1D3D4"/>
</svg>
