<svg width="77" height="70" viewBox="0 0 77 70" fill="none" xmlns="http://www.w3.org/2000/svg">
<path d="M76.1823 4.4686V51.3705C76.1823 52.4539 75.7519 53.4929 74.9858 54.259C74.2197 55.0251 73.1807 55.4554 72.0973 55.4554H4.46774C3.38466 55.4544 2.34624 55.0237 1.58038 54.2579C0.81453 53.492 0.383828 52.4536 0.382812 51.3705V4.4686C0.382812 3.38521 0.813186 2.34619 1.57926 1.58012C2.34533 0.814042 3.38435 0.383667 4.46774 0.383667H72.0973C73.1807 0.383667 74.2197 0.814042 74.9858 1.58012C75.7519 2.34619 76.1823 3.38521 76.1823 4.4686Z" fill="#FF9E9E"/>
<path d="M72.0981 55.8389H4.46856C3.85873 55.837 3.25565 55.7112 2.69588 55.4693C2.13611 55.2273 1.63132 54.8741 1.21213 54.4312C0.42777 53.6028 -0.00644002 52.5035 7.22064e-05 51.3627V4.46849C0.00210046 3.284 0.473537 2.1486 1.3111 1.31103C2.14867 0.473465 3.28407 0.00202825 4.46856 0H72.0981C73.2826 0.00202825 74.418 0.473465 75.2556 1.31103C76.0932 2.1486 76.5646 3.284 76.5666 4.46849V51.3704C76.5656 52.5552 76.0945 53.6912 75.2567 54.529C74.4189 55.3668 73.283 55.8379 72.0981 55.8389ZM4.46856 0.767123C3.48721 0.768139 2.54634 1.15843 1.85242 1.85235C1.1585 2.54627 0.768211 3.48714 0.767195 4.46849V51.3704C0.76414 52.3132 1.12398 53.2211 1.77213 53.9058C2.11888 54.2688 2.53551 54.5579 2.99694 54.7556C3.45837 54.9534 3.95504 55.0557 4.45706 55.0564H72.0981C73.0795 55.0554 74.0204 54.6651 74.7143 53.9712C75.4082 53.2773 75.7985 52.3364 75.7995 51.3551V4.46849C75.7985 3.48714 75.4082 2.54627 74.7143 1.85235C74.0204 1.15843 73.0795 0.768139 72.0981 0.767123H4.46856Z" fill="#093F68"/>
<path d="M52.7053 67.6103H23.8615L26.9146 55.4591H49.6521L52.7053 67.6103Z" fill="#093F68"/>
<path d="M52.7045 67.9863H23.8606C23.8011 67.9882 23.7419 67.9762 23.6878 67.9513C23.6337 67.9263 23.5861 67.8891 23.5489 67.8426C23.5117 67.796 23.4858 67.7415 23.4733 67.6832C23.4609 67.6249 23.4621 67.5646 23.4771 67.5069L26.5456 55.3556C26.5666 55.2705 26.6161 55.1952 26.6859 55.1421C26.7557 55.0891 26.8415 55.0616 26.9291 55.0641H49.6667C49.7543 55.0616 49.8401 55.0891 49.9099 55.1421C49.9797 55.1952 50.0292 55.2705 50.0502 55.3556L53.1187 67.5069C53.1336 67.5646 53.1349 67.6249 53.1225 67.6832C53.11 67.7415 53.0841 67.796 53.0469 67.8426C53.0097 67.8891 52.9621 67.9263 52.908 67.9513C52.8539 67.9762 52.7947 67.9882 52.7352 67.9863H52.7045ZM24.3554 67.2192H52.2097L49.3521 55.8313H27.213L24.3554 67.2192Z" fill="#093F68"/>
<path d="M38.2838 52.6286C39.2625 52.6286 40.0558 51.8352 40.0558 50.8565C40.0558 49.8778 39.2625 49.0845 38.2838 49.0845C37.3051 49.0845 36.5117 49.8778 36.5117 50.8565C36.5117 51.8352 37.3051 52.6286 38.2838 52.6286Z" fill="#093F68"/>
<path d="M38.2824 53.0274C37.8552 53.0282 37.4373 52.9022 37.0817 52.6653C36.726 52.4285 36.4487 52.0915 36.2846 51.697C36.1206 51.3025 36.0773 50.8682 36.1602 50.449C36.2431 50.0299 36.4484 49.6447 36.7503 49.3423C37.0521 49.04 37.4369 48.8339 37.8559 48.7503C38.2749 48.6666 38.7093 48.7092 39.1041 48.8725C39.4989 49.0358 39.8364 49.3126 40.0738 49.6678C40.3113 50.023 40.438 50.4407 40.438 50.8679C40.438 51.44 40.2111 51.9887 39.8069 52.3936C39.4028 52.7984 38.8545 53.0264 38.2824 53.0274ZM38.2824 49.4795C38.0067 49.4787 37.737 49.5598 37.5075 49.7125C37.2779 49.8652 37.0988 50.0826 36.993 50.3372C36.8871 50.5918 36.8592 50.872 36.9128 51.1425C36.9664 51.4129 37.0991 51.6613 37.2941 51.8563C37.489 52.0512 37.7375 52.1839 38.0079 52.2375C38.2784 52.2911 38.5586 52.2632 38.8132 52.1574C39.0678 52.0515 39.2852 51.8725 39.4379 51.6429C39.5906 51.4134 39.6717 51.1436 39.6709 50.8679C39.6724 50.6846 39.6376 50.5028 39.5686 50.3331C39.4995 50.1633 39.3974 50.0088 39.2683 49.8787C39.1392 49.7485 38.9857 49.6452 38.8165 49.5747C38.6472 49.5042 38.4657 49.4679 38.2824 49.4679V49.4795Z" fill="#093F68"/>
<path d="M57.5612 64.3694H19.0017C17.8811 64.3694 16.9727 65.2778 16.9727 66.3984V67.5875C16.9727 68.7081 17.8811 69.6165 19.0017 69.6165H57.5612C58.6818 69.6165 59.5902 68.7081 59.5902 67.5875V66.3984C59.5902 65.2778 58.6818 64.3694 57.5612 64.3694Z" fill="#FF9E9E"/>
<path d="M57.5657 70H19.0024C18.3632 69.9979 17.7507 69.7431 17.2987 69.2911C16.8467 68.8391 16.5919 68.2266 16.5898 67.5874V66.3983C16.5909 65.7588 16.8454 65.1457 17.2976 64.6935C17.7498 64.2412 18.3629 63.9867 19.0024 63.9857H57.5657C58.2053 63.9867 58.8184 64.2412 59.2706 64.6935C59.7228 65.1457 59.9773 65.7588 59.9783 66.3983V67.6027C59.9723 68.2393 59.7157 68.8478 59.2641 69.2965C58.8125 69.7452 58.2023 69.998 57.5657 70ZM19.0024 64.7528C18.5663 64.7539 18.1484 64.9275 17.84 65.2359C17.5317 65.5443 17.358 65.9622 17.357 66.3983V67.6027C17.358 68.0388 17.5317 68.4567 17.84 68.7651C18.1484 69.0735 18.5663 69.2472 19.0024 69.2482H57.5657C58.0018 69.2472 58.4198 69.0735 58.7281 68.7651C59.0365 68.4567 59.2102 68.0388 59.2112 67.6027V66.4137C59.2102 65.9776 59.0365 65.5596 58.7281 65.2512C58.4198 64.9429 58.0018 64.7692 57.5657 64.7682L19.0024 64.7528Z" fill="#093F68"/>
<path d="M76.1823 4.4686V46.2768H0.382812V4.4686C0.382812 3.38521 0.813186 2.34619 1.57926 1.58012C2.34533 0.814042 3.38435 0.383667 4.46774 0.383667H72.0973C73.1807 0.383667 74.2197 0.814042 74.9858 1.58012C75.7519 2.34619 76.1823 3.38521 76.1823 4.4686Z" fill="white"/>
<path d="M76.1832 46.6411H0.383752C0.282025 46.6411 0.184465 46.6007 0.112533 46.5288C0.0406013 46.4568 0.000190735 46.3593 0.000190735 46.2575V4.46849C0.00221898 3.284 0.473656 2.1486 1.31122 1.31103C2.14879 0.473465 3.28419 0.00202825 4.46868 0H72.0983C73.2828 0.00202825 74.4182 0.473465 75.2557 1.31103C76.0933 2.1486 76.5647 3.284 76.5668 4.46849V46.2767C76.5618 46.3751 76.5193 46.4678 76.4479 46.5356C76.3764 46.6035 76.2817 46.6412 76.1832 46.6411ZM0.767314 45.874H75.7996V4.46849C75.7986 3.48714 75.4083 2.54627 74.7144 1.85235C74.0205 1.15843 73.0796 0.768139 72.0983 0.767123H4.46868C3.48733 0.768139 2.54646 1.15843 1.85254 1.85235C1.15862 2.54627 0.768329 3.48714 0.767314 4.46849V45.874Z" fill="#093F68"/>
<path d="M75.4888 26.178H0.38363C0.281903 26.178 0.184343 26.1376 0.112411 26.0657C0.0404792 25.9937 6.86646e-05 25.8962 6.86646e-05 25.7945C6.86646e-05 25.6927 0.0404792 25.5952 0.112411 25.5232C0.184343 25.4513 0.281903 25.4109 0.38363 25.4109H75.4888C75.5906 25.4109 75.6881 25.4513 75.76 25.5232C75.832 25.5952 75.8724 25.6927 75.8724 25.7945C75.8724 25.8962 75.832 25.9937 75.76 26.0657C75.6881 26.1376 75.5906 26.178 75.4888 26.178Z" fill="#093F68"/>
<path d="M38.284 46.6411C38.1822 46.6411 38.0847 46.6007 38.0127 46.5288C37.9408 46.4568 37.9004 46.3593 37.9004 46.2575V0.383562C37.9004 0.281835 37.9408 0.184274 38.0127 0.112342C38.0847 0.0404106 38.1822 0 38.284 0C38.3857 0 38.4832 0.0404106 38.5552 0.112342C38.6271 0.184274 38.6675 0.281835 38.6675 0.383562V46.2575C38.6675 46.3593 38.6271 46.4568 38.5552 46.5288C38.4832 46.6007 38.3857 46.6411 38.284 46.6411Z" fill="#093F68"/>
<path d="M16.4513 3.49803C16.4513 3.49803 15.1587 3.06844 13.9313 4.57967C12.7806 5.99118 12.8458 8.03173 12.7806 9.70405C12.7153 11.3992 12.3906 13.0744 11.8179 14.6712C11.3039 16.2054 12.0518 17.8816 13.3521 18.806C14.6524 19.7304 16.3324 19.9912 17.9549 19.9567C19.3679 19.9753 20.769 19.6956 22.0666 19.1358C23.2533 18.5251 24.2625 17.6189 24.9971 16.5046C25.8447 15.3539 25.1351 14.092 25.185 12.7572C25.2732 10.4558 25.2387 7.22625 24.0343 5.12816C22.4425 2.39721 18.2579 1.14679 16.4513 3.49803Z" fill="#725858"/>
<path d="M17.7325 20.3633C15.7725 20.3633 14.2536 19.9568 13.103 19.1244C11.5917 18.0351 10.9128 16.1557 11.4498 14.5562C12.0176 12.9915 12.3397 11.3483 12.4049 9.68498V9.2017C12.4471 7.56772 12.4969 5.71129 13.6169 4.3343C14.6641 3.0417 15.7841 3.00717 16.3019 3.07622C16.7019 2.64125 17.1993 2.30738 17.7534 2.10201C18.3075 1.89664 18.9024 1.82565 19.4893 1.89485C20.4843 1.98528 21.4437 2.31059 22.2885 2.84403C23.1334 3.37747 23.8395 4.10381 24.349 4.96334C25.5994 7.15731 25.6301 10.4866 25.5419 12.7957C25.54 13.2101 25.5786 13.6238 25.6569 14.0307C25.795 14.9283 25.9408 15.8527 25.2734 16.7579C24.4993 17.9201 23.4437 18.8675 22.2049 19.5118C20.8594 20.099 19.4036 20.3906 17.9358 20.3672L17.7325 20.3633ZM16.0027 3.82416C15.6191 3.82416 14.9172 3.96992 14.2306 4.82142C13.2756 5.99896 13.2257 7.71348 13.1873 9.22471V9.71567C13.1193 11.4523 12.7829 13.1679 12.1901 14.8017C11.7605 16.0828 12.3243 17.6055 13.5671 18.5031C14.6142 19.2702 16.0449 19.6231 17.9205 19.5962C19.2784 19.6273 20.6272 19.3657 21.875 18.8291C22.8876 18.3573 23.7199 17.6094 24.6597 16.3206C25.1314 15.6724 25.0241 14.9743 24.8975 14.165C24.8129 13.7096 24.7718 13.2473 24.7747 12.7842C24.8591 10.5672 24.8361 7.38361 23.6854 5.35841C23.2344 4.61144 22.6154 3.97988 21.8777 3.51382C21.14 3.04776 20.3038 2.76004 19.4356 2.67348C18.9367 2.61289 18.4306 2.67961 17.9645 2.8674C17.4983 3.0552 17.0874 3.35795 16.7698 3.74745C16.722 3.81069 16.6557 3.85756 16.5802 3.8816C16.5046 3.90564 16.4235 3.90567 16.3479 3.8817C16.2369 3.84329 16.1202 3.82384 16.0027 3.82416Z" fill="#093F68"/>
<path d="M26.2539 20.1792C26.929 20.4899 27.5849 20.8504 28.2408 21.2071L29.5065 18.5759C29.5832 18.411 30.2545 16.5737 30.2199 15.611C30.1662 14.2263 28.7125 14.5447 28.5591 14.5562C28.1755 14.5792 27.5925 15.9639 27.5772 16.6197C27.4131 16.2824 27.2846 15.9289 27.1936 15.565C27.0632 15.0932 26.4265 15.0817 26.5454 16.1211C26.6621 16.8923 26.8495 17.6512 27.1054 18.388L26.7219 19.205L26.2539 20.1792Z" fill="#FFC9B0"/>
<path d="M28.2422 21.5753C28.1792 21.5749 28.1173 21.5591 28.0619 21.5292L27.9469 21.4679C27.3447 21.1418 26.7195 20.8005 26.0943 20.5128C26.0482 20.4914 26.0068 20.461 25.9726 20.4235C25.9384 20.386 25.9119 20.342 25.8948 20.2942C25.8753 20.2474 25.8652 20.1972 25.8652 20.1465C25.8652 20.0958 25.8753 20.0456 25.8948 19.9988L26.6888 18.3457C26.4456 17.6321 26.2684 16.8977 26.1595 16.1517C26.0597 15.3117 26.3934 14.9396 26.7386 14.8706C26.8984 14.8476 27.0613 14.8794 27.2006 14.9609C27.34 15.0425 27.4475 15.1688 27.5058 15.3194C27.7474 14.7325 28.1041 14.1687 28.5107 14.1687H28.5452C28.8087 14.1152 29.0803 14.1152 29.3438 14.1685C29.6074 14.2219 29.8575 14.3276 30.0795 14.4794C30.2444 14.6161 30.3776 14.7871 30.4697 14.9805C30.5618 15.1739 30.6105 15.3851 30.6126 15.5994C30.651 16.6695 29.9222 18.6103 29.8455 18.7446L29.3354 19.807L28.5682 21.372C28.5455 21.4192 28.5134 21.4612 28.4738 21.4955C28.4342 21.5298 28.388 21.5557 28.3381 21.5714C28.3064 21.5765 28.2742 21.5778 28.2422 21.5753ZM26.777 19.9988C27.2181 20.2136 27.6553 20.4476 28.0811 20.6777L28.6603 19.4733L29.1704 18.4109C29.2548 18.2229 29.8762 16.4931 29.8455 15.6262C29.8515 15.523 29.8354 15.4197 29.7984 15.3231C29.7613 15.2265 29.7042 15.139 29.6307 15.0662C29.3416 14.904 29.0027 14.8548 28.6795 14.9281H28.6449C28.2742 15.4238 28.0413 16.0087 27.9699 16.6235C27.9674 16.7065 27.938 16.7866 27.8862 16.8515C27.8343 16.9164 27.7628 16.9628 27.6823 16.9835C27.6019 17.0043 27.5168 16.9984 27.44 16.9666C27.3632 16.9349 27.2988 16.8791 27.2564 16.8076C27.122 16.5427 27.014 16.2652 26.9343 15.9791C26.9343 16.0059 26.9343 16.0405 26.9343 16.075C27.0459 16.8165 27.227 17.5459 27.4751 18.2536C27.4946 18.3004 27.5046 18.3506 27.5046 18.4013C27.5046 18.452 27.4946 18.5022 27.4751 18.549L26.777 19.9988Z" fill="#093F68"/>
<path d="M28.6096 17.7742C28.5154 17.7749 28.4242 17.7409 28.3535 17.6786C28.2827 17.6164 28.2374 17.5303 28.2261 17.4367C28.2233 17.3675 28.2067 17.2995 28.177 17.2369C28.1473 17.1743 28.1053 17.1183 28.0535 17.0723C27.9305 17.0016 27.7872 16.9746 27.6469 16.9956C27.5452 17.0149 27.4399 16.9931 27.3543 16.9348C27.2687 16.8765 27.2098 16.7866 27.1905 16.6849C27.1711 16.5832 27.193 16.478 27.2513 16.3924C27.3095 16.3068 27.3994 16.2478 27.5011 16.2285C27.8496 16.1668 28.2083 16.2424 28.5022 16.4394C28.6415 16.5448 28.7566 16.6788 28.8399 16.8322C28.9233 16.9857 28.9729 17.1551 28.9855 17.3293C28.9986 17.43 28.9712 17.5317 28.9094 17.6123C28.8475 17.6928 28.7563 17.7455 28.6557 17.7589L28.6096 17.7742Z" fill="#093F68"/>
<path d="M26.4321 19.0745C26.4321 19.0745 25.7302 20.9041 25.4118 21.5638C24.6025 20.7353 23.0759 18.5336 22.42 18.0197C21.7641 17.5057 20.2414 17.172 19.8003 17.172H16.8354C15.1208 17.172 13.7285 18.7062 13.7285 20.555V25.7945H22.9033V23.1824C24.0348 24.4098 24.8748 25.058 25.6995 25.058C25.9226 25.0561 26.1431 25.0092 26.3477 24.9199C26.7313 24.7588 27.6288 24.3868 29.0326 20.4936L26.4321 19.0745Z" fill="#FFBC0E"/>
<path d="M22.9022 26.1782H13.7351C13.6334 26.1782 13.5358 26.1378 13.4639 26.0658C13.392 25.9939 13.3516 25.8963 13.3516 25.7946V20.5551C13.3516 18.4801 14.9165 16.7886 16.842 16.7886H19.8069C20.317 16.7886 21.9242 17.1415 22.6644 17.7206C23.284 18.3223 23.85 18.9769 24.3559 19.6768C24.682 20.0949 25.0195 20.5245 25.311 20.8658C25.6409 20.0795 26.0781 18.948 26.0781 18.948C26.0976 18.8966 26.128 18.8499 26.1671 18.8113C26.2062 18.7726 26.2532 18.7428 26.3049 18.7238C26.3566 18.7049 26.4117 18.6973 26.4665 18.7016C26.5214 18.7059 26.5747 18.7219 26.6228 18.7486L29.2387 20.1793C29.3192 20.2233 29.3813 20.2947 29.4137 20.3805C29.446 20.4664 29.4466 20.561 29.4151 20.6472C27.9384 24.7015 26.968 25.1042 26.5001 25.2998C26.2487 25.4061 25.979 25.4621 25.7061 25.4647C24.8929 25.4647 24.1296 24.9584 23.2935 24.153V25.7946C23.2935 25.8456 23.2833 25.8961 23.2636 25.9432C23.2438 25.9902 23.2149 26.0329 23.1784 26.0686C23.142 26.1043 23.0988 26.1324 23.0514 26.1512C23.004 26.17 22.9533 26.1792 22.9022 26.1782ZM14.1187 25.411H22.5187V23.1825C22.5189 23.1057 22.5423 23.0307 22.5856 22.9673C22.629 22.9039 22.6904 22.855 22.7619 22.8269C22.8334 22.7988 22.9117 22.7928 22.9867 22.8097C23.0616 22.8266 23.1297 22.8656 23.1822 22.9217C24.3329 24.1683 25.0617 24.6746 25.6984 24.6746C25.8715 24.6733 26.0424 24.6368 26.2009 24.5672C26.5001 24.4445 27.2787 24.1184 28.5713 20.6702L26.6305 19.6116C26.4042 20.1946 25.9861 21.2417 25.7559 21.7212C25.729 21.7765 25.6892 21.8246 25.6398 21.8613C25.5904 21.898 25.5329 21.9223 25.4721 21.9321C25.4117 21.9416 25.3498 21.9364 25.2918 21.917C25.2337 21.8977 25.1811 21.8647 25.1384 21.8209C24.7548 21.4373 24.2677 20.8083 23.7461 20.1409C23.2729 19.4912 22.7497 18.8794 22.1812 18.3113C21.6288 17.8779 20.2058 17.5442 19.7992 17.5442H16.8343C15.3346 17.5442 14.111 18.8905 14.111 20.5436L14.1187 25.411Z" fill="#093F68"/>
<path d="M18.0625 16.5277H19.7617V17.5058C19.7617 17.697 19.6857 17.8805 19.5505 18.0157C19.4152 18.1509 19.2318 18.2269 19.0406 18.2269H18.7836C18.5924 18.2269 18.4089 18.1509 18.2737 18.0157C18.1385 17.8805 18.0625 17.697 18.0625 17.5058V16.5277Z" fill="#FFC9B0"/>
<path d="M19.0432 18.6103H18.7862C18.4929 18.6103 18.2115 18.4941 18.0038 18.287C17.796 18.08 17.6787 17.799 17.6777 17.5057V16.5276C17.6777 16.4259 17.7181 16.3283 17.7901 16.2564C17.862 16.1845 17.9596 16.144 18.0613 16.144H19.7643C19.866 16.144 19.9636 16.1845 20.0355 16.2564C20.1075 16.3283 20.1479 16.4259 20.1479 16.5276V17.5057C20.1469 17.7984 20.0302 18.0787 19.8232 18.2857C19.6163 18.4926 19.3359 18.6093 19.0432 18.6103ZM18.4449 16.9112V17.5057C18.4449 17.5503 18.4537 17.5945 18.4709 17.6357C18.4881 17.677 18.5133 17.7143 18.5451 17.7457C18.5768 17.7771 18.6145 17.8019 18.6559 17.8186C18.6973 17.8354 18.7416 17.8437 18.7862 17.8432H19.0432C19.1327 17.8432 19.2186 17.8077 19.2819 17.7444C19.3452 17.6811 19.3807 17.5952 19.3807 17.5057V16.9112H18.4449Z" fill="#093F68"/>
<path d="M14.0538 13.5321C14.9668 13.5321 15.7069 12.895 15.7069 12.109C15.7069 11.3231 14.9668 10.686 14.0538 10.686C13.1408 10.686 12.4006 11.3231 12.4006 12.109C12.4006 12.895 13.1408 13.5321 14.0538 13.5321Z" fill="#FFC9B0"/>
<path d="M14.0543 13.9041C12.9343 13.9041 12.0176 13.0909 12.0176 12.0975C12.0176 11.1041 12.9343 10.2871 14.0543 10.2871C15.1743 10.2871 16.091 11.1003 16.091 12.0975C16.091 13.0948 15.1781 13.9041 14.0543 13.9041ZM14.0543 11.0542C13.7484 11.0284 13.4446 11.1229 13.2074 11.3178C12.9703 11.5127 12.8186 11.7925 12.7847 12.0975C12.7847 12.669 13.3562 13.137 14.0543 13.137C14.2086 13.1682 14.3678 13.1647 14.5206 13.1269C14.6734 13.089 14.8158 13.0176 14.9376 12.918C15.0595 12.8183 15.1576 12.6929 15.225 12.5506C15.2925 12.4084 15.3274 12.253 15.3274 12.0956C15.3274 11.9382 15.2925 11.7828 15.225 11.6406C15.1576 11.4983 15.0595 11.3729 14.9376 11.2732C14.8158 11.1736 14.6734 11.1022 14.5206 11.0643C14.3678 11.0265 14.2086 11.023 14.0543 11.0542Z" fill="#093F68"/>
<path d="M23.6844 13.5321C24.5974 13.5321 25.3375 12.895 25.3375 12.109C25.3375 11.3231 24.5974 10.686 23.6844 10.686C22.7714 10.686 22.0312 11.3231 22.0312 12.109C22.0312 12.895 22.7714 13.5321 23.6844 13.5321Z" fill="#FFC9B0"/>
<path d="M23.685 13.9041C22.565 13.9041 21.6483 13.0909 21.6483 12.0975C21.6483 11.1041 22.565 10.2871 23.685 10.2871C24.805 10.2871 25.7217 11.1003 25.7217 12.0975C25.7217 13.0948 24.8088 13.9041 23.685 13.9041ZM23.685 11.0542C23.3791 11.0284 23.0753 11.1229 22.8381 11.3178C22.601 11.5127 22.4493 11.7925 22.4154 12.0975C22.4154 12.669 22.9869 13.137 23.685 13.137C23.8393 13.1682 23.9985 13.1647 24.1513 13.1269C24.3041 13.089 24.4465 13.0176 24.5683 12.918C24.6902 12.8183 24.7883 12.6929 24.8558 12.5506C24.9232 12.4084 24.9581 12.253 24.9581 12.0956C24.9581 11.9382 24.9232 11.7828 24.8558 11.6406C24.7883 11.4983 24.6902 11.3729 24.5683 11.2732C24.4465 11.1736 24.3041 11.1022 24.1513 11.0643C23.9985 11.0265 23.8393 11.023 23.685 11.0542Z" fill="#093F68"/>
<path d="M21.9442 7.88976L20.3333 5.8147C20.3333 5.8147 19.9689 7.09196 19.7464 7.88209H17.2073L16.6089 6.03333L15.9031 7.87826H13.9316V11.7676C13.9316 13.09 14.457 14.3583 15.3921 15.2934C16.3272 16.2285 17.5955 16.7539 18.9179 16.7539C20.2404 16.7539 21.5087 16.2285 22.4438 15.2934C23.3789 14.3583 23.9042 13.09 23.9042 11.7676V7.8936L21.9442 7.88976Z" fill="#FFC9B0"/>
<path d="M18.9128 17.1336C17.4887 17.1336 16.1228 16.5679 15.1158 15.5608C14.1087 14.5538 13.543 13.1879 13.543 11.7637V7.86293C13.543 7.7612 13.5834 7.66364 13.6553 7.59171C13.7272 7.51978 13.8248 7.47937 13.9265 7.47937H15.6334L16.2432 5.87992C16.2726 5.80339 16.3256 5.73827 16.3946 5.69409C16.4637 5.64992 16.545 5.62901 16.6268 5.63444C16.7064 5.63609 16.7835 5.66246 16.8474 5.70988C16.9113 5.7573 16.9589 5.82342 16.9835 5.89909L17.4975 7.4832H19.469C19.6876 6.71608 19.9753 5.6958 19.9753 5.6958C19.9975 5.63056 20.0368 5.5725 20.0892 5.52771C20.1416 5.48293 20.205 5.45308 20.2729 5.44131C20.3408 5.42954 20.4106 5.43627 20.475 5.4608C20.5394 5.48534 20.596 5.52677 20.6389 5.58074L22.1347 7.49855H23.8991C24.0009 7.49855 24.0984 7.53896 24.1704 7.61089C24.2423 7.68282 24.2827 7.78038 24.2827 7.88211V11.7561C24.2837 12.4619 24.1456 13.161 23.8761 13.8134C23.6067 14.4658 23.2114 15.0587 22.7126 15.5581C22.2139 16.0576 21.6216 16.4538 20.9696 16.7241C20.3176 16.9945 19.6187 17.1336 18.9128 17.1336ZM14.3101 8.25033V11.7676C14.3101 12.9883 14.795 14.159 15.6582 15.0222C16.5214 15.8854 17.6921 16.3703 18.9128 16.3703C20.1336 16.3703 21.3043 15.8854 22.1675 15.0222C23.0306 14.159 23.5156 12.9883 23.5156 11.7676V8.27718H21.943C21.8844 8.27703 21.8266 8.26348 21.7741 8.23755C21.7216 8.21162 21.6757 8.174 21.64 8.12759L20.4893 6.65087L20.1057 7.9895C20.0825 8.07247 20.0321 8.14521 19.9625 8.196C19.8929 8.2468 19.8082 8.27269 19.7221 8.2695H17.1791C17.0989 8.26864 17.021 8.24264 16.9563 8.19516C16.8916 8.14769 16.8434 8.08113 16.8186 8.00485L16.5539 7.18786L16.2356 8.02019C16.2078 8.09228 16.1588 8.15428 16.0952 8.19808C16.0315 8.24188 15.9561 8.26544 15.8789 8.26567H14.2909L14.3101 8.25033Z" fill="#093F68"/>
<path d="M18.8875 12.9758C18.7244 12.9744 18.5617 12.9616 18.4004 12.9375C18.2987 12.9197 18.2082 12.8622 18.1488 12.7777C18.0895 12.6931 18.0662 12.5885 18.084 12.4868C18.1018 12.385 18.1592 12.2946 18.2438 12.2352C18.3283 12.1759 18.4329 12.1525 18.5346 12.1703C18.6615 12.1898 18.7898 12.1988 18.9182 12.1972C18.8314 11.9327 18.7223 11.6761 18.5922 11.4301C18.5689 11.3853 18.5547 11.3363 18.5504 11.286C18.5461 11.2357 18.5518 11.185 18.5671 11.1369C18.5824 11.0888 18.6071 11.0442 18.6397 11.0056C18.6723 10.9671 18.7122 10.9354 18.7571 10.9123C18.8471 10.865 18.9523 10.8554 19.0494 10.8856C19.1465 10.9158 19.2276 10.9833 19.2749 11.0734C19.6585 11.8405 19.8004 12.3544 19.6585 12.6383C19.6297 12.7067 19.5852 12.7674 19.5285 12.8154C19.4719 12.8634 19.4047 12.8973 19.3324 12.9144C19.1871 12.9526 19.0377 12.9732 18.8875 12.9758Z" fill="#093F68"/>
<path d="M19.2196 14.9053C18.4087 14.866 17.6152 14.6556 16.8914 14.2878C16.8009 14.241 16.7327 14.1601 16.7017 14.063C16.6708 13.9659 16.6797 13.8605 16.7265 13.77C16.7733 13.6794 16.8541 13.6112 16.9512 13.5803C17.0483 13.5493 17.1538 13.5582 17.2443 13.605C17.8005 13.8927 19.3884 14.5026 20.0788 13.8927C20.1152 13.8535 20.1595 13.8224 20.2086 13.8013C20.2578 13.7802 20.3108 13.7697 20.3643 13.7703C20.4178 13.7709 20.4706 13.7828 20.5193 13.805C20.5679 13.8273 20.6114 13.8594 20.6469 13.8995C20.6824 13.9395 20.7091 13.9866 20.7253 14.0375C20.7415 14.0885 20.7469 14.1423 20.7411 14.1955C20.7352 14.2487 20.7184 14.3001 20.6915 14.3464C20.6647 14.3926 20.6284 14.4328 20.5851 14.4642C20.201 14.7765 19.7139 14.9339 19.2196 14.9053Z" fill="#093F68"/>
<path d="M22.9031 23.5774C22.8014 23.5774 22.7038 23.537 22.6319 23.4651C22.5599 23.3932 22.5195 23.2956 22.5195 23.1939V20.7621C22.5195 20.6604 22.5599 20.5628 22.6319 20.4909C22.7038 20.419 22.8014 20.3785 22.9031 20.3785C23.0048 20.3785 23.1024 20.419 23.1743 20.4909C23.2462 20.5628 23.2867 20.6604 23.2867 20.7621V23.1939C23.2867 23.2956 23.2462 23.3932 23.1743 23.4651C23.1024 23.537 23.0048 23.5774 22.9031 23.5774Z" fill="#093F68"/>
<path d="M15.5925 26.0591C15.4908 26.0591 15.3933 26.0187 15.3213 25.9468C15.2494 25.8748 15.209 25.7773 15.209 25.6756V20.532C15.209 20.4303 15.2494 20.3327 15.3213 20.2608C15.3933 20.1888 15.4908 20.1484 15.5925 20.1484C15.6943 20.1484 15.7918 20.1888 15.8638 20.2608C15.9357 20.3327 15.9761 20.4303 15.9761 20.532V25.6756C15.9761 25.7773 15.9357 25.8748 15.8638 25.9468C15.7918 26.0187 15.6943 26.0591 15.5925 26.0591Z" fill="#093F68"/>
<path d="M7.74458 23.5774H3.0613C2.95957 23.5774 2.86201 23.537 2.79008 23.4651C2.71814 23.3932 2.67773 23.2956 2.67773 23.1939C2.67773 23.0921 2.71814 22.9946 2.79008 22.9226C2.86201 22.8507 2.95957 22.8103 3.0613 22.8103H7.74458C7.84631 22.8103 7.94387 22.8507 8.0158 22.9226C8.08773 22.9946 8.12814 23.0921 8.12814 23.1939C8.12814 23.2956 8.08773 23.3932 8.0158 23.4651C7.94387 23.537 7.84631 23.5774 7.74458 23.5774Z" fill="#DFEAEF"/>
<path d="M7.74458 43.7489H3.0613C2.95957 43.7489 2.86201 43.7085 2.79008 43.6366C2.71814 43.5647 2.67773 43.4671 2.67773 43.3654C2.67773 43.2636 2.71814 43.1661 2.79008 43.0942C2.86201 43.0222 2.95957 42.9818 3.0613 42.9818H7.74458C7.84631 42.9818 7.94387 43.0222 8.0158 43.0942C8.08773 43.1661 8.12814 43.2636 8.12814 43.3654C8.12814 43.4671 8.08773 43.5647 8.0158 43.6366C7.94387 43.7085 7.84631 43.7489 7.74458 43.7489Z" fill="#DFEAEF"/>
<path d="M48.9224 23.5774H44.2429C44.1412 23.5774 44.0436 23.537 43.9717 23.4651C43.8998 23.3932 43.8594 23.2956 43.8594 23.1939C43.8594 23.0921 43.8998 22.9946 43.9717 22.9226C44.0436 22.8507 44.1412 22.8103 44.2429 22.8103H48.9224C49.0241 22.8103 49.1217 22.8507 49.1936 22.9226C49.2655 22.9946 49.306 23.0921 49.306 23.1939C49.306 23.2956 49.2655 23.3932 49.1936 23.4651C49.1217 23.537 49.0241 23.5774 48.9224 23.5774Z" fill="#DFEAEF"/>
<path d="M62.6549 25.7944V21.1917C62.6539 20.2056 62.2614 19.2603 61.5638 18.5633C60.8662 17.8664 59.9204 17.475 58.9343 17.475H55.3825C54.3968 17.475 53.4515 17.8666 52.7544 18.5636C52.0574 19.2606 51.6658 20.206 51.6658 21.1917V25.7944H62.6549Z" fill="#70CC40"/>
<path d="M62.6558 26.1781H51.6668C51.565 26.1781 51.4675 26.1377 51.3955 26.0658C51.3236 25.9939 51.2832 25.8963 51.2832 25.7946V21.1918C51.2842 20.1047 51.7165 19.0623 52.4853 18.2936C53.254 17.5249 54.2963 17.0926 55.3835 17.0916H58.9353C60.0228 17.0926 61.0655 17.5248 61.8348 18.2934C62.6042 19.062 63.0373 20.1043 63.0394 21.1918V25.7946C63.0394 25.8963 62.999 25.9939 62.927 26.0658C62.8551 26.1377 62.7575 26.1781 62.6558 26.1781ZM52.0503 25.411H62.2722V21.1918C62.2702 20.3078 61.9179 19.4606 61.2924 18.8358C60.6669 18.2111 59.8193 17.8597 58.9353 17.8587H55.3835C54.4998 17.8597 53.6526 18.2112 53.0277 18.8361C52.4028 19.4609 52.0513 20.3081 52.0503 21.1918V25.411Z" fill="#093F68"/>
<path d="M56.8669 2.32436C57.0975 2.28538 57.3312 2.26741 57.565 2.27066C58.639 2.27066 59.7321 2.23997 60.714 2.71943C61.7053 3.2102 62.5405 3.96692 63.1264 4.90504C63.7123 5.84316 64.0258 6.92572 64.0318 8.03176V12.4312H50.9409C50.9165 12.1565 50.9346 11.8796 50.9946 11.6104C50.9866 11.3225 50.9441 11.0366 50.868 10.7589C50.7141 10.0423 50.6268 9.31295 50.6072 8.58025C50.6147 7.4243 50.8588 6.28213 51.3245 5.22409C51.5323 4.57383 51.9159 3.99373 52.4329 3.54792C52.9968 3.16436 53.8866 3.13751 54.2894 3.69751C54.9709 2.9645 55.8784 2.48103 56.8669 2.32436Z" fill="#725858"/>
<path d="M64.0326 12.8148H51.494C50.7844 12.8148 50.5696 12.8148 50.5504 12.4849C50.512 12.266 50.5185 12.0415 50.5696 11.8252C50.5696 11.7485 50.5965 11.6679 50.6003 11.5951C50.5994 11.4046 50.5736 11.215 50.5236 11.0312C50.5236 10.966 50.4929 10.9008 50.4814 10.8356C50.3236 10.0948 50.2337 9.34121 50.2129 8.5841C50.2141 7.37928 50.4622 6.18748 50.9417 5.08218C51.1779 4.35424 51.617 3.70887 52.2074 3.22191C52.5058 3.00282 52.8632 2.87838 53.2332 2.86471C53.6031 2.85103 53.9687 2.94874 54.2825 3.1452C54.9871 2.50801 55.8634 2.09188 56.8025 1.94849C57.0559 1.90599 57.3127 1.88673 57.5696 1.89095H57.7614C58.8047 1.89095 59.8863 1.89095 60.8874 2.37807C61.9437 2.89977 62.8338 3.70547 63.4578 4.70478C64.0817 5.70409 64.415 6.85749 64.42 8.03561V12.4312C64.42 12.4819 64.41 12.5321 64.3904 12.5789C64.3709 12.6257 64.3423 12.6681 64.3063 12.7038C64.2703 12.7395 64.2276 12.7676 64.1806 12.7867C64.1336 12.8057 64.0833 12.8153 64.0326 12.8148ZM51.3099 12.0477H63.6491V8.03177C63.6482 6.99398 63.3571 5.97711 62.8088 5.096C62.2605 4.21489 61.4767 3.50465 60.546 3.04547C59.706 2.63506 58.7586 2.63506 57.7575 2.63506H57.5581C57.3476 2.63512 57.1373 2.6505 56.9291 2.68109C56.0254 2.82334 55.1951 3.26344 54.5702 3.9315C54.5314 3.97342 54.4838 4.00617 54.4308 4.02736C54.3778 4.04854 54.3207 4.05763 54.2638 4.05395C54.2068 4.05028 54.1514 4.03393 54.1015 4.00611C54.0517 3.97829 54.0087 3.9397 53.9756 3.89314C53.711 3.50958 53.0474 3.55944 52.6562 3.83561C52.1879 4.24465 51.8426 4.77585 51.6589 5.36985C51.2167 6.38 50.9857 7.4699 50.98 8.57259C50.9993 9.28208 51.0841 9.98827 51.2332 10.6822L51.2715 10.8625C51.3382 11.1126 51.3704 11.3707 51.3674 11.6296C51.3607 11.7403 51.3466 11.8505 51.3252 11.9594C51.3235 11.9888 51.3235 12.0183 51.3252 12.0477H51.3099Z" fill="#093F68"/>
<path d="M56.4491 16.7578H58.3171V17.8318C58.3171 18.0424 58.2334 18.2443 58.0845 18.3932C57.9356 18.5421 57.7337 18.6258 57.5231 18.6258H57.2393C57.0287 18.6258 56.8268 18.5421 56.6779 18.3932C56.529 18.2443 56.4453 18.0424 56.4453 17.8318V16.7578H56.4491Z" fill="#FFC9B0"/>
<path d="M57.5258 19.0093H57.242C56.93 19.0083 56.6311 18.8839 56.4105 18.6633C56.1899 18.4427 56.0655 18.1438 56.0645 17.8318V16.7578C56.0645 16.6561 56.1049 16.5585 56.1768 16.4866C56.2487 16.4147 56.3463 16.3743 56.448 16.3743H58.3198C58.4215 16.3743 58.5191 16.4147 58.591 16.4866C58.6629 16.5585 58.7034 16.6561 58.7034 16.7578V17.8318C58.7023 18.1438 58.578 18.4427 58.3573 18.6633C58.1367 18.8839 57.8378 19.0083 57.5258 19.0093ZM56.8316 17.1414V17.8318C56.8316 17.9406 56.8748 18.045 56.9518 18.122C57.0288 18.199 57.1331 18.2422 57.242 18.2422H57.5258C57.6347 18.2422 57.7391 18.199 57.816 18.122C57.893 18.045 57.9362 17.9406 57.9362 17.8318V17.1414H56.8316Z" fill="#093F68"/>
<path d="M52.0427 13.4669C53.0468 13.4669 53.8608 12.7663 53.8608 11.902C53.8608 11.0377 53.0468 10.337 52.0427 10.337C51.0386 10.337 50.2246 11.0377 50.2246 11.902C50.2246 12.7663 51.0386 13.4669 52.0427 13.4669Z" fill="#FFC9B0"/>
<path d="M52.0417 13.8505C50.8297 13.8505 49.8401 12.976 49.8401 11.902C49.8401 10.828 50.8297 9.95349 52.0417 9.95349C53.2538 9.95349 54.2395 10.828 54.2395 11.902C54.2395 12.976 53.2423 13.8505 52.0417 13.8505ZM52.0417 10.7206C51.2516 10.7206 50.6072 11.2499 50.6072 11.902C50.6072 12.554 51.2516 13.0834 52.0417 13.0834C52.8318 13.0834 53.4724 12.554 53.4724 11.902C53.4724 11.2499 52.8318 10.7206 52.0417 10.7206Z" fill="#093F68"/>
<path d="M62.6325 13.4669C63.6366 13.4669 64.4506 12.7663 64.4506 11.902C64.4506 11.0377 63.6366 10.337 62.6325 10.337C61.6284 10.337 60.8145 11.0377 60.8145 11.902C60.8145 12.7663 61.6284 13.4669 62.6325 13.4669Z" fill="#FFC9B0"/>
<path d="M62.6313 13.8505C61.4154 13.8505 60.4297 12.976 60.4297 11.902C60.4297 10.828 61.4154 9.95349 62.6313 9.95349C63.8472 9.95349 64.8291 10.828 64.8291 11.902C64.8291 12.976 63.8434 13.8505 62.6313 13.8505ZM62.6313 10.7206C61.8412 10.7206 61.1968 11.2499 61.1968 11.902C61.1968 12.554 61.8412 13.0834 62.6313 13.0834C63.4215 13.0834 64.062 12.554 64.062 11.902C64.062 11.2499 63.4215 10.7206 62.6313 10.7206Z" fill="#093F68"/>
<path d="M57.3855 17.0034C56.6659 17.0034 55.9533 16.8616 55.2885 16.5861C54.6237 16.3106 54.0198 15.9068 53.5111 15.3978C53.0024 14.8888 52.5991 14.2845 52.324 13.6195C52.049 12.9545 51.9077 12.2419 51.9082 11.5223V8.57653C51.9082 8.57653 53.2852 7.78639 53.6956 6.54749C53.6956 6.54749 55.8014 8.94091 57.8304 8.77981C59.5192 8.63583 61.199 8.40152 62.8627 8.0779V11.5299C62.8617 12.9819 62.2842 14.3741 61.2571 15.4005C60.23 16.4268 58.8375 17.0034 57.3855 17.0034Z" fill="#FFC9B0"/>
<path d="M57.3843 17.3868C55.8298 17.3848 54.3397 16.7661 53.2409 15.6666C52.1421 14.5671 51.5245 13.0766 51.5234 11.5221V8.5764C51.5232 8.50881 51.5408 8.44235 51.5744 8.38375C51.6081 8.32515 51.6567 8.27649 51.7152 8.2427C51.7152 8.2427 52.9733 7.51009 53.33 6.42845C53.3511 6.36425 53.3887 6.30675 53.4391 6.26178C53.4895 6.2168 53.551 6.18593 53.6171 6.17231C53.6833 6.15868 53.7519 6.16278 53.816 6.18419C53.8801 6.20559 53.9374 6.24354 53.9821 6.2942C53.9821 6.31722 55.9919 8.54187 57.7985 8.39612C59.4718 8.25415 61.1363 8.0224 62.7848 7.70188C62.8405 7.6909 62.898 7.69243 62.953 7.70636C63.0081 7.72029 63.0594 7.74627 63.1032 7.78242C63.1472 7.81812 63.1827 7.86311 63.2072 7.91418C63.2318 7.96524 63.2447 8.02111 63.2451 8.07776V11.5298C63.241 13.0826 62.6221 14.5706 61.5238 15.6682C60.4254 16.7658 58.9371 17.3838 57.3843 17.3868ZM52.2906 8.78736V11.5221C52.2906 12.1911 52.4223 12.8534 52.6783 13.4714C52.9343 14.0894 53.3095 14.6509 53.7825 15.1239C54.2555 15.5969 54.817 15.9721 55.435 16.2281C56.053 16.4841 56.7153 16.6158 57.3843 16.6158C58.0532 16.6158 58.7155 16.4841 59.3335 16.2281C59.9515 15.9721 60.5131 15.5969 60.986 15.1239C61.459 14.6509 61.8342 14.0894 62.0902 13.4714C62.3462 12.8534 62.478 12.1911 62.478 11.5221V8.5342C61.6495 8.68763 59.793 8.99831 57.8752 9.15557C56.2144 9.28599 54.5689 7.92818 53.8286 7.21092C53.4399 7.84447 52.9144 8.38309 52.2906 8.78736Z" fill="#093F68"/>
<path d="M57.3538 12.8148C57.1766 12.8129 56.9997 12.7988 56.8244 12.7727C56.7748 12.7639 56.7274 12.7454 56.6849 12.7182C56.6425 12.6911 56.6057 12.6559 56.5769 12.6146C56.548 12.5733 56.5276 12.5266 56.5168 12.4774C56.5059 12.4282 56.5049 12.3773 56.5138 12.3277C56.5225 12.2781 56.541 12.2307 56.5682 12.1882C56.5953 12.1457 56.6305 12.109 56.6718 12.0802C56.7132 12.0513 56.7598 12.0309 56.809 12.0201C56.8582 12.0092 56.9091 12.0082 56.9587 12.017C57.1109 12.0408 57.2649 12.051 57.419 12.0477C57.319 11.7374 57.1906 11.4369 57.0354 11.1502C57.0122 11.1054 56.9981 11.0564 56.9939 11.0061C56.9896 10.9558 56.9953 10.9052 57.0106 10.8571C57.0259 10.809 57.0506 10.7644 57.0831 10.7259C57.1157 10.6873 57.1555 10.6556 57.2003 10.6324C57.2452 10.6092 57.2941 10.5951 57.3444 10.5908C57.3947 10.5866 57.4453 10.5923 57.4934 10.6076C57.5415 10.6229 57.5861 10.6476 57.6246 10.6801C57.6632 10.7127 57.695 10.7525 57.7181 10.7973C58.1401 11.6105 58.2896 12.1781 58.1516 12.485C58.1222 12.5488 58.0797 12.6058 58.0268 12.652C57.974 12.6983 57.9119 12.7329 57.8447 12.7535C57.6843 12.7944 57.5193 12.815 57.3538 12.8148Z" fill="#093F68"/>
<path d="M57.3919 15.1238C57.8219 15.1238 58.1705 14.7958 58.1705 14.3912C58.1705 13.9866 57.8219 13.6586 57.3919 13.6586C56.9619 13.6586 56.6133 13.9866 56.6133 14.3912C56.6133 14.7958 56.9619 15.1238 57.3919 15.1238Z" fill="#093F68"/>
<path d="M54.0593 26.04C53.9575 26.04 53.86 25.9996 53.788 25.9277C53.7161 25.8558 53.6757 25.7582 53.6757 25.6565V21.4987C53.6757 21.3969 53.7161 21.2994 53.788 21.2275C53.86 21.1555 53.9575 21.1151 54.0593 21.1151C54.161 21.1151 54.2585 21.1555 54.3305 21.2275C54.4024 21.2994 54.4428 21.3969 54.4428 21.4987V25.6565C54.4428 25.7582 54.4024 25.8558 54.3305 25.9277C54.2585 25.9996 54.161 26.04 54.0593 26.04Z" fill="#093F68"/>
<path d="M60.2586 26.04C60.1568 26.04 60.0593 25.9996 59.9873 25.9277C59.9154 25.8558 59.875 25.7582 59.875 25.6565V21.4987C59.875 21.3969 59.9154 21.2994 59.9873 21.2275C60.0593 21.1555 60.1568 21.1151 60.2586 21.1151C60.3603 21.1151 60.4578 21.1555 60.5298 21.2275C60.6017 21.2994 60.6421 21.3969 60.6421 21.4987V25.6565C60.6421 25.7582 60.6017 25.8558 60.5298 25.9277C60.4578 25.9996 60.3603 26.04 60.2586 26.04Z" fill="#093F68"/>
<path d="M25.3001 46.2575V41.7775C25.3001 40.9681 24.4755 40.3123 23.4629 40.3123H14.7982C13.7818 40.3123 12.9609 40.9681 12.9609 41.7775V46.2575H25.3001Z" fill="#F56132"/>
<path d="M25.2991 46.6412H12.9675C12.8658 46.6412 12.7683 46.6008 12.6963 46.5288C12.6244 46.4569 12.584 46.3593 12.584 46.2576V41.7776C12.584 40.7573 13.5774 39.9288 14.8048 39.9288H23.4695C24.693 39.9288 25.6903 40.7573 25.6903 41.7776V46.2576C25.6903 46.3086 25.6801 46.3591 25.6604 46.4062C25.6406 46.4532 25.6117 46.4958 25.5752 46.5316C25.5388 46.5673 25.4956 46.5954 25.4482 46.6142C25.4008 46.633 25.3501 46.6422 25.2991 46.6412ZM13.3434 45.874H24.9155V41.7776C24.9155 41.1792 24.2634 40.696 23.4618 40.696H14.7971C13.9955 40.696 13.3434 41.1792 13.3434 41.7776V45.874Z" fill="#093F68"/>
<path d="M20.5976 40.4772H17.5176V46.2574H20.5976V40.4772Z" fill="white"/>
<path d="M20.5966 46.6411H17.5281C17.4264 46.6411 17.3288 46.6007 17.2569 46.5288C17.1849 46.4569 17.1445 46.3593 17.1445 46.2576V40.4773C17.1445 40.3756 17.1849 40.278 17.2569 40.2061C17.3288 40.1342 17.4264 40.0938 17.5281 40.0938H20.5966C20.6983 40.0938 20.7959 40.1342 20.8678 40.2061C20.9397 40.278 20.9801 40.3756 20.9801 40.4773V46.2576C20.9801 46.3593 20.9397 46.4569 20.8678 46.5288C20.7959 46.6007 20.6983 46.6411 20.5966 46.6411ZM17.9117 45.874H20.213V40.8609H17.9117V45.874Z" fill="#093F68"/>
<path d="M18.541 39.7906H19.918V40.5808C19.918 40.6573 19.9029 40.7332 19.8736 40.8039C19.8443 40.8746 19.8014 40.9389 19.7472 40.993C19.6931 41.0472 19.6288 41.0901 19.5581 41.1194C19.4874 41.1487 19.4116 41.1638 19.335 41.1638H19.1279C18.9732 41.1638 18.8249 41.1024 18.7156 40.993C18.6063 40.8837 18.5448 40.7354 18.5448 40.5808V39.7906H18.541Z" fill="#FFC9B0"/>
<path d="M19.3357 41.5475H19.1248C18.8684 41.5475 18.6226 41.4457 18.4413 41.2644C18.26 41.0831 18.1582 40.8373 18.1582 40.5809V39.7908C18.1582 39.6891 18.1986 39.5915 18.2705 39.5196C18.3425 39.4476 18.44 39.4072 18.5418 39.4072H19.9187C20.0205 39.4072 20.118 39.4476 20.19 39.5196C20.2619 39.5915 20.3023 39.6891 20.3023 39.7908V40.5809C20.3023 40.8373 20.2005 41.0831 20.0192 41.2644C19.8379 41.4457 19.5921 41.5475 19.3357 41.5475ZM18.9253 40.1743V40.5809C18.9253 40.6071 18.9305 40.6331 18.9405 40.6572C18.9505 40.6814 18.9652 40.7034 18.9837 40.722C19.0023 40.7405 19.0243 40.7552 19.0484 40.7652C19.0726 40.7752 19.0986 40.7804 19.1248 40.7804H19.3357C19.3886 40.7804 19.4394 40.7594 19.4768 40.722C19.5142 40.6846 19.5352 40.6338 19.5352 40.5809V40.1743H18.9253Z" fill="#093F68"/>
<path d="M14.4788 35.9742C13.8421 35.7326 13.8804 35.2455 13.7846 34.6164C13.6891 33.9965 13.6302 33.3715 13.6081 32.7447C13.5511 32.0314 13.6439 31.3142 13.8804 30.6389C14.0118 30.233 14.2747 29.8826 14.6276 29.6429C14.9805 29.4032 15.4032 29.2881 15.8289 29.3156C15.8021 28.0652 16.5539 26.8915 17.8848 26.8186C20.0174 26.7074 21.2448 28.9973 22.4377 28.8247C23.6306 28.652 23.9489 28.1266 23.9489 28.1266C24.1491 28.5091 24.2316 28.9424 24.1858 29.3718C24.1401 29.8011 23.9682 30.2074 23.692 30.5392C23.692 30.5392 24.6317 30.263 24.7467 31.5134C24.8618 32.7638 24.1139 36.0893 24.1139 36.0893L23.2585 35.9397C22.8746 35.9171 22.4894 35.9299 22.1078 35.9781L19.4421 36.0586C18.0919 36.1008 15.9325 36.5342 14.4788 35.9742Z" fill="#725858"/>
<path d="M16.4211 36.6379C15.7218 36.6594 15.0242 36.5554 14.3614 36.331C13.5943 36.0433 13.5214 35.4488 13.4562 34.9233C13.4562 34.8428 13.4562 34.7622 13.4217 34.674C13.3252 34.0387 13.265 33.3984 13.2414 32.7562C13.1812 31.9892 13.2832 31.2182 13.5406 30.4932C13.6828 30.0765 13.9402 29.7086 14.2831 29.4323C14.626 29.1559 15.0401 28.9825 15.4776 28.9321C15.5965 27.6932 16.4096 26.5118 17.8825 26.4313C19.2173 26.3622 20.2107 27.1179 21.0124 27.7239C21.5609 28.1381 22.0326 28.491 22.4009 28.4411C23.3636 28.3031 23.6398 27.9157 23.6436 27.9118C23.6802 27.8576 23.7301 27.8136 23.7885 27.784C23.8469 27.7545 23.9119 27.7404 23.9773 27.7431C24.0415 27.7446 24.1044 27.7623 24.16 27.7945C24.2156 27.8266 24.2623 27.8723 24.2957 27.9272C24.4857 28.2788 24.5912 28.6698 24.6038 29.0693C24.6165 29.4687 24.5359 29.8656 24.3685 30.2285C24.4405 30.2573 24.5088 30.2947 24.5718 30.3398C24.7483 30.4758 24.8918 30.6499 24.9914 30.8492C25.091 31.0485 25.1443 31.2677 25.1472 31.4905C25.2622 32.7869 24.5335 36.0472 24.5028 36.1853C24.4807 36.2812 24.4226 36.3649 24.3405 36.4192C24.2584 36.4734 24.1586 36.494 24.0617 36.4768L23.2102 36.331C22.9809 36.3026 22.749 36.3026 22.5198 36.331C22.3817 36.331 22.2474 36.354 22.1362 36.3579L19.4705 36.4422C19.1444 36.4422 18.7609 36.4883 18.3505 36.5228C17.7252 36.5765 17.0617 36.6379 16.4211 36.6379ZM14.6337 35.6138C15.6348 35.9973 17.0962 35.8631 18.2661 35.7595C18.688 35.7211 19.0831 35.6866 19.4168 35.6751L22.0825 35.5907C22.1937 35.5907 22.3126 35.5907 22.4315 35.5677C22.7282 35.5293 23.0286 35.5293 23.3252 35.5677L23.8162 35.6521C24.0042 34.7699 24.4529 32.4954 24.3647 31.5557C24.3667 31.4457 24.3467 31.3365 24.3059 31.2344C24.265 31.1323 24.2042 31.0394 24.1269 30.9612C24.0278 30.9058 23.912 30.8881 23.8009 30.9113C23.7226 30.9334 23.6393 30.93 23.563 30.9016C23.4868 30.8733 23.4215 30.8214 23.3767 30.7535C23.3319 30.6856 23.3098 30.6052 23.3136 30.524C23.3175 30.4427 23.3471 30.3648 23.3981 30.3014C23.5752 30.0921 23.7019 29.8449 23.7684 29.5789C23.8349 29.3129 23.8394 29.0352 23.7817 28.7672C23.3857 28.9957 22.9471 29.1406 22.4929 29.1929C21.8102 29.2888 21.1888 28.8094 20.5368 28.3261C19.7965 27.7699 18.9603 27.1294 17.9094 27.1754C16.7587 27.2368 16.1948 28.2801 16.214 29.2811C16.2154 29.3347 16.2055 29.388 16.1851 29.4376C16.1646 29.4871 16.1339 29.5318 16.0951 29.5688C16.0559 29.6059 16.0094 29.6343 15.9585 29.6521C15.9076 29.6699 15.8535 29.6769 15.7998 29.6724C15.4518 29.6519 15.1072 29.7505 14.8228 29.952C14.5383 30.1535 14.331 30.4458 14.2348 30.7809C14.0211 31.4068 13.9388 32.0702 13.9932 32.7294C14.0161 33.3407 14.0737 33.9503 14.1658 34.5551C14.1658 34.6472 14.1926 34.7392 14.2003 34.8236C14.2655 35.3376 14.3 35.491 14.6184 35.5907L14.6337 35.6138Z" fill="#093F68"/>
<path d="M15.2996 37.3667C16.0368 37.3667 16.6344 36.8515 16.6344 36.216C16.6344 35.5805 16.0368 35.0653 15.2996 35.0653C14.5624 35.0653 13.9648 35.5805 13.9648 36.216C13.9648 36.8515 14.5624 37.3667 15.2996 37.3667Z" fill="#FFC9B0"/>
<path d="M15.3013 37.7502C15.0083 37.7147 14.7317 37.5956 14.5048 37.4069C14.2778 37.2183 14.1101 36.9682 14.0216 36.6867C13.9332 36.4051 13.9279 36.104 14.0063 35.8195C14.0847 35.535 14.2434 35.2791 14.4636 35.0825C14.6837 34.886 14.9559 34.7571 15.2474 34.7113C15.539 34.6655 15.8375 34.7048 16.1073 34.8244C16.3771 34.9441 16.6067 35.139 16.7685 35.3858C16.9303 35.6326 17.0175 35.9208 17.0196 36.2159C16.9929 36.6464 16.7975 37.0489 16.4758 37.3362C16.154 37.6234 15.732 37.7722 15.3013 37.7502ZM15.3013 35.4488C15.1626 35.4831 15.0363 35.5555 14.9366 35.6578C14.8368 35.76 14.7676 35.8881 14.7367 36.0275C14.7058 36.167 14.7145 36.3123 14.7618 36.4471C14.809 36.5819 14.893 36.7009 15.0041 36.7905C15.1153 36.8802 15.2494 36.9371 15.3911 36.9547C15.5329 36.9723 15.6767 36.95 15.8065 36.8902C15.9362 36.8305 16.0467 36.7357 16.1255 36.6166C16.2043 36.4975 16.2483 36.3587 16.2525 36.2159C16.2246 35.9896 16.1097 35.783 15.9322 35.6398C15.7546 35.4966 15.5284 35.4281 15.3013 35.4488Z" fill="#093F68"/>
<path d="M23.0905 37.3667C23.8277 37.3667 24.4253 36.8515 24.4253 36.216C24.4253 35.5805 23.8277 35.0653 23.0905 35.0653C22.3533 35.0653 21.7557 35.5805 21.7557 36.216C21.7557 36.8515 22.3533 37.3667 23.0905 37.3667Z" fill="#FFC9B0"/>
<path d="M23.0905 37.7502C22.7975 37.7147 22.521 37.5956 22.294 37.4069C22.067 37.2183 21.8993 36.9682 21.8109 36.6867C21.7224 36.4051 21.7171 36.104 21.7955 35.8195C21.8739 35.535 22.0327 35.2791 22.2528 35.0825C22.4729 34.886 22.7451 34.7571 23.0366 34.7113C23.3282 34.6655 23.6267 34.7048 23.8965 34.8244C24.1663 34.9441 24.3959 35.139 24.5577 35.3858C24.7195 35.6326 24.8067 35.9208 24.8088 36.2159C24.7821 36.6464 24.5867 37.0489 24.265 37.3362C23.9433 37.6234 23.5212 37.7722 23.0905 37.7502ZM23.0905 35.4488C22.9518 35.4831 22.8255 35.5555 22.7258 35.6578C22.626 35.76 22.5568 35.8881 22.5259 36.0275C22.4951 36.167 22.5037 36.3123 22.551 36.4471C22.5982 36.5819 22.6822 36.7009 22.7934 36.7905C22.9046 36.8802 23.0386 36.9371 23.1803 36.9547C23.3221 36.9723 23.4659 36.95 23.5957 36.8902C23.7254 36.8305 23.836 36.7357 23.9148 36.6166C23.9936 36.4975 24.0375 36.3587 24.0417 36.2159C24.0138 35.9896 23.8989 35.783 23.7214 35.6398C23.5438 35.4966 23.3176 35.4281 23.0905 35.4488Z" fill="#093F68"/>
<path d="M19.2286 39.9863C18.1601 39.9853 17.1357 39.5601 16.3805 38.8042C15.6254 38.0483 15.2012 37.0236 15.2012 35.9551V33.0285C15.4351 33.4121 16.2176 33.2625 17.3645 31.2948C21.6565 33.4696 23.2598 32.223 23.2598 32.223V35.9551C23.2598 36.4845 23.1555 37.0087 22.9529 37.4978C22.7503 37.9869 22.4534 38.4313 22.0791 38.8056C21.7047 39.1799 21.2603 39.4769 20.7713 39.6794C20.2822 39.882 19.758 39.9863 19.2286 39.9863Z" fill="#FFC9B0"/>
<path d="M19.2276 40.3699C18.0577 40.3679 16.9364 39.9019 16.1095 39.0743C15.2826 38.2467 14.8177 37.125 14.8167 35.9551V33.0285C14.8135 32.9424 14.8394 32.8578 14.8902 32.7882C14.941 32.7186 15.0137 32.6682 15.0967 32.645C15.1769 32.6226 15.2622 32.627 15.3397 32.6575C15.4172 32.6879 15.4827 32.7428 15.5263 32.8137C15.5263 32.8137 16.0517 32.7677 17.0337 31.0877C17.0828 31.0036 17.162 30.9414 17.2553 30.9136C17.3486 30.8859 17.449 30.8946 17.5361 30.9381C21.4983 32.9441 23.0134 31.9123 23.0287 31.9008C23.0864 31.8588 23.1546 31.8336 23.2257 31.8282C23.2969 31.8228 23.3681 31.8373 23.4315 31.8702C23.4941 31.9017 23.547 31.9499 23.5841 32.0094C23.6213 32.0689 23.6415 32.1375 23.6424 32.2077V35.9397C23.6439 36.5207 23.5309 37.0962 23.3097 37.6333C23.0886 38.1705 22.7637 38.6588 22.3537 39.0703C21.9436 39.4817 21.4564 39.8083 20.92 40.0313C20.3836 40.2543 19.8085 40.3694 19.2276 40.3699ZM15.5838 33.5808V35.9551C15.5612 36.4477 15.6387 36.9397 15.8116 37.4015C15.9845 37.8633 16.2493 38.2852 16.5899 38.6418C16.9305 38.9984 17.3398 39.2822 17.7932 39.4761C18.2465 39.67 18.7345 39.77 19.2276 39.77C19.7207 39.77 20.2087 39.67 20.6621 39.4761C21.1154 39.2822 21.5248 38.9984 21.8654 38.6418C22.206 38.2852 22.4707 37.8633 22.6436 37.4015C22.8166 36.9397 22.8941 36.4477 22.8715 35.9551V32.806C22.0468 33.0477 20.3515 33.1666 17.5016 31.7934C16.8035 32.9173 16.1553 33.5156 15.5838 33.5655V33.5808Z" fill="#093F68"/>
<path d="M19.5547 36.2081C19.4184 36.2073 19.2825 36.1957 19.1481 36.1736C19.0977 36.165 19.0495 36.1466 19.0063 36.1194C18.963 36.0922 18.9255 36.0568 18.896 36.0151C18.8664 35.9734 18.8453 35.9264 18.834 35.8765C18.8226 35.8267 18.8212 35.7752 18.8297 35.7248C18.8383 35.6744 18.8567 35.6262 18.8839 35.583C18.9111 35.5397 18.9465 35.5022 18.9882 35.4727C19.0298 35.4431 19.0769 35.422 19.1267 35.4107C19.1766 35.3993 19.2281 35.3979 19.2785 35.4064C19.3385 35.41 19.3987 35.41 19.4588 35.4064C19.3957 35.2318 19.3214 35.0614 19.2363 34.8963C19.2115 34.8516 19.1958 34.8024 19.1903 34.7516C19.1847 34.7008 19.1894 34.6493 19.204 34.6003C19.2186 34.5513 19.2429 34.5058 19.2754 34.4663C19.3079 34.4268 19.3479 34.3942 19.3932 34.3704C19.4384 34.3467 19.488 34.3322 19.5389 34.3278C19.5899 34.3235 19.6412 34.3293 19.6898 34.3451C19.7384 34.3609 19.7834 34.3862 19.8221 34.4196C19.8608 34.453 19.8925 34.4938 19.9152 34.5396C20.41 35.4908 20.2796 35.7785 20.2374 35.8705C20.2093 35.9362 20.1662 35.9943 20.1116 36.0403C20.057 36.0863 19.9923 36.1188 19.9229 36.1352C19.8037 36.1747 19.6799 36.1992 19.5547 36.2081Z" fill="#093F68"/>
<path d="M18.1115 37.4855H20.4397C20.4397 37.4855 20.2058 39.0197 19.1433 38.9468C17.9274 38.8701 18.1115 37.4855 18.1115 37.4855Z" fill="#093F68"/>
<path d="M15.2996 46.6412C15.1979 46.6412 15.1003 46.6008 15.0284 46.5288C14.9564 46.4569 14.916 46.3594 14.916 46.2576V42.422C14.916 42.3203 14.9564 42.2227 15.0284 42.1508C15.1003 42.0789 15.1979 42.0385 15.2996 42.0385C15.4013 42.0385 15.4989 42.0789 15.5708 42.1508C15.6427 42.2227 15.6831 42.3203 15.6831 42.422V46.2576C15.6831 46.3594 15.6427 46.4569 15.5708 46.5288C15.4989 46.6008 15.4013 46.6412 15.2996 46.6412Z" fill="#093F68"/>
<path d="M22.8328 46.6412C22.7311 46.6412 22.6335 46.6008 22.5616 46.5288C22.4896 46.4569 22.4492 46.3594 22.4492 46.2576V42.422C22.4492 42.3203 22.4896 42.2227 22.5616 42.1508C22.6335 42.0789 22.7311 42.0385 22.8328 42.0385C22.9345 42.0385 23.0321 42.0789 23.104 42.1508C23.1759 42.2227 23.2163 42.3203 23.2163 42.422V46.2576C23.2163 46.3594 23.1759 46.4569 23.104 46.5288C23.0321 46.6008 22.9345 46.6412 22.8328 46.6412Z" fill="#093F68"/>
<path d="M57.7115 43.1352H42.8523C42.7506 43.1352 42.653 43.0948 42.5811 43.0229C42.5092 42.951 42.4688 42.8534 42.4688 42.7517V29.6837C42.4688 29.582 42.5092 29.4844 42.5811 29.4125C42.653 29.3406 42.7506 29.3002 42.8523 29.3002H57.7115C57.8132 29.3002 57.9108 29.3406 57.9827 29.4125C58.0546 29.4844 58.095 29.582 58.095 29.6837V42.7517C58.095 42.8534 58.0546 42.951 57.9827 43.0229C57.9108 43.0948 57.8132 43.1352 57.7115 43.1352ZM43.2359 42.3681H57.3279V30.0673H43.2359V42.3681Z" fill="#DFEAEF"/>
<path d="M70.9314 30.6082H62.1824C62.0807 30.6082 61.9831 30.5678 61.9112 30.4958C61.8392 30.4239 61.7988 30.3264 61.7988 30.2246C61.7988 30.1229 61.8392 30.0253 61.9112 29.9534C61.9831 29.8815 62.0807 29.8411 62.1824 29.8411H70.9314C71.0332 29.8411 71.1307 29.8815 71.2027 29.9534C71.2746 30.0253 71.315 30.1229 71.315 30.2246C71.315 30.3264 71.2746 30.4239 71.2027 30.4958C71.1307 30.5678 71.0332 30.6082 70.9314 30.6082Z" fill="#DFEAEF"/>
<path d="M70.9314 34.2061H62.1824C62.0807 34.2061 61.9831 34.1657 61.9112 34.0937C61.8392 34.0218 61.7988 33.9243 61.7988 33.8225C61.7988 33.7208 61.8392 33.6232 61.9112 33.5513C61.9831 33.4794 62.0807 33.439 62.1824 33.439H70.9314C71.0332 33.439 71.1307 33.4794 71.2027 33.5513C71.2746 33.6232 71.315 33.7208 71.315 33.8225C71.315 33.9243 71.2746 34.0218 71.2027 34.0937C71.1307 34.1657 71.0332 34.2061 70.9314 34.2061Z" fill="#DFEAEF"/>
<path d="M70.9314 37.8077H62.1824C62.0807 37.8077 61.9831 37.7672 61.9112 37.6953C61.8392 37.6234 61.7988 37.5258 61.7988 37.4241C61.7988 37.3224 61.8392 37.2248 61.9112 37.1529C61.9831 37.0809 62.0807 37.0405 62.1824 37.0405H70.9314C71.0332 37.0405 71.1307 37.0809 71.2027 37.1529C71.2746 37.2248 71.315 37.3224 71.315 37.4241C71.315 37.5258 71.2746 37.6234 71.2027 37.6953C71.1307 37.7672 71.0332 37.8077 70.9314 37.8077Z" fill="#DFEAEF"/>
<path d="M67.2569 41.4054H62.1824C62.0807 41.4054 61.9831 41.365 61.9112 41.2931C61.8392 41.2212 61.7988 41.1236 61.7988 41.0219C61.7988 40.9201 61.8392 40.8226 61.9112 40.7506C61.9831 40.6787 62.0807 40.6383 62.1824 40.6383H67.2569C67.3586 40.6383 67.4562 40.6787 67.5281 40.7506C67.6001 40.8226 67.6405 40.9201 67.6405 41.0219C67.6405 41.1236 67.6001 41.2212 67.5281 41.2931C67.4562 41.365 67.3586 41.4054 67.2569 41.4054Z" fill="#DFEAEF"/>
<path d="M57.2428 26.1781C57.1411 26.1781 57.0435 26.1377 56.9716 26.0657C56.8997 25.9938 56.8593 25.8962 56.8593 25.7945V18.6257C56.8593 18.524 56.8997 18.4265 56.9716 18.3545C57.0435 18.2826 57.1411 18.2422 57.2428 18.2422C57.3445 18.2422 57.4421 18.2826 57.514 18.3545C57.586 18.4265 57.6264 18.524 57.6264 18.6257V25.7945C57.6264 25.8962 57.586 25.9938 57.514 26.0657C57.4421 26.1377 57.3445 26.1781 57.2428 26.1781Z" fill="#093F68"/>
</svg>
