<svg width="92" height="70" viewBox="0 0 92 70" fill="none" xmlns="http://www.w3.org/2000/svg">
<path d="M79.3576 68.4316C82.1786 68.4316 84.4655 67.8372 84.4655 67.1039C84.4655 66.3707 82.1786 65.7762 79.3576 65.7762C76.5366 65.7762 74.2498 66.3707 74.2498 67.1039C74.2498 67.8372 76.5366 68.4316 79.3576 68.4316Z" fill="#D1D3D4"/>
<path d="M13.0483 70C20.0714 70 25.7647 69.1761 25.7647 68.1598C25.7647 67.1435 20.0714 66.3196 13.0483 66.3196C6.02531 66.3196 0.332016 67.1435 0.332016 68.1598C0.332016 69.1761 6.02531 70 13.0483 70Z" fill="#D1D3D4"/>
<path d="M46.8006 64.2867C57.8776 64.2867 66.8572 63.5075 66.8572 62.5462C66.8572 61.585 57.8776 60.8058 46.8006 60.8058C35.7237 60.8058 26.7441 61.585 26.7441 62.5462C26.7441 63.5075 35.7237 64.2867 46.8006 64.2867Z" fill="#D1D3D4"/>
<path d="M57.2226 51.2266H36.375V59.9254H57.2226V51.2266Z" fill="white"/>
<path d="M57.2226 60.0836H36.375C36.3333 60.0828 36.2936 60.0658 36.2641 60.0363C36.2346 60.0068 36.2177 59.9671 36.2168 59.9254V51.2266C36.2177 51.1849 36.2346 51.1452 36.2641 51.1157C36.2936 51.0862 36.3333 51.0692 36.375 51.0684H57.2226C57.2643 51.0692 57.3041 51.0862 57.3336 51.1157C57.363 51.1452 57.38 51.1849 57.3809 51.2266V59.9254C57.38 59.9671 57.363 60.0068 57.3336 60.0363C57.3041 60.0658 57.2643 60.0828 57.2226 60.0836ZM36.547 59.7672H57.0782V51.3848H36.547V59.7672Z" fill="#231F20"/>
<path d="M63.0496 59.7809H30.552C29.7617 59.7809 29.1211 60.4215 29.1211 61.2118C29.1211 62.002 29.7617 62.6427 30.552 62.6427H63.0496C63.8399 62.6427 64.4805 62.002 64.4805 61.2118C64.4805 60.4215 63.8399 59.7809 63.0496 59.7809Z" fill="white"/>
<path d="M63.0322 62.8009H30.5517C30.337 62.8109 30.1225 62.7772 29.9212 62.702C29.7199 62.6267 29.536 62.5114 29.3806 62.363C29.2251 62.2146 29.1014 62.0362 29.0168 61.8387C28.9323 61.6411 28.8887 61.4284 28.8887 61.2135C28.8887 60.9986 28.9323 60.7859 29.0168 60.5883C29.1014 60.3908 29.2251 60.2124 29.3806 60.064C29.536 59.9156 29.7199 59.8003 29.9212 59.725C30.1225 59.6498 30.337 59.6161 30.5517 59.6261H63.0322C63.2468 59.6161 63.4613 59.6498 63.6626 59.725C63.8639 59.8003 64.0478 59.9156 64.2033 60.064C64.3588 60.2124 64.4825 60.3908 64.567 60.5883C64.6516 60.7859 64.6952 60.9986 64.6952 61.2135C64.6952 61.4284 64.6516 61.6411 64.567 61.8387C64.4825 62.0362 64.3588 62.2146 64.2033 62.363C64.0478 62.5114 63.8639 62.6267 63.6626 62.702C63.4613 62.7772 63.2468 62.8109 63.0322 62.8009ZM30.5379 59.9391C30.2004 59.9391 29.8767 60.0732 29.638 60.3119C29.3994 60.5505 29.2653 60.8742 29.2653 61.2118C29.2653 61.5493 29.3994 61.873 29.638 62.1117C29.8767 62.3504 30.2004 62.4844 30.5379 62.4844H63.0322C63.3697 62.4844 63.6934 62.3504 63.9321 62.1117C64.1707 61.873 64.3048 61.5493 64.3048 61.2118C64.3048 60.8742 64.1707 60.5505 63.9321 60.3119C63.6934 60.0732 63.3697 59.9391 63.0322 59.9391H30.5379Z" fill="#231F20"/>
<path d="M57.2226 51.2266V52.1725C50.8559 52.8191 40.7124 55.3851 36.375 56.5339V51.2266H57.2226Z" fill="#231F20"/>
<path d="M36.376 56.6851C36.3424 56.6854 36.3098 56.6745 36.2831 56.6542C36.2651 56.6396 36.2506 56.6213 36.2405 56.6005C36.2304 56.5797 36.225 56.5569 36.2246 56.5338V51.2264C36.2246 51.1863 36.2406 51.1478 36.2689 51.1194C36.2973 51.091 36.3358 51.0751 36.376 51.0751H57.2236C57.2637 51.0751 57.3022 51.091 57.3306 51.1194C57.359 51.1478 57.3749 51.1863 57.3749 51.2264V52.1723C57.3752 52.2096 57.3616 52.2458 57.3368 52.2737C57.3121 52.3016 57.2779 52.3194 57.2408 52.3237C50.8396 52.9738 40.5448 55.5844 36.4138 56.6782L36.376 56.6851ZM36.5273 51.3778V56.3343C40.7512 55.2198 50.7399 52.702 57.0722 52.0382V51.3778H36.5273Z" fill="#231F20"/>
<path d="M87.5508 0.154663H6.04869C4.15473 0.154663 2.61937 1.69002 2.61937 3.58398V47.8142C2.61937 49.7082 4.15473 51.2436 6.04869 51.2436H87.5508C89.4448 51.2436 90.9801 49.7082 90.9801 47.8142V3.58398C90.9801 1.69002 89.4448 0.154663 87.5508 0.154663Z" fill="white"/>
<path d="M87.5508 51.4019H6.04868C5.09749 51.401 4.18551 51.0227 3.51292 50.3501C2.84032 49.6775 2.46205 48.7656 2.46114 47.8144V3.58754C2.46205 2.63634 2.84032 1.72437 3.51292 1.05177C4.18551 0.379175 5.09749 0.000910671 6.04868 0H87.568C88.5162 0.00544916 89.4238 0.385715 90.0927 1.05782C90.7616 1.72993 91.1375 2.63931 91.1384 3.58754V47.8144C91.1375 48.7656 90.7592 49.6775 90.0866 50.3501C89.414 51.0227 88.502 51.401 87.5508 51.4019ZM6.04868 0.319886C5.18082 0.320798 4.34881 0.666195 3.73546 1.28019C3.12211 1.89418 2.77759 2.72655 2.77759 3.59442V47.8144C2.77759 48.6822 3.12211 49.5146 3.73546 50.1286C4.34881 50.7426 5.18082 51.088 6.04868 51.0889H87.568C88.4359 51.088 89.2679 50.7426 89.8812 50.1286C90.4946 49.5146 90.8391 48.6822 90.8391 47.8144V3.58754C90.8382 3.15694 90.7524 2.73075 90.5866 2.33336C90.4207 1.93597 90.1782 1.57519 89.8727 1.27167C89.5673 0.968148 89.205 0.72785 88.8066 0.56453C88.4081 0.40121 87.9814 0.318076 87.5508 0.319886H6.04868Z" fill="#231F20"/>
<path d="M89.9004 6.94472H2.83986C2.79818 6.94384 2.75844 6.92689 2.72896 6.89741C2.69947 6.86792 2.68252 6.82819 2.68164 6.7865C2.68254 6.74513 2.69961 6.70577 2.72918 6.67683C2.75876 6.6479 2.79849 6.6317 2.83986 6.63171H89.9004C89.9415 6.63171 89.9809 6.64802 90.0099 6.67705C90.0389 6.70608 90.0552 6.74545 90.0552 6.7865C90.0552 6.82787 90.039 6.8676 90.0101 6.89718C89.9812 6.92675 89.9418 6.94382 89.9004 6.94472Z" fill="#231F20"/>
<path d="M46.9863 45.8985H46.6045C46.4738 45.8297 46.3466 45.754 46.2124 45.6956C40.31 43.0126 35.78 39.1052 32.7978 33.8495C31.3468 31.2927 30.3396 28.5084 29.8191 25.615C29.521 23.9945 29.3988 22.3465 29.4545 20.6997C29.4545 20.4418 29.5611 20.3214 29.8535 20.2732C30.2663 20.2044 30.6756 20.1047 31.078 19.9981C33.0868 19.4477 34.7 18.4365 35.7628 16.7958C36.556 15.5844 36.9316 14.1471 36.8325 12.7026C36.8153 12.4549 36.891 12.3586 37.1765 12.3002C39.0476 11.9975 40.9085 11.6501 42.7831 11.3611C44.9416 10.9872 47.1429 10.9281 49.3184 11.1857C51.7021 11.509 54.0685 11.9424 56.4419 12.3139C56.6964 12.3552 56.7343 12.4584 56.7411 12.6579C56.7295 13.1902 56.7594 13.7227 56.8306 14.2504C56.9843 15.146 57.3138 16.0023 57.8003 16.7698C58.2868 17.5372 58.9205 18.2007 59.6648 18.7219C60.8388 19.5239 62.1775 20.0528 63.5826 20.2698C64.0332 20.3523 64.1295 20.5346 64.1398 20.9027C64.2088 23.4847 63.8497 26.0603 63.0769 28.5249C61.0132 35.2391 56.7342 40.5327 50.1061 44.3025C49.0983 44.8769 48.0285 45.3791 46.9863 45.8985Z" fill="#88E58D"/>
<path d="M53.9805 24.0464H39.6201C38.1687 24.0464 36.9922 25.2229 36.9922 26.6743V33.9285C36.9922 35.3798 38.1687 36.5563 39.6201 36.5563H53.9805C55.4319 36.5563 56.6084 35.3798 56.6084 33.9285V26.6743C56.6084 25.2229 55.4319 24.0464 53.9805 24.0464Z" fill="white"/>
<path d="M51.7033 26.2822H41.8969C41.7145 26.2822 41.5395 26.2097 41.4105 26.0807C41.2815 25.9517 41.209 25.7767 41.209 25.5943V21.704C41.2452 20.2452 41.8501 18.8583 42.8947 17.8392C43.9393 16.8202 45.3408 16.2499 46.8001 16.2499C48.2594 16.2499 49.6609 16.8202 50.7055 17.8392C51.7501 18.8583 52.355 20.2452 52.3912 21.704V25.5943C52.3912 25.7767 52.3188 25.9517 52.1897 26.0807C52.0607 26.2097 51.8858 26.2822 51.7033 26.2822ZM42.5848 24.9063H51.0154V21.704C50.984 20.6069 50.5262 19.5652 49.7391 18.8003C48.952 18.0354 47.8977 17.6075 46.8001 17.6075C45.7025 17.6075 44.6482 18.0354 43.8611 18.8003C43.074 19.5652 42.6162 20.6069 42.5848 21.704V24.9063Z" fill="white"/>
<path d="M46.8019 30.2344C47.8391 30.2344 48.6799 29.3935 48.6799 28.3563C48.6799 27.3191 47.8391 26.4783 46.8019 26.4783C45.7647 26.4783 44.9238 27.3191 44.9238 28.3563C44.9238 29.3935 45.7647 30.2344 46.8019 30.2344Z" fill="#88E58D"/>
<path d="M47.3243 28.7174H46.2752V33.0926H47.3243V28.7174Z" fill="#88E58D"/>
<path d="M7.1933 4.94274C7.82968 4.94274 8.34557 4.42685 8.34557 3.79046C8.34557 3.15408 7.82968 2.63818 7.1933 2.63818C6.55691 2.63818 6.04102 3.15408 6.04102 3.79046C6.04102 4.42685 6.55691 4.94274 7.1933 4.94274Z" fill="#88E58D"/>
<path d="M11.2226 4.94274C11.859 4.94274 12.3749 4.42685 12.3749 3.79046C12.3749 3.15408 11.859 2.63818 11.2226 2.63818C10.5862 2.63818 10.0703 3.15408 10.0703 3.79046C10.0703 4.42685 10.5862 4.94274 11.2226 4.94274Z" fill="#D1D3D4"/>
<path d="M15.2497 4.94274C15.8861 4.94274 16.402 4.42685 16.402 3.79046C16.402 3.15408 15.8861 2.63818 15.2497 2.63818C14.6133 2.63818 14.0975 3.15408 14.0975 3.79046C14.0975 4.42685 14.6133 4.94274 15.2497 4.94274Z" fill="#D1D3D4"/>
<path d="M61.6944 44.9594C61.663 44.9611 61.6319 44.9532 61.6051 44.9368C61.5783 44.9204 61.5571 44.8962 61.5444 44.8674C61.5317 44.8387 61.5281 44.8067 61.534 44.7759C61.5399 44.745 61.555 44.7166 61.5774 44.6946L83.6702 21.3945C83.6999 21.3649 83.7401 21.3483 83.782 21.3483C83.8239 21.3483 83.8641 21.3649 83.8938 21.3945C83.9226 21.4246 83.9387 21.4647 83.9387 21.5063C83.9387 21.548 83.9226 21.588 83.8938 21.6181L61.8182 44.9182C61.8016 44.9333 61.782 44.9448 61.7606 44.9519C61.7393 44.959 61.7168 44.9616 61.6944 44.9594Z" fill="#D1D3D4"/>
<path d="M22.4452 18.8251C22.4137 18.825 22.3829 18.8156 22.3568 18.798C22.3308 18.7804 22.3105 18.7554 22.2987 18.7262C22.2869 18.6971 22.284 18.665 22.2905 18.6342C22.297 18.6034 22.3125 18.5752 22.3351 18.5533L31.7322 9.33166C31.7466 9.31657 31.764 9.30457 31.7832 9.29637C31.8024 9.28816 31.8231 9.28394 31.844 9.28394C31.8649 9.28394 31.8855 9.28816 31.9048 9.29637C31.924 9.30457 31.9413 9.31657 31.9558 9.33166C31.9854 9.36132 32.002 9.40153 32.002 9.44345C32.002 9.48537 31.9854 9.52557 31.9558 9.55524L22.5518 18.7769C22.5384 18.7919 22.5219 18.804 22.5036 18.8123C22.4852 18.8205 22.4653 18.8249 22.4452 18.8251Z" fill="#D1D3D4"/>
<path d="M69.461 24.5486C69.4406 24.549 69.4203 24.5452 69.4014 24.5375C69.3825 24.5298 69.3653 24.5184 69.3509 24.5039C69.3213 24.4742 69.3047 24.434 69.3047 24.3921C69.3047 24.3502 69.3213 24.31 69.3509 24.2803L80.3853 12.7679C80.4143 12.7386 80.4536 12.7218 80.4949 12.7211C80.5361 12.7204 80.576 12.7358 80.606 12.764C80.6361 12.7923 80.6539 12.8311 80.6557 12.8723C80.6575 12.9135 80.6432 12.9538 80.6157 12.9846L69.5676 24.5005C69.5394 24.5293 69.5013 24.5464 69.461 24.5486Z" fill="#D1D3D4"/>
<path d="M3.65472 44.6223L3.91269 46.3421C3.91269 46.3421 4.94458 46.803 4.99962 47.0919C5.05465 47.3809 5.34358 48.1789 5.27479 48.4059C5.12688 48.7877 4.63158 48.6501 4.63158 48.6501C4.68849 48.8747 4.70364 49.1079 4.67629 49.338C4.60406 49.4928 2.26855 49.682 1.92458 49.2004C1.58062 48.7189 0.806702 43.7349 0.806702 43.7349" fill="white"/>
<path d="M3.30457 49.665C2.72328 49.665 2.00439 49.5996 1.78426 49.2969C1.42309 48.805 0.717969 44.275 0.638857 43.7625C0.635438 43.7422 0.636125 43.7213 0.640878 43.7013C0.64563 43.6812 0.654353 43.6622 0.666532 43.6456C0.678711 43.6289 0.694101 43.6148 0.711795 43.6042C0.729489 43.5936 0.749132 43.5866 0.769565 43.5837C0.789921 43.5803 0.810756 43.5809 0.830843 43.5857C0.85093 43.5905 0.869864 43.5992 0.886529 43.6114C0.903195 43.6235 0.917255 43.6389 0.927885 43.6566C0.938515 43.6743 0.945499 43.694 0.948425 43.7144C1.24423 45.6303 1.80145 48.7878 2.03879 49.1112C2.27612 49.4345 4.192 49.3588 4.5394 49.2419C4.54183 49.0602 4.52219 48.8788 4.48093 48.7019C4.47512 48.6754 4.47618 48.648 4.484 48.6221C4.49183 48.5962 4.50617 48.5727 4.52565 48.554C4.54563 48.5354 4.56999 48.5222 4.59645 48.5156C4.62291 48.509 4.65062 48.5091 4.67699 48.5161C4.67699 48.5161 5.02095 48.609 5.12758 48.3648C5.10814 48.0521 5.04325 47.7438 4.93496 47.4498C4.89712 47.3294 4.86617 47.2228 4.84897 47.1471C4.56715 46.8612 4.22525 46.6415 3.84804 46.5039C3.82387 46.493 3.80276 46.4763 3.78656 46.4553C3.77037 46.4343 3.75959 46.4097 3.75517 46.3835L3.50063 44.6637C3.4947 44.6227 3.50532 44.581 3.53016 44.5477C3.55499 44.5145 3.59201 44.4925 3.63306 44.4866C3.67411 44.4807 3.71584 44.4913 3.74906 44.5161C3.78228 44.5409 3.80427 44.578 3.8102 44.619L4.05441 46.27C4.39838 46.4386 5.08631 46.786 5.1551 47.0921C5.1551 47.1609 5.20325 47.2606 5.23421 47.3776C5.39243 47.9039 5.49906 48.2925 5.41995 48.4955C5.37353 48.6122 5.29118 48.7111 5.18482 48.7779C5.07846 48.8446 4.95361 48.8759 4.82833 48.867C4.87217 49.0501 4.87217 49.241 4.82833 49.4242C4.80082 49.4895 4.7561 49.579 4.11977 49.6443C4.07505 49.6306 3.72765 49.665 3.30457 49.665Z" fill="#231F20"/>
<path d="M4.63227 48.6673C4.46197 48.3666 4.33461 48.0436 4.25391 47.7076L4.63227 48.6673Z" fill="white"/>
<path d="M4.63119 48.8187C4.60508 48.8186 4.5794 48.812 4.55655 48.7994C4.53369 48.7867 4.51441 48.7685 4.50048 48.7464C4.32007 48.4309 4.18462 48.0917 4.09805 47.7386C4.08851 47.6981 4.09499 47.6554 4.11613 47.6195C4.13728 47.5837 4.17146 47.5573 4.21155 47.546C4.25215 47.5356 4.29523 47.5416 4.33134 47.5629C4.36746 47.5842 4.39365 47.6189 4.40417 47.6595C4.47793 47.9794 4.59359 48.2882 4.74814 48.5779C4.76399 48.6016 4.773 48.6292 4.77416 48.6577C4.77532 48.6862 4.76859 48.7144 4.75472 48.7393C4.74084 48.7642 4.72036 48.7848 4.69553 48.7988C4.67069 48.8128 4.64248 48.8197 4.61399 48.8187H4.63119Z" fill="#231F20"/>
<path d="M23.0584 44.6223L22.8039 46.3421C22.8039 46.3421 21.772 46.803 21.7135 47.0919C21.6551 47.3809 21.3696 48.1789 21.4384 48.4059C21.5863 48.7877 22.0816 48.6501 22.0816 48.6501C22.0247 48.8747 22.0095 49.1079 22.0369 49.338C22.1091 49.4928 24.4446 49.682 24.7886 49.2004C25.1325 48.7189 25.9064 43.7349 25.9064 43.7349" fill="white"/>
<path d="M23.4091 49.6649C22.9861 49.6649 22.6387 49.6305 22.6043 49.6271C21.9679 49.5618 21.9163 49.4723 21.8957 49.407C21.8519 49.2238 21.8519 49.0329 21.8957 48.8497C21.7704 48.8586 21.6456 48.8274 21.5392 48.7607C21.4329 48.6939 21.3505 48.595 21.3041 48.4783C21.225 48.2753 21.3316 47.8867 21.4898 47.3604C21.5242 47.2434 21.5517 47.1437 21.5689 47.0749C21.6412 46.7688 22.3119 46.4214 22.6696 46.2528L22.9138 44.6018C22.9198 44.5608 22.9418 44.5237 22.975 44.4989C23.0082 44.4741 23.0499 44.4634 23.091 44.4694C23.132 44.4753 23.169 44.4973 23.1939 44.5305C23.2187 44.5637 23.2293 44.6055 23.2234 44.6465L22.9689 46.3663C22.9651 46.3927 22.9545 46.4176 22.9382 46.4387C22.922 46.4598 22.9005 46.4763 22.876 46.4867C22.4988 46.6242 22.1569 46.844 21.8751 47.1299C21.8579 47.2056 21.8269 47.3122 21.7891 47.4326C21.6808 47.7266 21.6159 48.0348 21.5965 48.3476C21.6893 48.5918 22.0333 48.5023 22.0505 48.4989C22.0765 48.4915 22.1041 48.4911 22.1304 48.4976C22.1566 48.5042 22.1807 48.5176 22.2002 48.5364C22.2197 48.5552 22.2339 48.5788 22.2415 48.6048C22.249 48.6308 22.2496 48.6583 22.2431 48.6846C22.2018 48.8616 22.1822 49.043 22.1846 49.2247C22.5286 49.3416 24.4342 49.4414 24.6852 49.094C24.9363 48.7466 25.4798 45.6131 25.7756 43.6972C25.7785 43.6767 25.7855 43.6571 25.7962 43.6394C25.8068 43.6217 25.8208 43.6063 25.8375 43.5941C25.8542 43.582 25.8731 43.5732 25.8932 43.5685C25.9133 43.5637 25.9341 43.563 25.9545 43.5665C25.9749 43.5694 25.9946 43.5764 26.0122 43.587C26.0299 43.5976 26.0453 43.6117 26.0575 43.6284C26.0697 43.645 26.0784 43.664 26.0832 43.6841C26.0879 43.7041 26.0886 43.725 26.0852 43.7453C26.0061 44.2578 25.3009 48.7878 24.9398 49.2797C24.7093 49.5996 23.9904 49.6649 23.4091 49.6649Z" fill="#231F20"/>
<path d="M22.4454 48.6673C22.616 48.3664 22.7444 48.0435 22.8272 47.7076L22.4454 48.6673Z" fill="white"/>
<path d="M22.4463 48.8187C22.417 48.8189 22.3884 48.8105 22.3638 48.7947C22.3283 48.7726 22.303 48.7375 22.2934 48.6969C22.2837 48.6563 22.2905 48.6136 22.3122 48.578C22.4765 48.2906 22.5993 47.9814 22.6768 47.6596C22.6873 47.6198 22.713 47.5856 22.7483 47.5644C22.7836 47.5432 22.8258 47.5366 22.8659 47.5461C22.8863 47.5509 22.9054 47.5597 22.9223 47.5721C22.9391 47.5845 22.9532 47.6002 22.9638 47.6182C22.9744 47.6361 22.9813 47.6561 22.984 47.6768C22.9867 47.6975 22.9851 47.7186 22.9795 47.7387C22.8944 48.0906 22.7601 48.4287 22.5805 48.7431C22.5662 48.7658 22.5464 48.7847 22.523 48.7979C22.4996 48.8111 22.4732 48.8183 22.4463 48.8187Z" fill="#231F20"/>
<path d="M25.1971 29.433C25.1971 29.433 23.9245 24.8479 22.4282 23.1935C20.932 21.539 16.8457 19.7848 10.0731 20.6619C10.0731 20.6619 6.55776 21.594 4.43895 23.6097C2.32013 25.6253 1.55997 29.2128 1.55997 29.2128C1.55997 29.2128 -0.995673 38.4998 0.435215 45.2587L4.62469 45.5133C4.62469 45.5133 3.98492 37.578 6.13469 31.2766C6.52681 39.1878 7.13906 51.8456 7.56558 64.2317L12.5152 64.1286L13.9255 48.2202L14.4448 63.9531H19.5114C19.5114 63.9531 20.932 44.1477 20.2406 30.3961C22.7963 36.7972 22.0877 45.5305 22.0877 45.5305L26.2772 45.2759C27.5842 39.1087 25.5652 30.8157 25.1971 29.433Z" fill="#231F20"/>
<path d="M11.1944 15.1928C10.9949 13.9511 8.92766 13.645 9.03085 15.1103C9.04574 15.6196 9.24074 16.1071 9.58119 16.4861C9.75342 16.6692 9.97575 16.7975 10.2204 16.855C10.4651 16.9125 10.7213 16.8966 10.957 16.8094" fill="white"/>
<path d="M10.5377 17.0778C10.3352 17.0748 10.1353 17.032 9.94941 16.9517C9.7635 16.8714 9.59523 16.7553 9.45423 16.61C9.08333 16.1965 8.87017 15.6654 8.85229 15.1103C8.82732 14.9748 8.83098 14.8356 8.86303 14.7016C8.89509 14.5676 8.95483 14.4419 9.03841 14.3324C9.122 14.2229 9.22758 14.1321 9.34836 14.0658C9.46914 13.9996 9.60245 13.9593 9.73972 13.9477C10.1121 13.9097 10.4853 14.0121 10.7862 14.2348C11.0871 14.4574 11.2941 14.7843 11.3667 15.1516C11.3733 15.1752 11.3749 15.2 11.3713 15.2244C11.3678 15.2487 11.3591 15.272 11.346 15.2928C11.3328 15.3136 11.3155 15.3314 11.295 15.345C11.2745 15.3586 11.2514 15.3678 11.2272 15.3719C11.2029 15.376 11.1781 15.375 11.1543 15.3689C11.1304 15.3628 11.1082 15.3518 11.0889 15.3365C11.0696 15.3212 11.0537 15.3021 11.0423 15.2803C11.0309 15.2585 11.0243 15.2346 11.0227 15.21C10.9627 14.9334 10.8037 14.6882 10.5758 14.5203C10.3478 14.3525 10.0664 14.2737 9.78443 14.2985C9.55054 14.326 9.16874 14.4636 9.21001 15.0828C9.22305 15.5561 9.40341 16.0094 9.71908 16.3623C9.86665 16.5217 10.0581 16.6338 10.2692 16.6846C10.4804 16.7354 10.7019 16.7226 10.9058 16.6478C10.9487 16.6291 10.9972 16.628 11.041 16.6448C11.0847 16.6615 11.1201 16.6947 11.1396 16.7372C11.1585 16.7807 11.1597 16.8297 11.143 16.874C11.1263 16.9183 11.093 16.9544 11.0502 16.9746C10.8885 17.0443 10.7139 17.0795 10.5377 17.0778Z" fill="#231F20"/>
<path d="M16.3398 15.1928C16.5359 13.9511 18.6031 13.645 18.4999 15.1103C18.485 15.6196 18.29 16.1071 17.9496 16.4861C17.7774 16.6692 17.555 16.7975 17.3104 16.855C17.0657 16.9125 16.8095 16.8966 16.5737 16.8094" fill="white"/>
<path d="M16.9932 17.0779C16.8205 17.0782 16.6496 17.0431 16.491 16.9747C16.4454 16.9551 16.4095 16.9182 16.3911 16.872C16.3727 16.8259 16.3734 16.7744 16.393 16.7288C16.4126 16.6832 16.4495 16.6472 16.4957 16.6288C16.5418 16.6104 16.5933 16.6111 16.6389 16.6307C16.8423 16.7052 17.0632 16.7179 17.2738 16.6671C17.4843 16.6163 17.6751 16.5043 17.8222 16.3452C18.1232 16.0021 18.298 15.5665 18.3175 15.1104C18.3588 14.4913 17.9735 14.3537 17.7431 14.3262C17.4611 14.3013 17.1797 14.3802 16.9517 14.548C16.7238 14.7158 16.5648 14.961 16.5048 15.2377C16.5032 15.2622 16.4965 15.2862 16.4851 15.308C16.4737 15.3297 16.4579 15.3489 16.4386 15.3642C16.4193 15.3794 16.3971 15.3905 16.3732 15.3966C16.3494 15.4027 16.3246 15.4037 16.3003 15.3996C16.2761 15.3954 16.253 15.3863 16.2325 15.3726C16.212 15.359 16.1947 15.3412 16.1815 15.3205C16.1683 15.2997 16.1597 15.2764 16.1561 15.252C16.1526 15.2277 16.1542 15.2029 16.1608 15.1792C16.2327 14.8116 16.4395 14.4842 16.7406 14.2614C17.0417 14.0387 17.4152 13.9366 17.7878 13.9753C17.9226 13.9869 18.0536 14.0261 18.1726 14.0905C18.2916 14.1548 18.3962 14.243 18.4797 14.3494C18.5633 14.4558 18.624 14.5783 18.6583 14.7092C18.6925 14.8402 18.6994 14.9767 18.6786 15.1104C18.659 15.6611 18.4459 16.1872 18.0767 16.5963C17.9369 16.7442 17.7691 16.8628 17.5831 16.9455C17.3972 17.0281 17.1967 17.0731 16.9932 17.0779Z" fill="#231F20"/>
<path d="M16.1581 21.4116L14.71 30.0795L14.1803 33.2371L13.5061 30.0451L11.6797 21.4116H16.1581Z" fill="#88E58D"/>
<path d="M14.2694 24.3974L14.7097 30.0762L14.1903 33.2373L13.5024 30.0453L13.7569 24.4868L13.2169 23.5581L13.8464 22.5847L14.72 23.4859L14.2694 24.3974Z" fill="white"/>
<path d="M16.1581 21.4117C15.9438 21.7989 15.6252 22.1183 15.2385 22.3335C14.8518 22.5487 14.4125 22.6512 13.9705 22.6293C13.5159 22.6423 13.0657 22.5368 12.6641 22.3234C12.2625 22.1099 11.9233 21.7958 11.6797 21.4117L11.7485 20.5415L11.9067 18.519L12.058 16.6306H15.7797L15.9036 18.175L15.9414 18.6772L16.1581 21.4117Z" fill="white"/>
<path d="M13.9706 22.8048C13.4836 22.819 13.0013 22.7055 12.5717 22.4756C12.142 22.2457 11.78 21.9074 11.5216 21.4943C11.5044 21.4653 11.4972 21.4315 11.501 21.398L11.8828 16.6169C11.8854 16.5722 11.9051 16.5302 11.9377 16.4995C11.9703 16.4688 12.0134 16.4517 12.0582 16.4518H15.7799C15.8244 16.4525 15.8671 16.4698 15.8996 16.5004C15.932 16.5309 15.9519 16.5725 15.9553 16.6169L16.3371 21.398C16.3436 21.4263 16.3436 21.4557 16.3371 21.484C16.109 21.9063 15.7653 22.2549 15.3461 22.4888C14.927 22.7228 14.4498 22.8324 13.9706 22.8048ZM11.8587 21.367C12.0905 21.7114 12.4058 21.9914 12.7751 22.1809C13.1444 22.3703 13.5557 22.4631 13.9706 22.4505C14.3718 22.471 14.7709 22.3816 15.1249 22.1919C15.4789 22.0021 15.7744 21.7193 15.9794 21.3739L15.6148 16.8061H12.2233L11.8587 21.367Z" fill="#231F20"/>
<path d="M16.1922 18.0305C16.1516 18.2604 16.0663 18.4801 15.9411 18.6772C15.6277 19.1296 15.207 19.4971 14.7166 19.7469C13.9151 20.1906 12.7181 20.6894 11.7482 20.5415L11.9064 18.5189C12.6193 18.6034 13.3398 18.6034 14.0527 18.5189C14.6834 18.4988 15.3074 18.3829 15.9032 18.175C15.9996 18.1303 16.0993 18.0856 16.1922 18.0305Z" fill="#231F20"/>
<path d="M12.1265 20.7375C11.9942 20.7388 11.8619 20.7296 11.731 20.71C11.6881 20.704 11.6491 20.6817 11.6222 20.6478C11.5954 20.6138 11.5826 20.5708 11.5865 20.5277L11.7447 18.5052C11.751 18.4584 11.7743 18.4156 11.8101 18.3848C11.8475 18.3567 11.8944 18.3444 11.9408 18.3504C12.6401 18.4326 13.3466 18.4326 14.0458 18.3504C14.6595 18.3279 15.2661 18.2119 15.8448 18.0065C15.9376 17.9652 16.0305 17.9205 16.1165 17.8723C16.1445 17.8553 16.1766 17.8463 16.2094 17.8463C16.2421 17.8463 16.2743 17.8553 16.3022 17.8723C16.328 17.8914 16.3481 17.9172 16.3602 17.947C16.3723 17.9767 16.3761 18.0092 16.371 18.0409C16.3242 18.2857 16.2308 18.5192 16.0959 18.7288C15.7703 19.208 15.329 19.5973 14.8129 19.8604C14.1903 20.2285 13.1171 20.7375 12.1265 20.7375ZM11.9408 20.3936C12.9452 20.4727 14.1559 19.8707 14.6443 19.6024C15.1133 19.363 15.5135 19.0078 15.8069 18.5706C15.8525 18.4967 15.8927 18.4197 15.9273 18.3401C15.3305 18.5442 14.7071 18.66 14.0768 18.6841C13.4114 18.7546 12.7404 18.7546 12.0749 18.6841L11.9408 20.3936Z" fill="#231F20"/>
<path d="M14.0252 18.9938H13.6812C12.9274 18.9901 12.2056 18.6881 11.6738 18.1538C11.1421 17.6194 10.8435 16.8962 10.8435 16.1423V11.6295L14.125 12.4447L16.8767 11.6295V16.1423C16.8767 16.5168 16.8029 16.8876 16.6596 17.2335C16.5163 17.5795 16.3063 17.8938 16.0415 18.1586C15.7767 18.4234 15.4624 18.6334 15.1164 18.7767C14.7705 18.92 14.3997 18.9938 14.0252 18.9938Z" fill="white"/>
<path d="M14.0246 19.1725H13.6806C12.8796 19.168 12.1129 18.8468 11.5478 18.2791C10.9826 17.7114 10.665 16.9432 10.6641 16.1422V11.6294C10.6645 11.6023 10.671 11.5756 10.6828 11.5513C10.6947 11.5269 10.7118 11.5054 10.7329 11.4884C10.7544 11.4726 10.779 11.4617 10.8052 11.4564C10.8313 11.4511 10.8582 11.4514 10.8842 11.4574L14.1209 12.2588L16.8279 11.4608C16.854 11.4525 16.8817 11.4507 16.9087 11.4555C16.9357 11.4602 16.9611 11.4715 16.9827 11.4884C17.0049 11.5046 17.0231 11.5258 17.0356 11.5503C17.0482 11.5748 17.0548 11.6019 17.0549 11.6294V16.1422C17.054 16.9456 16.7344 17.7158 16.1663 18.2839C15.5982 18.852 14.828 19.1716 14.0246 19.1725ZM11.0183 11.8564V16.1422C11.0202 16.851 11.3028 17.5303 11.8044 18.0312C12.3059 18.5321 12.9855 18.8139 13.6944 18.8148H14.0383C14.7448 18.8103 15.4209 18.5269 15.9195 18.0264C16.4181 17.5258 16.6988 16.8487 16.7006 16.1422V11.8667L14.1897 12.6131C14.1593 12.6216 14.1272 12.6216 14.0968 12.6131L11.0183 11.8564Z" fill="#231F20"/>
<path d="M10.8359 14.0784V13.8205H10.8875L11.3725 13.7207C11.6326 13.6566 11.8992 13.6232 12.1671 13.621C12.5533 13.6343 12.9371 13.6873 13.3125 13.7792C13.7053 13.877 14.1143 13.8911 14.5129 13.8205C14.8087 13.7654 15.1011 13.707 15.3969 13.6588C15.616 13.621 15.839 13.6106 16.0607 13.6278C16.3979 13.6754 16.7321 13.742 17.0617 13.8273C17.0848 13.8308 17.1057 13.8431 17.1199 13.8618C17.134 13.8804 17.1403 13.9039 17.1373 13.9271V14.1507C17.1381 14.1707 17.1334 14.1906 17.1237 14.2082C17.114 14.2258 17.0997 14.2404 17.0823 14.2504C17.0237 14.2886 16.9781 14.3438 16.9516 14.4086C16.9331 14.4533 16.9182 14.4993 16.9069 14.5462C16.8587 14.7148 16.8175 14.8902 16.7659 15.0587C16.7225 15.2157 16.6402 15.3592 16.5265 15.4759C16.4129 15.5925 16.2716 15.6786 16.1158 15.726C15.8805 15.8083 15.6276 15.8261 15.3831 15.7776C15.1999 15.7534 15.0252 15.6854 14.8737 15.5794C14.7222 15.4735 14.5985 15.3326 14.5129 15.1688C14.4297 15.0081 14.3618 14.84 14.31 14.6666C14.2782 14.5814 14.2378 14.4995 14.1896 14.4224C14.1804 14.4077 14.1684 14.3949 14.1542 14.3848C14.14 14.3748 14.124 14.3677 14.107 14.3639C14.0464 14.3587 13.9854 14.3587 13.9247 14.3639C13.8967 14.3628 13.869 14.3705 13.8455 14.3859C13.8221 14.4013 13.8041 14.4237 13.794 14.4499C13.7599 14.5242 13.7323 14.6013 13.7115 14.6804C13.6575 14.8974 13.5617 15.1019 13.4294 15.2823C13.2929 15.5038 13.08 15.6678 12.8309 15.7432C12.7371 15.7662 12.6416 15.7823 12.5454 15.7914C12.2719 15.8211 11.9952 15.782 11.7406 15.6779C11.5749 15.6161 11.4394 15.4929 11.3622 15.3339C11.2473 15.0843 11.1574 14.8239 11.0939 14.5565C11.0724 14.4614 11.0261 14.3736 10.9598 14.302C10.8962 14.2422 10.853 14.164 10.8359 14.0784Z" fill="black"/>
<path d="M17.4554 14.0784H17.39C17.347 14.0601 17.3127 14.026 17.2941 13.9831C17.2756 13.9402 17.2742 13.8919 17.2903 13.848C17.5268 13.2934 17.6487 12.6967 17.6487 12.0938C17.6487 11.4908 17.5268 10.8941 17.2903 10.3396C17.0469 9.79912 16.6634 9.33362 16.1796 8.9913C15.6958 8.64898 15.1292 8.44231 14.5385 8.39272C14.0615 8.3903 13.5866 8.45632 13.1283 8.58878C12.5887 8.69415 12.0747 8.90325 11.6149 9.20448C11.0013 9.69963 10.5921 10.4039 10.466 11.1823C10.3413 11.9786 10.3136 12.787 10.3835 13.59C10.3853 13.6369 10.3687 13.6826 10.3372 13.7174C10.3057 13.7521 10.2618 13.7731 10.2149 13.7758C10.1916 13.7771 10.1682 13.7739 10.1462 13.7661C10.1242 13.7583 10.1039 13.7462 10.0866 13.7305C10.0693 13.7148 10.0553 13.6959 10.0454 13.6747C10.0356 13.6535 10.0301 13.6306 10.0292 13.6072C9.95599 12.772 9.98603 11.931 10.1186 11.1032C10.2596 10.2441 10.7113 9.46678 11.3878 8.91899C11.8835 8.58501 12.4397 8.3513 13.0251 8.23106C13.516 8.0904 14.0245 8.0209 14.5351 8.02468C15.1926 8.07547 15.8244 8.30215 16.3642 8.68098C16.904 9.05981 17.3319 9.57683 17.6033 10.1779C17.8578 10.7761 17.9889 11.4196 17.9889 12.0697C17.9889 12.7198 17.8578 13.3633 17.6033 13.9615C17.5923 13.993 17.5726 14.0208 17.5464 14.0415C17.5202 14.0622 17.4886 14.075 17.4554 14.0784Z" fill="#231F20"/>
<path d="M14.2932 16.9849C14.1438 16.9865 13.9944 16.9785 13.846 16.9609C13.8227 16.9588 13.8001 16.952 13.7796 16.9408C13.759 16.9297 13.7409 16.9145 13.7264 16.8961C13.712 16.8778 13.7014 16.8567 13.6953 16.8341C13.6893 16.8115 13.6879 16.7879 13.6912 16.7648C13.6938 16.7417 13.7009 16.7193 13.7122 16.699C13.7235 16.6787 13.7387 16.6608 13.7569 16.6464C13.7751 16.632 13.7961 16.6214 13.8185 16.6151C13.8408 16.6089 13.8642 16.6071 13.8873 16.61C14.1343 16.6349 14.3832 16.6349 14.6303 16.61C14.6819 16.4002 14.4686 15.5609 14.1418 14.7148C14.1335 14.6922 14.1297 14.6682 14.1306 14.6441C14.1315 14.6201 14.1372 14.5964 14.1472 14.5745C14.1573 14.5527 14.1715 14.533 14.1892 14.5166C14.2069 14.5002 14.2276 14.4875 14.2502 14.4792C14.2728 14.4708 14.2968 14.467 14.3208 14.4679C14.3449 14.4688 14.3686 14.4745 14.3904 14.4845C14.4123 14.4946 14.432 14.5089 14.4484 14.5265C14.4647 14.5442 14.4774 14.5649 14.4858 14.5875C14.6956 15.1344 15.1737 16.4484 14.9364 16.8198C14.9148 16.8578 14.8846 16.89 14.8481 16.9139C14.8116 16.9379 14.7699 16.9528 14.7266 16.9574C14.5829 16.9769 14.4381 16.9861 14.2932 16.9849Z" fill="#231F20"/>
<path d="M13.0896 17.7897C13.0486 17.7862 13.0102 17.7683 12.9811 17.7392C12.9519 17.7101 12.9339 17.6717 12.9302 17.6307C12.9265 17.5897 12.9374 17.5487 12.9609 17.5149C12.9844 17.4811 13.019 17.4566 13.0587 17.4458C13.1137 17.4458 14.4517 17.1809 15.3048 17.3942C15.3276 17.3998 15.3491 17.4099 15.368 17.4238C15.3869 17.4378 15.4029 17.4553 15.415 17.4755C15.4272 17.4956 15.4352 17.5179 15.4387 17.5411C15.4422 17.5644 15.4411 17.5881 15.4355 17.6109C15.4233 17.6565 15.3939 17.6956 15.3535 17.72C15.3131 17.7443 15.2648 17.7521 15.2188 17.7416C14.438 17.5455 13.155 17.7898 13.124 17.7932L13.0896 17.7897Z" fill="#231F20"/>
<path d="M14.5852 63.9531L14.5508 67.2242L16.8416 67.6335L16.9448 66.9456C17.2951 67.3845 17.7303 67.7483 18.2243 68.0153C18.9432 68.3592 23.1464 69.8177 22.7887 68.4074C22.431 66.9972 20.6871 66.409 19.9166 65.5835C19.6936 65.3599 19.5228 65.0898 19.4163 64.7924C19.3099 64.4951 19.2705 64.178 19.3009 63.8636" fill="white"/>
<path d="M22.0196 69.1539C20.7023 69.1539 18.4355 68.2802 18.1604 68.1495C17.7418 67.9342 17.3655 67.6452 17.0494 67.2965L16.9978 67.6404C16.9943 67.6611 16.9867 67.6809 16.9755 67.6986C16.9642 67.7163 16.9496 67.7316 16.9324 67.7436C16.9161 67.7563 16.8971 67.7653 16.8769 67.7701C16.8568 67.7748 16.8358 67.7752 16.8155 67.7711L14.535 67.3618C14.4986 67.3554 14.4655 67.3364 14.4416 67.3081C14.4177 67.2798 14.4045 67.244 14.4043 67.207L14.4387 63.9359C14.4396 63.8946 14.4567 63.8552 14.4862 63.8263C14.5158 63.7973 14.5555 63.7811 14.5969 63.7811C14.6175 63.7811 14.6379 63.7853 14.657 63.7933C14.676 63.8012 14.6932 63.813 14.7076 63.8277C14.722 63.8424 14.7333 63.8599 14.7409 63.8791C14.7485 63.8983 14.7522 63.9188 14.7517 63.9394L14.7207 67.0763L16.7226 67.4203L16.7983 66.8975C16.803 66.8668 16.8166 66.8382 16.8374 66.8152C16.8582 66.7922 16.8854 66.7758 16.9154 66.7681C16.9455 66.7604 16.9771 66.7617 17.0065 66.7719C17.0358 66.782 17.0615 66.8006 17.0803 66.8252C17.4149 67.2481 17.8313 67.5991 18.3048 67.8571C19.0272 68.2011 22.0128 69.1883 22.5906 68.7136C22.6422 68.6723 22.6938 68.6035 22.6491 68.4281C22.4255 67.551 21.6172 67.0144 20.8674 66.495C20.4877 66.26 20.1348 65.9844 19.8148 65.6729C19.5759 65.4347 19.393 65.1463 19.2794 64.8286C19.1657 64.5109 19.1242 64.1719 19.1579 63.8362C19.169 63.7994 19.1932 63.7679 19.2258 63.7476C19.2585 63.7273 19.2974 63.7196 19.3353 63.7259C19.3733 63.7322 19.4076 63.7521 19.4319 63.7819C19.4562 63.8117 19.4688 63.8494 19.4674 63.8878C19.4407 64.1767 19.4781 64.468 19.5768 64.7409C19.6754 65.0138 19.8331 65.2615 20.0384 65.4666C20.3432 65.7584 20.6775 66.0177 21.0359 66.2405C21.8133 66.7667 22.6938 67.3652 22.9449 68.3559C22.9835 68.4617 22.9887 68.5768 22.9598 68.6857C22.9309 68.7946 22.8693 68.8919 22.7832 68.9647C22.5567 69.1105 22.2881 69.177 22.0196 69.1539Z" fill="#231F20"/>
<path d="M12.3285 63.9531L12.3629 67.2242L10.0618 67.6163L9.95861 66.9284C9.61099 67.3691 9.17816 67.7353 8.68595 68.005C7.96706 68.349 3.76039 69.8074 4.12155 68.3971C4.48271 66.9869 6.22317 66.3987 6.99365 65.5732C7.21665 65.3496 7.38749 65.0795 7.49393 64.7822C7.60037 64.4849 7.63978 64.1677 7.60934 63.8534" fill="white"/>
<path d="M4.90241 69.1539C4.63506 69.1768 4.36767 69.1103 4.14225 68.9647C4.05623 68.892 3.99461 68.7946 3.9657 68.6857C3.93679 68.5769 3.94198 68.4617 3.98058 68.3559C4.23168 67.3653 5.11222 66.7668 5.88958 66.2405C6.24797 66.0178 6.58226 65.7584 6.88707 65.4666C7.09269 65.2631 7.25079 65.0166 7.35009 64.7449C7.44939 64.4732 7.48743 64.1829 7.46149 63.8947C7.45553 63.8537 7.46588 63.812 7.49032 63.7786C7.51476 63.7451 7.55134 63.7226 7.5922 63.7158C7.61256 63.7119 7.6335 63.7121 7.65379 63.7164C7.67408 63.7207 7.69329 63.729 7.7103 63.7409C7.7273 63.7527 7.74175 63.7679 7.75278 63.7855C7.76381 63.803 7.77119 63.8226 7.7745 63.8431C7.80429 64.1781 7.76029 64.5156 7.6456 64.8317C7.5309 65.1479 7.3483 65.435 7.11065 65.673C6.79069 65.9844 6.43777 66.2601 6.05812 66.4951C5.29108 67.0145 4.49997 67.551 4.27639 68.4281C4.23168 68.6036 4.27639 68.6724 4.33487 68.7136C4.91272 69.1883 7.89833 68.2011 8.62065 67.8572C9.09414 67.5992 9.51064 67.2482 9.84516 66.8253C9.86429 66.801 9.89012 66.7828 9.91947 66.773C9.94881 66.7632 9.98038 66.7623 10.0103 66.7702C10.0396 66.778 10.0659 66.7942 10.0861 66.8168C10.1063 66.8395 10.1194 66.8675 10.1238 66.8975L10.2029 67.4203L12.2048 67.0764L12.1704 63.9394C12.1704 63.8975 12.187 63.8572 12.2167 63.8275C12.2464 63.7979 12.2866 63.7812 12.3286 63.7812C12.3699 63.7812 12.4097 63.7974 12.4393 63.8263C12.4688 63.8553 12.4859 63.8946 12.4868 63.936L12.5212 67.2071C12.521 67.2441 12.5077 67.2798 12.4839 67.3081C12.46 67.3364 12.4269 67.3554 12.3905 67.3619L10.0997 67.7712C10.0788 67.7753 10.0573 67.775 10.0366 67.7703C10.0158 67.7655 9.99631 67.7565 9.97931 67.7437C9.96262 67.7315 9.94854 67.7161 9.93791 67.6983C9.92728 67.6806 9.9203 67.6609 9.91739 67.6405L9.8658 67.2965C9.54971 67.6453 9.17337 67.9342 8.7548 68.1495C8.47962 68.2802 6.20947 69.1539 4.90241 69.1539Z" fill="#231F20"/>
<path d="M19.4419 41.6609H15.4588C15.4215 41.6615 15.385 41.6496 15.3551 41.6272C15.3252 41.6048 15.3036 41.5731 15.2937 41.5371L14.2377 37.695L13.309 41.2928C13.2992 41.3301 13.2774 41.3631 13.2469 41.3868C13.2165 41.4104 13.1791 41.4233 13.1405 41.4236L7.68868 41.286C7.66625 41.2855 7.64413 41.2806 7.62362 41.2715C7.60311 41.2624 7.58462 41.2493 7.56925 41.233C7.55387 41.2166 7.54191 41.1974 7.53407 41.1764C7.52622 41.1553 7.52266 41.133 7.52358 41.1105C7.52448 41.0655 7.54299 41.0227 7.57515 40.9912C7.60731 40.9596 7.65054 40.942 7.69556 40.942L13.0098 41.0762L14.0658 36.983C14.075 36.9463 14.0963 36.9138 14.1263 36.8908C14.1562 36.8677 14.1931 36.8553 14.2309 36.8557C14.2687 36.8553 14.3055 36.8677 14.3355 36.8908C14.3654 36.9138 14.3867 36.9463 14.396 36.983L15.5895 41.3169H19.4419C19.4875 41.3169 19.5313 41.335 19.5635 41.3673C19.5958 41.3995 19.6139 41.4433 19.6139 41.4889C19.6139 41.5115 19.6094 41.5339 19.6008 41.5547C19.5922 41.5756 19.5795 41.5945 19.5635 41.6105C19.5475 41.6265 19.5286 41.6392 19.5077 41.6478C19.4869 41.6564 19.4645 41.6609 19.4419 41.6609Z" fill="white"/>
<path d="M79.2645 49.3725C79.302 48.8264 79.1826 48.281 78.9205 47.8005C78.6682 47.4818 78.4328 47.15 78.2154 46.8065C77.9162 46.1667 78.126 45.4134 78.0572 44.7118C77.9955 44.124 77.736 43.5745 77.3211 43.1536C76.9565 42.7821 76.4818 42.5276 76.131 42.1423C75.5566 41.506 75.3915 40.6152 75.0647 39.824C74.6006 38.7057 73.7984 37.7604 72.7705 37.1205C73.3965 38.3828 71.969 39.9823 72.6157 41.248C72.8186 41.6436 73.2107 41.936 73.3621 42.3522C73.7232 43.3841 72.5159 44.4641 72.9012 45.4685C73.0938 45.9707 73.6338 46.263 73.8849 46.7377C74.2289 47.3809 73.9571 48.1583 73.9846 48.884C74.0225 49.885 74.6313 50.7793 75.3605 51.4706C75.8111 51.904 76.3098 52.2755 76.7983 52.6642C77.3796 53.132 77.6238 53.6204 78.1363 52.874C78.8456 51.8417 79.2377 50.6247 79.2645 49.3725Z" fill="#231F20"/>
<path d="M79.9155 49.947C79.7298 49.1731 79.5956 48.3338 79.9155 47.6046C80.2595 46.7791 81.1606 46.1944 81.2638 45.3001C81.3326 44.7153 81.0334 44.1237 81.1503 43.5459C81.2673 42.968 81.7419 42.5724 82.1306 42.1459C83.026 41.1612 83.5587 39.9005 83.6406 38.5721C84.2407 39.2847 84.7259 40.0866 85.0784 40.9489C85.2512 41.3829 85.3221 41.8508 85.2857 42.3165C85.2493 42.7822 85.1066 43.2334 84.8686 43.6353C84.7183 43.8145 84.5954 44.0151 84.504 44.2303C84.3286 44.7979 84.817 45.331 85.0681 45.871C85.2178 46.18 85.2802 46.524 85.2487 46.8659C85.2172 47.2078 85.0929 47.5346 84.8892 47.811C84.3801 48.4473 83.393 48.695 83.1419 49.4723C83.0803 49.7617 83.0514 50.0571 83.0559 50.3529C83.0019 50.8669 82.7956 51.353 82.4634 51.7489C82.1312 52.1448 81.6884 52.4324 81.1916 52.5749C80.5897 52.7194 80.6 52.482 80.5037 51.973C80.342 51.2885 80.0806 50.6281 79.9155 49.947Z" fill="#231F20"/>
<path d="M77.9921 44.3816C77.5621 42.8957 77.3901 41.3444 76.9361 39.8619C76.5491 38.707 76.0789 37.5815 75.5293 36.4945L77.3729 37.2719C77.9646 37.5195 78.6043 37.8153 78.8829 38.3932C79.3679 39.3976 78.4977 40.6874 79.0068 41.6815C79.2281 42.0043 79.4717 42.3112 79.736 42.5999C80.2794 43.36 80.1969 44.4091 79.8976 45.2965C79.7704 45.6749 79.2097 47.6492 78.711 47.1023C78.5115 46.8822 78.4943 46.0704 78.4117 45.7643C78.281 45.3 78.1228 44.8459 77.9921 44.3816Z" fill="#231F20"/>
<path d="M78.9857 64.1285C78.6177 61.7002 77.4654 53.1389 77.4551 53.0529L77.799 53.0048C77.799 53.0908 78.9616 61.652 79.3297 64.0769L78.9857 64.1285Z" fill="#231F20"/>
<path d="M79.4436 66.4227H79.0997C79.1203 63.5369 80.3242 52.506 81.019 51.7493L81.2735 51.9797C80.7438 52.5541 79.4677 63.217 79.4436 66.4227Z" fill="#231F20"/>
<path d="M80.0696 65.8723L79.7257 65.8551C80.0008 59.6397 78.6938 46.5932 78.6663 46.4487L79.0102 46.4143C79.024 46.545 80.3448 59.6294 80.0696 65.8723Z" fill="#231F20"/>
<path d="M75.8398 58.2709H82.7019L82.2238 65.2189C82.1837 65.7984 81.9254 66.3411 81.5009 66.7375C81.0764 67.1339 80.5173 67.3546 79.9364 67.3549H78.6087C78.0279 67.3546 77.4688 67.1339 77.0443 66.7375C76.6198 66.3411 76.3614 65.7984 76.3214 65.2189L75.8398 58.2709Z" fill="white"/>
<path d="M79.9345 67.5339H78.6068C77.9813 67.532 77.3796 67.2939 76.9223 66.8671C76.4649 66.4404 76.1857 65.8566 76.1406 65.2327L75.6625 58.2847C75.6609 58.2602 75.6643 58.2357 75.6726 58.2126C75.6809 58.1895 75.6938 58.1684 75.7106 58.1505C75.727 58.1332 75.7467 58.1194 75.7686 58.1099C75.7905 58.1004 75.8141 58.0955 75.8379 58.0955H82.7C82.7245 58.0949 82.7489 58.0995 82.7715 58.109C82.7942 58.1184 82.8146 58.1325 82.8314 58.1504C82.8483 58.1682 82.8612 58.1894 82.8694 58.2125C82.8776 58.2356 82.8808 58.2602 82.8788 58.2847L82.3973 65.2327C82.353 65.8563 82.0745 66.4401 81.6178 66.8669C81.161 67.2937 80.5597 67.532 79.9345 67.5339ZM76.0305 58.4498L76.4949 65.2087C76.5339 65.7425 76.7732 66.2419 77.1649 66.6067C77.5565 66.9716 78.0716 67.175 78.6068 67.1761H79.9345C80.4694 67.1749 80.984 66.9714 81.3751 66.6065C81.7662 66.2415 82.0048 65.7422 82.043 65.2087L82.5108 58.4498H76.0305Z" fill="#231F20"/>
</svg>
